SplineFontDB: 3.0
FontName: Ume-P-Gothic_Balsa
FullName: Ume P Gothic Balsa
FamilyName: Ume P Gothic Balsa
Weight: Book
Copyright: Author: HORAI Wataru. License: This font is a free software. Unlimited permission is granted to use, copy, and distribute it, with or without modification, either commercially and noncommercially. THIS FONT IS PROVIDED "AS IS" WITHOUT WARRANTY.
Version: Look update time of this file.
ItalicAngle: 0
UnderlinePosition: -72
UnderlineWidth: 48
Ascent: 3520
Descent: 576
sfntRevision: 0x00000000
LayerCount: 2
Layer: 0 1 "Arri+AOgA-re"  1
Layer: 1 1 "Avant"  0
XUID: [1021 509 -937916376 11684728]
FSType: 8
OS2Version: 1
OS2_WeightWidthSlopeOnly: 0
OS2_UseTypoMetrics: 1
CreationTime: -2082844800
ModificationTime: 1336817155
PfmFamily: 17
TTFWeight: 400
TTFWidth: 5
LineGap: 0
VLineGap: 0
Panose: 2 0 6 0 0 0 0 0 0 0
OS2TypoAscent: 3520
OS2TypoAOffset: 0
OS2TypoDescent: -576
OS2TypoDOffset: 0
OS2TypoLinegap: 0
OS2WinAscent: 3408
OS2WinAOffset: 0
OS2WinDescent: 576
OS2WinDOffset: 0
HheadAscent: 3408
HheadAOffset: 0
HheadDescent: -576
HheadDOffset: 0
OS2SubXSize: 2048
OS2SubYSize: 2048
OS2SubXOff: 0
OS2SubYOff: 1472
OS2SupXSize: 2048
OS2SupYSize: 2048
OS2SupXOff: 0
OS2SupYOff: 1760
OS2StrikeYSize: 208
OS2StrikeYPos: 1056
OS2Vendor: 'Take'
OS2CodePages: 4002009f.dfd70000
OS2UnicodeRanges: a00002bf.68c7fcfb.00000010.00000000
Lookup: 1 1 0 "'vert' Formes verticales alternatives (CJK) dans Hiragana & katakana lookup 0"  {"sous-table 'vert' Formes verticales alternatives (CJK) dans Hiragana & katakana lookup 0"  } ['vert' ('kana' <'JAN ' 'dflt' > ) ]
MarkAttachClasses: 1
DEI: 91125
TtTable: prep
PUSHW_1
 511
SCANCTRL
PUSHB_1
 1
SCANTYPE
PUSHB_2
 1
 129
RCVT
WCVTP
PUSHB_2
 2
 130
RCVT
WCVTP
PUSHB_2
 3
 131
RCVT
WCVTP
PUSHB_2
 4
 132
RCVT
WCVTP
PUSHB_2
 5
 133
RCVT
WCVTP
PUSHB_2
 6
 134
RCVT
WCVTP
PUSHB_2
 7
 135
RCVT
WCVTP
PUSHB_2
 8
 136
RCVT
WCVTP
PUSHB_2
 9
 137
RCVT
WCVTP
PUSHB_2
 10
 138
RCVT
WCVTP
PUSHB_2
 11
 139
RCVT
WCVTP
PUSHB_2
 12
 140
RCVT

StartChar: .notdef
Encoding: 65536 -1 0
Width: 4096
Flags: W
LayerCount: 2
Fore
SplineSet
400 400 m 1,0,-1
 400 620 l 1,1,-1
 620 620 l 1,2,-1
 620 400 l 1,3,-1
 400 400 l 1,0,-1
EndSplineSet
EndChar

StartChar: exclam
Encoding: 33 33 4
Width: 896
GlyphClass: 2
Flags: W
LayerCount: 2
Fore
SplineSet
640 3104 m 1,0,-1
 560 976 l 1,1,-1
 320 976 l 1,2,-1
 256 3104 l 1,3,-1
 640 3104 l 1,0,-1
592 0 m 1,4,-1
 304 0 l 1,5,-1
 304 528 l 1,6,-1
 592 528 l 1,7,-1
 592 0 l 1,4,-1
EndSplineSet
EndChar

StartChar: quotedbl
Encoding: 34 34 5
Width: 2048
GlyphClass: 2
Flags: W
LayerCount: 2
Fore
SplineSet
736 3104 m 1,0,-1
 736 2512 l 2,1,2
 736 1760 736 1760 272 1728 c 1,3,-1
 272 2016 l 1,4,5
 496 2016 496 2016 496 2528 c 1,6,-1
 272 2528 l 1,7,-1
 272 3104 l 1,8,-1
 736 3104 l 1,0,-1
1488 3104 m 1,9,-1
 1488 2512 l 2,10,11
 1488 1760 1488 1760 1024 1728 c 1,12,-1
 1024 2016 l 1,13,14
 1248 2016 1248 2016 1248 2528 c 1,15,-1
 1024 2528 l 1,16,-1
 1024 3104 l 1,17,-1
 1488 3104 l 1,9,-1
EndSplineSet
EndChar

StartChar: numbersign
Encoding: 35 35 6
Width: 2048
GlyphClass: 2
Flags: W
LayerCount: 2
Fore
SplineSet
2000 2080 m 1,0,-1
 1655 2080 l 1,1,-1
 1502 1152 l 1,2,-1
 1856 1152 l 1,3,-1
 1856 928 l 1,4,-1
 1465 928 l 1,5,-1
 1312 0 l 1,6,-1
 1024 0 l 1,7,-1
 1177 928 l 1,8,-1
 649 928 l 1,9,-1
 496 0 l 1,10,-1
 208 0 l 1,11,-1
 361 928 l 1,12,-1
 48 928 l 1,13,-1
 48 1152 l 1,14,-1
 398 1152 l 1,15,-1
 551 2080 l 1,16,-1
 176 2080 l 1,17,-1
 176 2304 l 1,18,-1
 588 2304 l 1,19,-1
 720 3104 l 1,20,-1
 1008 3104 l 1,21,-1
 876 2304 l 1,22,-1
 1404 2304 l 1,23,-1
 1536 3104 l 1,24,-1
 1824 3104 l 1,25,-1
 1692 2304 l 1,26,-1
 2000 2304 l 1,27,-1
 2000 2080 l 1,0,-1
839 2080 m 1,28,-1
 686 1152 l 1,29,-1
 1214 1152 l 1,30,-1
 1367 2080 l 1,31,-1
 839 2080 l 1,28,-1
EndSplineSet
EndChar

StartChar: dollar
Encoding: 36 36 7
Width: 2048
GlyphClass: 2
Flags: W
LayerCount: 2
Fore
SplineSet
880 3520 m 1,0,-1
 1168 3520 l 1,1,-1
 1168 3097 l 1,2,3
 1340 3079 1340 3079 1488 3016 c 0,4,5
 1696 2928 1696 2928 1872 2752 c 1,6,-1
 1872 2320 l 1,7,8
 1648 2592 1648 2592 1472 2712 c 0,9,10
 1345 2799 1345 2799 1168 2823 c 1,11,-1
 1168 1645 l 1,12,13
 1352 1611 1352 1611 1528 1504 c 0,14,15
 1712 1392 1712 1392 1800 1224 c 128,-1,16
 1888 1056 1888 1056 1888 816 c 0,17,18
 1888 400 1888 400 1688 200 c 0,19,20
 1521 33 1521 33 1168 5 c 1,21,-1
 1168 -576 l 1,22,-1
 880 -576 l 1,23,-1
 880 11 l 1,24,25
 733 32 733 32 568 96 c 0,26,27
 320 192 320 192 160 368 c 1,28,-1
 160 752 l 1,29,30
 400 480 400 480 624 384 c 0,31,32
 761 325 761 325 880 302 c 1,33,-1
 880 1444 l 1,34,35
 743 1476 743 1476 584 1544 c 0,36,37
 416 1616 416 1616 288 1800 c 128,-1,38
 160 1984 160 1984 160 2272 c 0,39,40
 160 2640 160 2640 336 2872 c 0,41,42
 486 3070 486 3070 880 3099 c 1,43,-1
 880 3520 l 1,0,-1
576 2688 m 0,44,45
 464 2544 464 2544 464 2272 c 256,46,47
 464 2000 464 2000 592 1872 c 0,48,49
 709 1755 709 1755 880 1718 c 1,50,-1
 880 2824 l 1,51,52
 662 2799 662 2799 576 2688 c 0,44,45
1456 408 m 0,53,54
 1600 528 1600 528 1600 816 c 0,55,56
 1600 1088 1600 1088 1432 1224 c 0,57,58
 1285 1343 1285 1343 1168 1383 c 1,59,-1
 1168 297 l 1,60,61
 1351 320 1351 320 1456 408 c 0,53,54
EndSplineSet
EndChar

StartChar: percent
Encoding: 37 37 8
Width: 2048
GlyphClass: 2
Flags: W
LayerCount: 2
Fore
SplineSet
1504 1632 m 256,0,1
 1744 1632 1744 1632 1864 1392 c 128,-1,2
 1984 1152 1984 1152 1984 704 c 0,3,4
 1984 192 1984 192 1856 -8 c 128,-1,5
 1728 -208 1728 -208 1504 -208 c 0,6,7
 1248 -208 1248 -208 1144 24 c 128,-1,8
 1040 256 1040 256 1040 704 c 0,9,10
 1040 1184 1040 1184 1152 1408 c 128,-1,11
 1264 1632 1264 1632 1504 1632 c 256,0,1
1504 1360 m 0,12,13
 1344 1360 1344 1360 1344 704 c 0,14,15
 1344 64 1344 64 1504 64 c 0,16,17
 1696 64 1696 64 1696 704 c 0,18,19
 1696 1360 1696 1360 1504 1360 c 0,12,13
512 3200 m 0,20,21
 768 3200 768 3200 872 2944 c 128,-1,22
 976 2688 976 2688 976 2256 c 0,23,24
 976 1744 976 1744 856 1528 c 128,-1,25
 736 1312 736 1312 512 1312 c 0,26,27
 240 1312 240 1312 136 1560 c 128,-1,28
 32 1808 32 1808 32 2256 c 0,29,30
 32 2736 32 2736 152 2968 c 128,-1,31
 272 3200 272 3200 512 3200 c 0,20,21
512 2928 m 1,32,33
 336 2944 336 2944 336 2256 c 256,34,35
 336 1568 336 1568 512 1568 c 256,36,37
 688 1568 688 1568 688 2256 c 0,38,39
 688 2928 688 2928 512 2928 c 1,32,33
1872 3248 m 1,40,-1
 512 -176 l 1,41,-1
 208 -176 l 1,42,-1
 1568 3248 l 1,43,-1
 1872 3248 l 1,40,-1
EndSplineSet
EndChar

StartChar: ampersand
Encoding: 38 38 9
Width: 2432
GlyphClass: 2
Flags: W
LayerCount: 2
Fore
SplineSet
912 0 m 0,0,1
 560 0 560 0 344 192 c 128,-1,2
 128 384 128 384 128 768 c 0,3,4
 128 1008 128 1008 264 1200 c 128,-1,5
 400 1392 400 1392 632 1528 c 0,6,7
 665 1547 665 1547 699 1569 c 1,8,9
 414 2092 414 2092 400 2432 c 1,10,11
 416 2784 416 2784 608 2952 c 128,-1,12
 800 3120 800 3120 1088 3104 c 1,13,14
 1392 3104 1392 3104 1560 2936 c 128,-1,15
 1728 2768 1728 2768 1728 2480 c 256,16,17
 1728 2192 1728 2192 1552 1952 c 128,-1,18
 1376 1712 1376 1712 1176 1568 c 0,19,20
 1115 1524 1115 1524 1046 1475 c 1,21,22
 1232 1175 1232 1175 1598 744 c 1,23,24
 1705 900 1705 900 1760 1080 c 0,25,26
 1856 1392 1856 1392 1888 1808 c 1,27,-1
 2192 1808 l 1,28,29
 2160 1280 2160 1280 2008 896 c 0,30,31
 1924 683 1924 683 1802 509 c 1,32,33
 2014 272 2014 272 2272 0 c 1,34,-1
 1840 0 l 1,35,36
 1718 142 1718 142 1606 277 c 1,37,38
 1595 266 1595 266 1584 256 c 0,39,40
 1312 0 1312 0 912 0 c 0,0,1
1152 1904 m 0,41,42
 1440 2144 1440 2144 1440 2480 c 0,43,44
 1440 2656 1440 2656 1344 2752 c 128,-1,45
 1248 2848 1248 2848 1088 2848 c 0,46,47
 896 2848 896 2848 792 2736 c 128,-1,48
 688 2624 688 2624 688 2432 c 1,49,50
 701 2123 701 2123 911 1714 c 1,51,52
 1026 1799 1026 1799 1152 1904 c 0,41,42
704 1232 m 0,53,54
 432 1040 432 1040 416 768 c 1,55,56
 416 496 416 496 568 392 c 128,-1,57
 720 288 720 288 928 288 c 0,58,59
 1165 288 1165 288 1409 521 c 1,60,61
 1065 958 1065 958 839 1327 c 1,62,63
 774 1281 774 1281 704 1232 c 0,53,54
EndSplineSet
EndChar

StartChar: quotesingle
Encoding: 39 39 10
Width: 832
GlyphClass: 2
Flags: W
LayerCount: 2
Fore
SplineSet
672 3104 m 1,0,-1
 672 2512 l 2,1,2
 672 1760 672 1760 192 1728 c 1,3,-1
 192 2016 l 1,4,5
 416 2016 416 2016 416 2528 c 1,6,-1
 192 2528 l 1,7,-1
 192 3104 l 1,8,-1
 672 3104 l 1,0,-1
EndSplineSet
EndChar

StartChar: parenleft
Encoding: 40 40 11
Width: 1248
GlyphClass: 2
Flags: W
LayerCount: 2
Fore
SplineSet
1088 -384 m 1,0,-1
 880 -512 l 1,1,2
 208 288 208 288 208 1472 c 0,3,4
 208 2624 208 2624 880 3440 c 1,5,-1
 1088 3312 l 1,6,7
 512 2496 512 2496 512 1472 c 0,8,9
 512 400 512 400 1088 -384 c 1,0,-1
EndSplineSet
EndChar

StartChar: parenright
Encoding: 41 41 12
Width: 1248
GlyphClass: 2
Flags: W
LayerCount: 2
Fore
SplineSet
368 3440 m 1,0,1
 1072 2608 1072 2608 1072 1472 c 0,2,3
 1072 288 1072 288 368 -512 c 1,4,-1
 160 -384 l 1,5,6
 752 400 752 400 752 1472 c 0,7,8
 752 2496 752 2496 160 3312 c 1,9,-1
 368 3440 l 1,0,1
EndSplineSet
EndChar

StartChar: asterisk
Encoding: 42 42 13
Width: 2048
GlyphClass: 2
Flags: W
LayerCount: 2
Fore
SplineSet
1904 1024 m 1,0,-1
 1680 688 l 1,1,-1
 1152 1296 l 1,2,-1
 1200 0 l 1,3,-1
 848 0 l 1,4,-1
 896 1296 l 1,5,-1
 384 688 l 1,6,-1
 160 1024 l 1,7,-1
 784 1552 l 1,8,-1
 160 2096 l 1,9,-1
 384 2416 l 1,10,-1
 896 1840 l 1,11,-1
 848 3104 l 1,12,-1
 1200 3104 l 1,13,-1
 1152 1840 l 1,14,-1
 1680 2416 l 1,15,-1
 1888 2096 l 1,16,-1
 1280 1552 l 1,17,-1
 1904 1024 l 1,0,-1
EndSplineSet
EndChar

StartChar: plus
Encoding: 43 43 14
Width: 2048
GlyphClass: 2
Flags: W
LayerCount: 2
Fore
SplineSet
1920 1360 m 1,0,-1
 1168 1360 l 1,1,-1
 1168 0 l 1,2,-1
 880 0 l 1,3,-1
 880 1360 l 1,4,-1
 112 1360 l 1,5,-1
 112 1632 l 1,6,-1
 880 1632 l 1,7,-1
 880 2944 l 1,8,-1
 1168 2944 l 1,9,-1
 1168 1632 l 1,10,-1
 1920 1632 l 1,11,-1
 1920 1360 l 1,0,-1
EndSplineSet
EndChar

StartChar: comma
Encoding: 44 44 15
Width: 832
GlyphClass: 2
Flags: W
LayerCount: 2
Fore
SplineSet
672 800 m 1,0,-1
 672 224 l 2,1,2
 672 -560 672 -560 176 -576 c 1,3,-1
 176 -288 l 1,4,5
 416 -288 416 -288 416 224 c 1,6,-1
 176 224 l 1,7,-1
 176 800 l 1,8,-1
 672 800 l 1,0,-1
EndSplineSet
EndChar

StartChar: hyphen
Encoding: 45 45 16
Width: 2048
GlyphClass: 2
Flags: W
LayerCount: 2
Fore
SplineSet
1728 1088 m 1,0,-1
 304 1088 l 1,1,-1
 304 1312 l 1,2,-1
 1728 1312 l 1,3,-1
 1728 1088 l 1,0,-1
EndSplineSet
EndChar

StartChar: period
Encoding: 46 46 17
Width: 832
GlyphClass: 2
Flags: W
LayerCount: 2
Fore
SplineSet
640 0 m 1,0,-1
 208 0 l 1,1,-1
 208 800 l 1,2,-1
 640 800 l 1,3,-1
 640 0 l 1,0,-1
EndSplineSet
EndChar

StartChar: slash
Encoding: 47 47 18
Width: 2048
GlyphClass: 2
Flags: W
LayerCount: 2
Fore
SplineSet
1824 3232 m 1,0,-1
 496 -384 l 1,1,-1
 224 -272 l 1,2,-1
 1536 3328 l 1,3,-1
 1824 3232 l 1,0,-1
EndSplineSet
EndChar

StartChar: zero
Encoding: 48 48 19
Width: 2048
GlyphClass: 2
Flags: W
LayerCount: 2
Fore
SplineSet
1024 288 m 256,0,1
 1248 288 1248 288 1400 624 c 128,-1,2
 1552 960 1552 960 1536 1568 c 1,3,4
 1536 2144 1536 2144 1392 2488 c 128,-1,5
 1248 2832 1248 2832 1024 2832 c 256,6,7
 800 2832 800 2832 656 2488 c 128,-1,8
 512 2144 512 2144 512 1584 c 0,9,10
 512 944 512 944 656 616 c 128,-1,11
 800 288 800 288 1024 288 c 256,0,1
928 0 m 2,12,13
 656 0 656 0 440 384 c 128,-1,14
 224 768 224 768 224 1568 c 0,15,16
 224 2384 224 2384 448 2744 c 128,-1,17
 672 3104 672 3104 928 3104 c 2,18,-1
 1120 3104 l 2,19,20
 1376 3104 1376 3104 1600 2744 c 128,-1,21
 1824 2384 1824 2384 1824 1568 c 0,22,23
 1824 784 1824 784 1608 392 c 128,-1,24
 1392 0 1392 0 1120 0 c 2,25,-1
 928 0 l 2,12,13
864 1568 m 256,26,27
 864 1776 864 1776 904 1880 c 128,-1,28
 944 1984 944 1984 1024 1984 c 256,29,30
 1104 1984 1104 1984 1144 1880 c 128,-1,31
 1184 1776 1184 1776 1184 1568 c 256,32,33
 1184 1360 1184 1360 1144 1256 c 128,-1,34
 1104 1152 1104 1152 1024 1152 c 256,35,36
 944 1152 944 1152 904 1256 c 128,-1,37
 864 1360 864 1360 864 1568 c 256,26,27
EndSplineSet
EndChar

StartChar: one
Encoding: 49 49 20
Width: 2048
GlyphClass: 2
Flags: W
LayerCount: 2
Fore
SplineSet
1168 3104 m 1,0,-1
 1168 256 l 1,1,-1
 1648 256 l 1,2,-1
 1648 0 l 1,3,-1
 400 0 l 1,4,-1
 400 256 l 1,5,-1
 880 256 l 1,6,-1
 880 2416 l 1,7,-1
 400 2416 l 1,8,-1
 400 2672 l 1,9,-1
 560 2672 l 2,10,11
 816 2672 816 2672 928 3104 c 1,12,-1
 1168 3104 l 1,0,-1
EndSplineSet
EndChar

StartChar: two
Encoding: 50 50 21
Width: 2048
GlyphClass: 2
Flags: W
LayerCount: 2
Fore
SplineSet
1760 0 m 1,0,-1
 288 0 l 1,1,-1
 288 272 l 1,2,3
 400 752 400 752 816 1144 c 128,-1,4
 1232 1536 1232 1536 1352 1800 c 128,-1,5
 1472 2064 1472 2064 1472 2352 c 0,6,7
 1472 2816 1472 2816 1008 2816 c 0,8,9
 784 2816 784 2816 680 2656 c 128,-1,10
 576 2496 576 2496 576 2288 c 1,11,-1
 288 2288 l 1,12,13
 288 2640 288 2640 464 2872 c 128,-1,14
 640 3104 640 3104 896 3104 c 2,15,-1
 1120 3104 l 2,16,17
 1392 3104 1392 3104 1576 2896 c 128,-1,18
 1760 2688 1760 2688 1760 2352 c 0,19,20
 1760 1936 1760 1936 1600 1632 c 128,-1,21
 1440 1328 1440 1328 1048 952 c 128,-1,22
 656 576 656 576 624 272 c 1,23,-1
 1760 272 l 1,24,-1
 1760 0 l 1,0,-1
EndSplineSet
EndChar

StartChar: three
Encoding: 51 51 22
Width: 2048
GlyphClass: 2
Flags: W
LayerCount: 2
Fore
SplineSet
1072 1952 m 1,0,1
 1248 1920 1248 1920 1400 1808 c 128,-1,2
 1552 1696 1552 1696 1656 1496 c 128,-1,3
 1760 1296 1760 1296 1760 992 c 0,4,5
 1760 512 1760 512 1536 256 c 128,-1,6
 1312 0 1312 0 880 0 c 0,7,8
 704 0 704 0 544 48 c 128,-1,9
 384 96 384 96 288 160 c 1,10,-1
 288 464 l 1,11,12
 448 368 448 368 600 320 c 128,-1,13
 752 272 752 272 880 272 c 0,14,15
 1200 272 1200 272 1336 456 c 128,-1,16
 1472 640 1472 640 1472 992 c 0,17,18
 1472 1312 1472 1312 1304 1504 c 128,-1,19
 1136 1696 1136 1696 880 1696 c 0,20,21
 784 1696 784 1696 704 1664 c 1,22,-1
 704 1920 l 1,23,-1
 1408 2848 l 1,24,-1
 288 2848 l 1,25,-1
 288 3104 l 1,26,-1
 1760 3104 l 1,27,-1
 1760 2848 l 1,28,-1
 1072 1952 l 1,0,1
EndSplineSet
EndChar

StartChar: four
Encoding: 52 52 23
Width: 2048
GlyphClass: 2
Flags: W
LayerCount: 2
Fore
SplineSet
1216 944 m 1,0,-1
 1216 2512 l 1,1,-1
 464 944 l 1,2,-1
 1216 944 l 1,0,-1
1904 688 m 1,3,-1
 1488 688 l 1,4,-1
 1488 0 l 1,5,-1
 1216 0 l 1,6,-1
 1216 688 l 1,7,-1
 160 688 l 1,8,-1
 160 928 l 1,9,-1
 1216 3104 l 1,10,-1
 1488 3104 l 1,11,-1
 1488 944 l 1,12,-1
 1904 944 l 1,13,-1
 1904 688 l 1,3,-1
EndSplineSet
EndChar

StartChar: five
Encoding: 53 53 24
Width: 2048
GlyphClass: 2
Flags: W
LayerCount: 2
Fore
SplineSet
576 2080 m 1,0,1
 688 2096 688 2096 768 2096 c 0,2,3
 1232 2096 1232 2096 1496 1832 c 128,-1,4
 1760 1568 1760 1568 1760 1056 c 0,5,6
 1760 608 1760 608 1520 304 c 128,-1,7
 1280 0 1280 0 800 0 c 0,8,9
 496 0 496 0 288 80 c 1,10,-1
 288 368 l 1,11,12
 544 272 544 272 800 272 c 0,13,14
 1120 272 1120 272 1288 504 c 128,-1,15
 1456 736 1456 736 1456 1056 c 0,16,17
 1456 1456 1456 1456 1256 1648 c 128,-1,18
 1056 1840 1056 1840 768 1840 c 0,19,20
 528 1840 528 1840 288 1760 c 1,21,-1
 288 3104 l 1,22,-1
 1760 3104 l 1,23,-1
 1760 2848 l 1,24,-1
 576 2848 l 1,25,-1
 576 2080 l 1,0,1
EndSplineSet
EndChar

StartChar: six
Encoding: 54 54 25
Width: 2048
GlyphClass: 2
Flags: W
LayerCount: 2
Fore
SplineSet
720 1920 m 1,0,1
 848 2016 848 2016 992 2016 c 2,2,-1
 1104 2016 l 2,3,4
 1376 2016 1376 2016 1568 1752 c 128,-1,5
 1760 1488 1760 1488 1760 992 c 0,6,7
 1760 528 1760 528 1568 264 c 128,-1,8
 1376 0 1376 0 1104 0 c 2,9,-1
 960 0 l 2,10,11
 688 0 688 0 488 272 c 128,-1,12
 288 544 288 544 288 992 c 0,13,14
 288 1632 288 1632 496 2128 c 128,-1,15
 704 2624 704 2624 1024 3104 c 1,16,-1
 1376 3104 l 1,17,18
 928 2464 928 2464 720 1920 c 1,0,1
1040 1712 m 256,19,20
 848 1712 848 1712 720 1512 c 128,-1,21
 592 1312 592 1312 592 992 c 256,22,23
 592 672 592 672 704 480 c 128,-1,24
 816 288 816 288 1040 288 c 0,25,26
 1232 288 1232 288 1352 480 c 128,-1,27
 1472 672 1472 672 1472 992 c 256,28,29
 1472 1312 1472 1312 1352 1512 c 128,-1,30
 1232 1712 1232 1712 1040 1712 c 256,19,20
EndSplineSet
EndChar

StartChar: seven
Encoding: 55 55 26
Width: 2048
GlyphClass: 2
Flags: W
LayerCount: 2
Fore
SplineSet
1760 2848 m 1,0,1
 1232 1376 1232 1376 928 0 c 1,2,-1
 624 0 l 1,3,4
 928 1424 928 1424 1456 2848 c 1,5,-1
 288 2848 l 1,6,-1
 288 3104 l 1,7,-1
 1760 3104 l 1,8,-1
 1760 2848 l 1,0,1
EndSplineSet
EndChar

StartChar: eight
Encoding: 56 56 27
Width: 2048
GlyphClass: 2
Flags: W
LayerCount: 2
Fore
SplineSet
1360 1568 m 1,0,1
 1760 1248 1760 1248 1760 816 c 0,2,3
 1760 464 1760 464 1560 232 c 128,-1,4
 1360 0 1360 0 1120 0 c 2,5,-1
 928 0 l 2,6,7
 704 0 704 0 496 216 c 128,-1,8
 288 432 288 432 288 800 c 0,9,10
 288 1264 288 1264 688 1568 c 1,11,12
 320 1856 320 1856 320 2320 c 0,13,14
 320 2672 320 2672 504 2888 c 128,-1,15
 688 3104 688 3104 944 3104 c 2,16,-1
 1120 3104 l 2,17,18
 1360 3104 1360 3104 1536 2888 c 128,-1,19
 1712 2672 1712 2672 1712 2320 c 0,20,21
 1712 1840 1712 1840 1360 1568 c 1,0,1
1024 1696 m 1,22,23
 1408 1904 1408 1904 1408 2320 c 0,24,25
 1408 2576 1408 2576 1304 2704 c 128,-1,26
 1200 2832 1200 2832 1024 2832 c 256,27,28
 848 2832 848 2832 736 2696 c 128,-1,29
 624 2560 624 2560 624 2320 c 1,30,31
 640 1888 640 1888 1024 1696 c 1,22,23
1024 1440 m 1,32,33
 608 1200 608 1200 592 800 c 1,34,35
 608 592 608 592 720 448 c 128,-1,36
 832 304 832 304 1024 304 c 0,37,38
 1232 304 1232 304 1344 440 c 128,-1,39
 1456 576 1456 576 1456 816 c 1,40,41
 1440 1200 1440 1200 1024 1440 c 1,32,33
EndSplineSet
EndChar

StartChar: nine
Encoding: 57 57 28
Width: 2048
GlyphClass: 2
Flags: W
LayerCount: 2
Fore
SplineSet
1344 1184 m 1,0,1
 1200 1088 1200 1088 1072 1088 c 2,2,-1
 944 1088 l 2,3,4
 672 1088 672 1088 480 1352 c 128,-1,5
 288 1616 288 1616 288 2112 c 0,6,7
 288 2592 288 2592 480 2848 c 128,-1,8
 672 3104 672 3104 944 3104 c 2,9,-1
 1088 3104 l 2,10,11
 1376 3104 1376 3104 1568 2832 c 128,-1,12
 1760 2560 1760 2560 1760 2112 c 0,13,14
 1760 1472 1760 1472 1560 976 c 128,-1,15
 1360 480 1360 480 1024 0 c 1,16,-1
 672 0 l 1,17,18
 1136 640 1136 640 1344 1184 c 1,0,1
1008 1392 m 256,19,20
 1200 1392 1200 1392 1328 1592 c 128,-1,21
 1456 1792 1456 1792 1456 2112 c 256,22,23
 1456 2432 1456 2432 1344 2624 c 128,-1,24
 1232 2816 1232 2816 1008 2816 c 0,25,26
 816 2816 816 2816 696 2624 c 128,-1,27
 576 2432 576 2432 576 2112 c 256,28,29
 576 1792 576 1792 696 1592 c 128,-1,30
 816 1392 816 1392 1008 1392 c 256,19,20
EndSplineSet
EndChar

StartChar: colon
Encoding: 58 58 29
Width: 832
GlyphClass: 2
Flags: W
LayerCount: 2
Fore
SplineSet
640 1808 m 1,0,-1
 192 1808 l 1,1,-1
 192 2480 l 1,2,-1
 640 2480 l 1,3,-1
 640 1808 l 1,0,-1
640 352 m 1,4,-1
 192 352 l 1,5,-1
 192 1040 l 1,6,-1
 640 1040 l 1,7,-1
 640 352 l 1,4,-1
EndSplineSet
EndChar

StartChar: semicolon
Encoding: 59 59 30
Width: 832
GlyphClass: 2
Flags: W
LayerCount: 2
Fore
SplineSet
640 832 m 1,0,-1
 640 176 l 2,1,2
 640 -560 640 -560 192 -576 c 1,3,-1
 192 -288 l 1,4,5
 416 -288 416 -288 416 176 c 1,6,-1
 192 176 l 1,7,-1
 192 832 l 1,8,-1
 640 832 l 1,0,-1
640 1808 m 1,9,-1
 192 1808 l 1,10,-1
 192 2480 l 1,11,-1
 640 2480 l 1,12,-1
 640 1808 l 1,9,-1
EndSplineSet
EndChar

StartChar: less
Encoding: 60 60 31
Width: 2048
GlyphClass: 2
Flags: W
LayerCount: 2
Fore
SplineSet
1856 576 m 1,0,-1
 1648 320 l 1,1,-1
 192 1376 l 1,2,-1
 192 1616 l 1,3,-1
 1648 2640 l 1,4,-1
 1856 2400 l 1,5,-1
 544 1504 l 1,6,-1
 1856 576 l 1,0,-1
EndSplineSet
EndChar

StartChar: equal
Encoding: 61 61 32
Width: 2048
GlyphClass: 2
Flags: W
LayerCount: 2
Fore
SplineSet
1904 1536 m 1,0,-1
 144 1536 l 1,1,-1
 144 1760 l 1,2,-1
 1904 1760 l 1,3,-1
 1904 1536 l 1,0,-1
1904 768 m 1,4,-1
 144 768 l 1,5,-1
 144 992 l 1,6,-1
 1904 992 l 1,7,-1
 1904 768 l 1,4,-1
EndSplineSet
EndChar

StartChar: greater
Encoding: 62 62 33
Width: 2048
GlyphClass: 2
Flags: W
LayerCount: 2
Fore
SplineSet
176 2384 m 1,0,-1
 384 2640 l 1,1,-1
 1840 1584 l 1,2,-1
 1840 1344 l 1,3,-1
 384 320 l 1,4,-1
 176 560 l 1,5,-1
 1488 1456 l 1,6,-1
 176 2384 l 1,0,-1
EndSplineSet
EndChar

StartChar: question
Encoding: 63 63 34
Width: 1856
GlyphClass: 2
Flags: W
LayerCount: 2
Fore
SplineSet
208 2928 m 1,0,1
 416 3040 416 3040 560 3072 c 128,-1,2
 704 3104 704 3104 928 3104 c 0,3,4
 1648 3104 1648 3104 1648 2336 c 0,5,6
 1648 1840 1648 1840 1280 1536 c 1,7,8
 1024 1264 1024 1264 1040 1072 c 1,9,-1
 1040 976 l 1,10,-1
 752 976 l 1,11,-1
 752 1072 l 1,12,13
 736 1392 736 1392 1024 1696 c 1,14,15
 1328 1984 1328 1984 1328 2336 c 0,16,17
 1328 2816 1328 2816 928 2816 c 0,18,19
 736 2816 736 2816 592 2784 c 128,-1,20
 448 2752 448 2752 208 2608 c 1,21,-1
 208 2928 l 1,0,1
1088 0 m 1,22,-1
 720 0 l 1,23,-1
 720 528 l 1,24,-1
 1088 528 l 1,25,-1
 1088 0 l 1,22,-1
EndSplineSet
EndChar

StartChar: at
Encoding: 64 64 35
Width: 2736
GlyphClass: 2
Flags: W
LayerCount: 2
Fore
SplineSet
2336 96 m 1,0,1
 1920 0 1920 0 1408 0 c 0,2,3
 768 0 768 0 432 360 c 128,-1,4
 96 720 96 720 96 1488 c 0,5,6
 96 2224 96 2224 440 2664 c 128,-1,7
 784 3104 784 3104 1424 3104 c 0,8,9
 1936 3104 1936 3104 2280 2752 c 128,-1,10
 2624 2400 2624 2400 2624 1728 c 0,11,12
 2624 896 2624 896 2256 576 c 1,13,-1
 1616 576 l 1,14,-1
 1616 720 l 1,15,16
 1456 592 1456 592 1280 592 c 0,17,18
 992 592 992 592 832 840 c 128,-1,19
 672 1088 672 1088 672 1552 c 0,20,21
 672 2000 672 2000 832 2280 c 128,-1,22
 992 2560 992 2560 1280 2560 c 0,23,24
 1472 2560 1472 2560 1616 2416 c 1,25,-1
 1616 2560 l 1,26,-1
 1904 2560 l 1,27,-1
 1904 832 l 1,28,-1
 2144 832 l 1,29,30
 2336 1184 2336 1184 2336 1728 c 0,31,32
 2336 2288 2336 2288 2080 2560 c 128,-1,33
 1824 2832 1824 2832 1424 2832 c 0,34,35
 912 2832 912 2832 648 2464 c 128,-1,36
 384 2096 384 2096 384 1488 c 0,37,38
 384 848 384 848 624 568 c 128,-1,39
 864 288 864 288 1408 272 c 1,40,41
 1888 272 1888 272 2336 384 c 1,42,-1
 2336 96 l 1,0,1
1280 2272 m 0,43,44
 1136 2272 1136 2272 1064 2096 c 128,-1,45
 992 1920 992 1920 976 1552 c 1,46,47
 976 1200 976 1200 1048 1032 c 128,-1,48
 1120 864 1120 864 1280 864 c 0,49,50
 1456 864 1456 864 1600 1024 c 1,51,-1
 1600 2128 l 1,52,53
 1456 2272 1456 2272 1280 2272 c 0,43,44
EndSplineSet
EndChar

StartChar: A
Encoding: 65 65 36
Width: 2592
GlyphClass: 2
Flags: W
LayerCount: 2
Fore
SplineSet
160 0 m 1,0,-1
 1120 3104 l 1,1,-1
 1488 3104 l 1,2,-1
 2432 0 l 1,3,-1
 2096 0 l 1,4,-1
 1788 1072 l 1,5,-1
 794 1072 l 1,6,-1
 480 0 l 1,7,-1
 160 0 l 1,0,-1
1296 2784 m 1,8,-1
 874 1344 l 1,9,-1
 1710 1344 l 1,10,-1
 1296 2784 l 1,8,-1
EndSplineSet
EndChar

StartChar: B
Encoding: 66 66 37
Width: 2608
GlyphClass: 2
Flags: W
LayerCount: 2
Fore
SplineSet
608 288 m 1,0,-1
 1632 288 l 2,1,2
 1840 288 1840 288 1992 416 c 128,-1,3
 2144 544 2144 544 2144 816 c 0,4,5
 2144 1184 2144 1184 1944 1360 c 128,-1,6
 1744 1536 1744 1536 1520 1536 c 2,7,-1
 608 1536 l 1,8,-1
 608 288 l 1,0,-1
1920 1696 m 1,9,10
 2432 1392 2432 1392 2432 816 c 0,11,12
 2432 416 2432 416 2208 208 c 128,-1,13
 1984 0 1984 0 1632 0 c 2,14,-1
 320 0 l 1,15,-1
 320 3104 l 1,16,-1
 1520 3104 l 2,17,18
 1824 3104 1824 3104 2056 2904 c 128,-1,19
 2288 2704 2288 2704 2288 2352 c 0,20,21
 2288 1920 2288 1920 1920 1696 c 1,9,10
608 1808 m 1,22,-1
 1520 1808 l 2,23,24
 1712 1808 1712 1808 1848 1944 c 128,-1,25
 1984 2080 1984 2080 1984 2352 c 0,26,27
 1984 2592 1984 2592 1848 2712 c 128,-1,28
 1712 2832 1712 2832 1520 2832 c 2,29,-1
 608 2832 l 1,30,-1
 608 1808 l 1,22,-1
EndSplineSet
EndChar

StartChar: C
Encoding: 67 67 38
Width: 2720
GlyphClass: 2
Flags: W
LayerCount: 2
Fore
SplineSet
2496 1152 m 1,0,1
 2496 672 2496 672 2200 336 c 128,-1,2
 1904 0 1904 0 1392 0 c 0,3,4
 832 0 832 0 536 424 c 128,-1,5
 240 848 240 848 240 1600 c 0,6,7
 240 2288 240 2288 544 2696 c 128,-1,8
 848 3104 848 3104 1296 3104 c 2,9,-1
 1504 3104 l 2,10,11
 1856 3104 1856 3104 2176 2832 c 128,-1,12
 2496 2560 2496 2560 2496 2080 c 1,13,-1
 2208 2080 l 1,14,15
 2160 2480 2160 2480 1928 2656 c 128,-1,16
 1696 2832 1696 2832 1392 2832 c 0,17,18
 976 2832 976 2832 752 2488 c 128,-1,19
 528 2144 528 2144 528 1600 c 0,20,21
 528 992 528 992 760 640 c 128,-1,22
 992 288 992 288 1392 288 c 0,23,24
 1712 288 1712 288 1936 504 c 128,-1,25
 2160 720 2160 720 2208 1152 c 1,26,-1
 2496 1152 l 1,0,1
EndSplineSet
EndChar

StartChar: D
Encoding: 68 68 39
Width: 2656
GlyphClass: 2
Flags: W
LayerCount: 2
Fore
SplineSet
320 3104 m 1,0,-1
 1024 3104 l 2,1,2
 1680 3104 1680 3104 2040 2688 c 128,-1,3
 2400 2272 2400 2272 2416 1568 c 1,4,5
 2416 848 2416 848 2048 424 c 128,-1,6
 1680 0 1680 0 1024 0 c 2,7,-1
 320 0 l 1,8,-1
 320 3104 l 1,0,-1
624 288 m 1,9,-1
 1024 288 l 2,10,11
 1552 288 1552 288 1840 640 c 128,-1,12
 2128 992 2128 992 2128 1568 c 0,13,14
 2128 2160 2128 2160 1840 2496 c 128,-1,15
 1552 2832 1552 2832 1024 2832 c 2,16,-1
 624 2832 l 1,17,-1
 624 288 l 1,9,-1
EndSplineSet
EndChar

StartChar: E
Encoding: 69 69 40
Width: 2320
GlyphClass: 2
Flags: W
LayerCount: 2
Fore
SplineSet
2000 0 m 1,0,-1
 320 0 l 1,1,-1
 320 3104 l 1,2,-1
 2000 3104 l 1,3,-1
 2000 2816 l 1,4,-1
 608 2816 l 1,5,-1
 608 1808 l 1,6,-1
 1840 1808 l 1,7,-1
 1840 1536 l 1,8,-1
 608 1536 l 1,9,-1
 608 304 l 1,10,-1
 2000 304 l 1,11,-1
 2000 0 l 1,0,-1
EndSplineSet
EndChar

StartChar: F
Encoding: 70 70 41
Width: 2256
GlyphClass: 2
Flags: W
LayerCount: 2
Fore
SplineSet
2000 2816 m 1,0,-1
 608 2816 l 1,1,-1
 608 1808 l 1,2,-1
 1696 1808 l 1,3,-1
 1696 1536 l 1,4,-1
 608 1536 l 1,5,-1
 608 0 l 1,6,-1
 320 0 l 1,7,-1
 320 3104 l 1,8,-1
 2000 3104 l 1,9,-1
 2000 2816 l 1,0,-1
EndSplineSet
EndChar

StartChar: G
Encoding: 71 71 42
Width: 2784
GlyphClass: 2
Flags: W
LayerCount: 2
Fore
SplineSet
2464 0 m 1,0,-1
 2176 0 l 1,1,-1
 2176 192 l 1,2,3
 1824 0 1824 0 1424 0 c 0,4,5
 896 0 896 0 568 376 c 128,-1,6
 240 752 240 752 240 1520 c 0,7,8
 240 2272 240 2272 576 2688 c 128,-1,9
 912 3104 912 3104 1328 3104 c 2,10,-1
 1520 3104 l 2,11,12
 1872 3104 1872 3104 2168 2864 c 128,-1,13
 2464 2624 2464 2624 2464 2256 c 1,14,-1
 2160 2256 l 1,15,16
 2096 2544 2096 2544 1896 2688 c 128,-1,17
 1696 2832 1696 2832 1408 2832 c 0,18,19
 1024 2832 1024 2832 776 2448 c 128,-1,20
 528 2064 528 2064 544 1520 c 1,21,22
 544 880 544 880 776 600 c 128,-1,23
 1008 320 1008 320 1424 304 c 1,24,25
 1808 304 1808 304 2176 512 c 1,26,-1
 2176 1392 l 1,27,-1
 1568 1392 l 1,28,-1
 1568 1664 l 1,29,-1
 2464 1664 l 1,30,-1
 2464 0 l 1,0,-1
EndSplineSet
EndChar

StartChar: H
Encoding: 72 72 43
Width: 2624
GlyphClass: 2
Flags: W
LayerCount: 2
Fore
SplineSet
2304 0 m 1,0,-1
 2000 0 l 1,1,-1
 2000 1536 l 1,2,-1
 608 1536 l 1,3,-1
 608 0 l 1,4,-1
 320 0 l 1,5,-1
 320 3104 l 1,6,-1
 608 3104 l 1,7,-1
 608 1808 l 1,8,-1
 2000 1808 l 1,9,-1
 2000 3104 l 1,10,-1
 2304 3104 l 1,11,-1
 2304 0 l 1,0,-1
EndSplineSet
EndChar

StartChar: I
Encoding: 73 73 44
Width: 1008
GlyphClass: 2
Flags: W
LayerCount: 2
Fore
SplineSet
912 0 m 1,0,-1
 80 0 l 1,1,-1
 80 272 l 1,2,-1
 352 272 l 1,3,-1
 352 2848 l 1,4,-1
 80 2848 l 1,5,-1
 80 3104 l 1,6,-1
 912 3104 l 1,7,-1
 912 2848 l 1,8,-1
 640 2848 l 1,9,-1
 640 272 l 1,10,-1
 912 272 l 1,11,-1
 912 0 l 1,0,-1
EndSplineSet
EndChar

StartChar: J
Encoding: 74 74 45
Width: 2224
GlyphClass: 2
Flags: W
LayerCount: 2
Fore
SplineSet
1904 3104 m 1,0,-1
 1904 1024 l 2,1,2
 1904 0 1904 0 800 0 c 0,3,4
 512 0 512 0 240 96 c 1,5,-1
 240 416 l 1,6,7
 528 304 528 304 800 304 c 0,8,9
 1584 304 1584 304 1600 1024 c 1,10,-1
 1600 3104 l 1,11,-1
 1904 3104 l 1,0,-1
EndSplineSet
EndChar

StartChar: K
Encoding: 75 75 46
Width: 2448
GlyphClass: 2
Flags: W
LayerCount: 2
Fore
SplineSet
608 0 m 1,0,-1
 320 0 l 1,1,-1
 320 3104 l 1,2,-1
 608 3104 l 1,3,-1
 608 1801 l 1,4,-1
 1872 3104 l 1,5,-1
 2272 3104 l 1,6,-1
 1129 1942 l 1,7,-1
 2272 0 l 1,8,-1
 1888 0 l 1,9,-1
 928 1737 l 1,10,-1
 608 1412 l 1,11,-1
 608 0 l 1,0,-1
EndSplineSet
EndChar

StartChar: L
Encoding: 76 76 47
Width: 2208
GlyphClass: 2
Flags: W
LayerCount: 2
Fore
SplineSet
1888 0 m 1,0,-1
 320 0 l 1,1,-1
 320 3104 l 1,2,-1
 608 3104 l 1,3,-1
 608 272 l 1,4,-1
 1888 272 l 1,5,-1
 1888 0 l 1,0,-1
EndSplineSet
EndChar

StartChar: M
Encoding: 77 77 48
Width: 3040
GlyphClass: 2
Flags: W
LayerCount: 2
Fore
SplineSet
2704 0 m 1,0,-1
 2416 0 l 1,1,-1
 2416 2720 l 1,2,-1
 1664 848 l 1,3,-1
 1312 848 l 1,4,-1
 624 2720 l 1,5,-1
 624 0 l 1,6,-1
 320 0 l 1,7,-1
 320 3104 l 1,8,-1
 800 3104 l 1,9,-1
 1488 1200 l 1,10,-1
 2240 3104 l 1,11,-1
 2704 3104 l 1,12,-1
 2704 0 l 1,0,-1
EndSplineSet
EndChar

StartChar: N
Encoding: 78 78 49
Width: 2624
GlyphClass: 2
Flags: W
LayerCount: 2
Fore
SplineSet
2288 0 m 1,0,-1
 1840 0 l 1,1,-1
 608 2688 l 1,2,-1
 608 0 l 1,3,-1
 320 0 l 1,4,-1
 320 3104 l 1,5,-1
 720 3104 l 1,6,-1
 2000 368 l 1,7,-1
 2000 3104 l 1,8,-1
 2288 3104 l 1,9,-1
 2288 0 l 1,0,-1
EndSplineSet
EndChar

StartChar: O
Encoding: 79 79 50
Width: 2896
GlyphClass: 2
Flags: W
LayerCount: 2
Fore
SplineSet
1568 3104 m 2,0,1
 1968 3104 1968 3104 2304 2688 c 128,-1,2
 2640 2272 2640 2272 2640 1536 c 256,3,4
 2640 800 2640 800 2312 400 c 128,-1,5
 1984 0 1984 0 1440 0 c 0,6,7
 880 0 880 0 560 432 c 128,-1,8
 240 864 240 864 240 1536 c 0,9,10
 240 2256 240 2256 576 2680 c 128,-1,11
 912 3104 912 3104 1344 3104 c 2,12,-1
 1568 3104 l 2,0,1
1456 2832 m 256,13,14
 1072 2832 1072 2832 808 2496 c 128,-1,15
 544 2160 544 2160 544 1536 c 256,16,17
 544 912 544 912 792 608 c 128,-1,18
 1040 304 1040 304 1456 288 c 1,19,20
 1840 288 1840 288 2088 584 c 128,-1,21
 2336 880 2336 880 2336 1536 c 0,22,23
 2336 2160 2336 2160 2088 2496 c 128,-1,24
 1840 2832 1840 2832 1456 2832 c 256,13,14
EndSplineSet
EndChar

StartChar: P
Encoding: 80 80 51
Width: 2528
GlyphClass: 2
Flags: W
LayerCount: 2
Fore
SplineSet
320 3104 m 1,0,-1
 1264 3104 l 2,1,2
 1760 3104 1760 3104 2024 2912 c 128,-1,3
 2288 2720 2288 2720 2288 2336 c 256,4,5
 2288 1952 2288 1952 2024 1744 c 128,-1,6
 1760 1536 1760 1536 1264 1536 c 2,7,-1
 624 1536 l 1,8,-1
 624 0 l 1,9,-1
 320 0 l 1,10,-1
 320 3104 l 1,0,-1
624 1808 m 1,11,-1
 1264 1808 l 2,12,13
 1648 1808 1648 1808 1824 1944 c 128,-1,14
 2000 2080 2000 2080 2000 2336 c 256,15,16
 2000 2592 2000 2592 1824 2712 c 128,-1,17
 1648 2832 1648 2832 1264 2832 c 2,18,-1
 624 2832 l 1,19,-1
 624 1808 l 1,11,-1
EndSplineSet
EndChar

StartChar: Q
Encoding: 81 81 52
Width: 2896
GlyphClass: 2
Flags: W
LayerCount: 2
Fore
SplineSet
1696 1024 m 1,0,1
 1696 624 1696 624 1720 384 c 0,2,3
 1723 357 1723 357 1727 330 c 1,4,5
 1934 400 1934 400 2088 584 c 0,6,7
 2336 880 2336 880 2352 1536 c 1,8,9
 2352 2160 2352 2160 2096 2496 c 128,-1,10
 1840 2832 1840 2832 1456 2832 c 256,11,12
 1072 2832 1072 2832 808 2496 c 128,-1,13
 544 2160 544 2160 544 1536 c 1,14,15
 528 912 528 912 784 608 c 0,16,17
 1039 305 1039 305 1452 288 c 1,18,19
 1392 629 1392 629 1392 1024 c 1,20,-1
 1696 1024 l 1,0,1
1568 3104 m 2,21,22
 1968 3104 1968 3104 2304 2688 c 128,-1,23
 2640 2272 2640 2272 2640 1536 c 256,24,25
 2640 800 2640 800 2312 400 c 0,26,27
 2106 149 2106 149 1815 55 c 1,28,29
 1846 -9 1846 -9 1888 -72 c 0,30,31
 2032 -288 2032 -288 2336 -288 c 0,32,33
 2528 -288 2528 -288 2608 -272 c 128,-1,34
 2688 -256 2688 -256 2896 -192 c 1,35,-1
 2896 -496 l 1,36,37
 2720 -560 2720 -560 2616 -568 c 128,-1,38
 2512 -576 2512 -576 2336 -576 c 0,39,40
 1968 -576 1968 -576 1752 -360 c 0,41,42
 1606 -214 1606 -214 1525 3 c 1,43,44
 1483 0 1483 0 1440 0 c 0,45,46
 880 0 880 0 560 432 c 128,-1,47
 240 864 240 864 240 1536 c 0,48,49
 240 2256 240 2256 576 2680 c 128,-1,50
 912 3104 912 3104 1344 3104 c 2,51,-1
 1568 3104 l 2,21,22
EndSplineSet
EndChar

StartChar: R
Encoding: 82 82 53
Width: 2560
GlyphClass: 2
Flags: W
LayerCount: 2
Fore
SplineSet
2368 0 m 1,0,-1
 2000 0 l 1,1,-1
 1163 1536 l 1,2,-1
 624 1536 l 1,3,-1
 624 0 l 1,4,-1
 320 0 l 1,5,-1
 320 3104 l 1,6,-1
 1264 3104 l 2,7,8
 1760 3104 1760 3104 2024 2912 c 128,-1,9
 2288 2720 2288 2720 2288 2336 c 256,10,11
 2288 1952 2288 1952 2024 1744 c 0,12,13
 1818 1582 1818 1582 1471 1546 c 1,14,-1
 2368 0 l 1,0,-1
624 1808 m 1,15,-1
 1264 1808 l 2,16,17
 1648 1808 1648 1808 1824 1944 c 128,-1,18
 2000 2080 2000 2080 2000 2336 c 256,19,20
 2000 2592 2000 2592 1824 2712 c 128,-1,21
 1648 2832 1648 2832 1264 2832 c 2,22,-1
 624 2832 l 1,23,-1
 624 1808 l 1,15,-1
EndSplineSet
EndChar

StartChar: S
Encoding: 83 83 54
Width: 2464
GlyphClass: 2
Flags: W
LayerCount: 2
Fore
SplineSet
1872 2192 m 1,0,1
 1824 2544 1824 2544 1624 2688 c 128,-1,2
 1424 2832 1424 2832 1184 2832 c 0,3,4
 928 2832 928 2832 736 2696 c 128,-1,5
 544 2560 544 2560 544 2272 c 0,6,7
 544 2000 544 2000 768 1880 c 128,-1,8
 992 1760 992 1760 1120 1728 c 1,9,-1
 1360 1648 l 1,10,11
 1504 1616 1504 1616 1736 1504 c 128,-1,12
 1968 1392 1968 1392 2088 1224 c 128,-1,13
 2208 1056 2208 1056 2208 768 c 0,14,15
 2208 368 2208 368 1928 184 c 128,-1,16
 1648 0 1648 0 1232 0 c 0,17,18
 784 0 784 0 520 264 c 128,-1,19
 256 528 256 528 240 880 c 1,20,-1
 544 880 l 1,21,22
 592 640 592 640 768 464 c 128,-1,23
 944 288 944 288 1232 288 c 0,24,25
 1504 288 1504 288 1712 408 c 128,-1,26
 1920 528 1920 528 1920 768 c 0,27,28
 1920 1088 1920 1088 1672 1224 c 128,-1,29
 1424 1360 1424 1360 1296 1392 c 1,30,-1
 1072 1456 l 1,31,32
 896 1520 896 1520 712 1592 c 128,-1,33
 528 1664 528 1664 384 1824 c 128,-1,34
 240 1984 240 1984 240 2272 c 0,35,36
 240 2672 240 2672 520 2888 c 128,-1,37
 800 3104 800 3104 1056 3104 c 2,38,-1
 1296 3104 l 2,39,40
 1648 3104 1648 3104 1912 2848 c 128,-1,41
 2176 2592 2176 2592 2192 2192 c 1,42,-1
 1872 2192 l 1,0,1
EndSplineSet
EndChar

StartChar: T
Encoding: 84 84 55
Width: 2416
GlyphClass: 2
Flags: W
LayerCount: 2
Fore
SplineSet
2240 2832 m 1,0,-1
 1344 2832 l 1,1,-1
 1344 0 l 1,2,-1
 1056 0 l 1,3,-1
 1056 2832 l 1,4,-1
 160 2832 l 1,5,-1
 160 3104 l 1,6,-1
 2240 3104 l 1,7,-1
 2240 2832 l 1,0,-1
EndSplineSet
EndChar

StartChar: U
Encoding: 85 85 56
Width: 2624
GlyphClass: 2
Flags: W
LayerCount: 2
Fore
SplineSet
2304 3104 m 1,0,-1
 2304 976 l 2,1,2
 2304 512 2304 512 2048 256 c 128,-1,3
 1792 0 1792 0 1328 0 c 0,4,5
 816 0 816 0 568 264 c 128,-1,6
 320 528 320 528 320 992 c 2,7,-1
 320 3104 l 1,8,-1
 608 3104 l 1,9,-1
 608 992 l 2,10,11
 608 656 608 656 784 472 c 128,-1,12
 960 288 960 288 1328 288 c 0,13,14
 1680 288 1680 288 1848 472 c 128,-1,15
 2016 656 2016 656 2016 976 c 2,16,-1
 2016 3104 l 1,17,-1
 2304 3104 l 1,0,-1
EndSplineSet
EndChar

StartChar: V
Encoding: 86 86 57
Width: 2592
GlyphClass: 2
Flags: W
LayerCount: 2
Fore
SplineSet
2448 3104 m 1,0,-1
 1520 0 l 1,1,-1
 1088 0 l 1,2,-1
 160 3104 l 1,3,-1
 480 3104 l 1,4,-1
 1296 288 l 1,5,-1
 2128 3104 l 1,6,-1
 2448 3104 l 1,0,-1
EndSplineSet
EndChar

StartChar: W
Encoding: 87 87 58
Width: 3040
GlyphClass: 2
Flags: W
LayerCount: 2
Fore
SplineSet
2880 3104 m 1,0,-1
 2400 0 l 1,1,-1
 1936 0 l 1,2,-1
 1536 2688 l 1,3,-1
 1088 0 l 1,4,-1
 592 0 l 1,5,-1
 160 3104 l 1,6,-1
 496 3104 l 1,7,-1
 848 352 l 1,8,-1
 1312 3104 l 1,9,-1
 1744 3104 l 1,10,-1
 2160 336 l 1,11,-1
 2544 3104 l 1,12,-1
 2880 3104 l 1,0,-1
EndSplineSet
EndChar

StartChar: X
Encoding: 88 88 59
Width: 2464
GlyphClass: 2
Flags: W
LayerCount: 2
Fore
SplineSet
528 0 m 1,0,-1
 160 0 l 1,1,-1
 1052 1559 l 1,2,-1
 176 3104 l 1,3,-1
 528 3104 l 1,4,-1
 1232 1874 l 1,5,-1
 1936 3104 l 1,6,-1
 2288 3104 l 1,7,-1
 1412 1559 l 1,8,-1
 2304 0 l 1,9,-1
 1936 0 l 1,10,-1
 1232 1242 l 1,11,-1
 528 0 l 1,0,-1
EndSplineSet
EndChar

StartChar: Y
Encoding: 89 89 60
Width: 2416
GlyphClass: 2
Flags: W
LayerCount: 2
Fore
SplineSet
2256 3104 m 1,0,-1
 1360 1280 l 1,1,-1
 1360 0 l 1,2,-1
 1056 0 l 1,3,-1
 1056 1280 l 1,4,-1
 160 3104 l 1,5,-1
 528 3104 l 1,6,-1
 1200 1632 l 1,7,-1
 1904 3104 l 1,8,-1
 2256 3104 l 1,0,-1
EndSplineSet
EndChar

StartChar: Z
Encoding: 90 90 61
Width: 2320
GlyphClass: 2
Flags: W
LayerCount: 2
Fore
SplineSet
2000 0 m 1,0,-1
 320 0 l 1,1,-1
 320 288 l 1,2,-1
 1680 2832 l 1,3,-1
 320 2832 l 1,4,-1
 320 3104 l 1,5,-1
 2000 3104 l 1,6,-1
 2000 2832 l 1,7,-1
 640 288 l 1,8,-1
 2000 288 l 1,9,-1
 2000 0 l 1,0,-1
EndSplineSet
EndChar

StartChar: bracketleft
Encoding: 91 91 62
Width: 1376
GlyphClass: 2
Flags: W
LayerCount: 2
Fore
SplineSet
1152 -384 m 1,0,-1
 208 -384 l 1,1,-1
 208 3328 l 1,2,-1
 1184 3328 l 1,3,-1
 1184 3072 l 1,4,-1
 480 3072 l 1,5,-1
 480 -128 l 1,6,-1
 1152 -128 l 1,7,-1
 1152 -384 l 1,0,-1
EndSplineSet
EndChar

StartChar: backslash
Encoding: 92 92 63
Width: 2064
GlyphClass: 2
Flags: W
LayerCount: 2
Fore
SplineSet
1840 -272 m 1,0,-1
 1568 -400 l 1,1,-1
 208 3216 l 1,2,-1
 496 3344 l 1,3,-1
 1840 -272 l 1,0,-1
EndSplineSet
EndChar

StartChar: bracketright
Encoding: 93 93 64
Width: 1376
GlyphClass: 2
Flags: W
LayerCount: 2
Fore
SplineSet
1088 -384 m 1,0,-1
 240 -384 l 1,1,-1
 240 -112 l 1,2,-1
 800 -112 l 1,3,-1
 800 3088 l 1,4,-1
 240 3088 l 1,5,-1
 240 3328 l 1,6,-1
 1088 3328 l 1,7,-1
 1088 -384 l 1,0,-1
EndSplineSet
EndChar

StartChar: asciicircum
Encoding: 94 94 65
Width: 1696
GlyphClass: 2
Flags: W
LayerCount: 2
Fore
SplineSet
1504 2784 m 1,0,-1
 1504 2400 l 1,1,-1
 848 3024 l 1,2,-1
 208 2432 l 1,3,-1
 208 2816 l 1,4,-1
 848 3408 l 1,5,-1
 1504 2784 l 1,0,-1
EndSplineSet
EndChar

StartChar: underscore
Encoding: 95 95 66
Width: 1248
GlyphClass: 2
Flags: W
LayerCount: 2
Fore
SplineSet
1248 -576 m 1,0,-1
 0 -576 l 1,1,-1
 0 -288 l 1,2,-1
 1248 -288 l 1,3,-1
 1248 -576 l 1,0,-1
EndSplineSet
EndChar

StartChar: grave
Encoding: 96 96 67
Width: 1696
GlyphClass: 2
Flags: W
LayerCount: 2
Fore
SplineSet
1168 2528 m 1,0,-1
 864 2528 l 1,1,-1
 464 3200 l 1,2,-1
 864 3200 l 1,3,-1
 1168 2528 l 1,0,-1
EndSplineSet
EndChar

StartChar: a
Encoding: 97 97 68
Width: 1952
GlyphClass: 2
Flags: W
LayerCount: 2
Fore
SplineSet
1648 0 m 1,0,-1
 1344 0 l 1,1,-1
 1344 208 l 1,2,3
 1104 0 1104 0 832 0 c 0,4,5
 240 0 240 0 240 672 c 0,6,7
 240 1440 240 1440 1344 1520 c 1,8,-1
 1344 1712 l 2,9,10
 1344 1904 1344 1904 1232 1992 c 128,-1,11
 1120 2080 1120 2080 944 2080 c 256,12,13
 768 2080 768 2080 672 1976 c 128,-1,14
 576 1872 576 1872 544 1680 c 1,15,-1
 240 1680 l 1,16,17
 256 1952 256 1952 424 2152 c 128,-1,18
 592 2352 592 2352 912 2352 c 2,19,-1
 1088 2352 l 2,20,21
 1280 2352 1280 2352 1464 2208 c 128,-1,22
 1648 2064 1648 2064 1648 1712 c 2,23,-1
 1648 0 l 1,0,-1
1344 1232 m 1,24,25
 544 1152 544 1152 528 672 c 1,26,27
 528 288 528 288 880 288 c 0,28,29
 1072 288 1072 288 1344 528 c 1,30,-1
 1344 1232 l 1,24,25
EndSplineSet
EndChar

StartChar: b
Encoding: 98 98 69
Width: 2032
GlyphClass: 2
Flags: W
LayerCount: 2
Fore
SplineSet
624 2160 m 1,0,1
 848 2352 848 2352 1008 2352 c 2,2,-1
 1200 2352 l 2,3,4
 1408 2352 1408 2352 1592 2136 c 128,-1,5
 1776 1920 1776 1920 1776 1264 c 2,6,-1
 1776 1088 l 2,7,8
 1776 0 1776 0 1072 0 c 0,9,10
 832 0 832 0 624 144 c 1,11,-1
 624 0 l 1,12,-1
 320 0 l 1,13,-1
 320 3248 l 1,14,-1
 624 3248 l 1,15,-1
 624 2160 l 1,0,1
624 1856 m 1,16,-1
 624 464 l 1,17,18
 832 288 832 288 1072 288 c 0,19,20
 1504 288 1504 288 1504 1104 c 2,21,-1
 1504 1264 l 2,22,23
 1504 2064 1504 2064 1104 2064 c 0,24,25
 880 2064 880 2064 624 1856 c 1,16,-1
555 447 m 1,26,27
 540 442 540 442 531.5 428 c 128,-1,28
 523 414 523 414 523 396 c 128,-1,29
 523 378 523 378 531.5 364.5 c 128,-1,30
 540 351 540 351 555 345 c 1,31,-1
 555 357 l 1,32,33
 546 361 546 361 540.5 370 c 128,-1,34
 535 379 535 379 534 391 c 2,35,-1
 534 402 l 2,36,37
 535 414 535 414 540.5 423 c 128,-1,38
 546 432 546 432 555 435 c 1,39,-1
 555 447 l 1,26,27
573 438 m 1,40,41
 559 435 559 435 550 423 c 128,-1,42
 541 411 541 411 541 397 c 2,43,-1
 541 393 l 1,44,-1
 552 393 l 1,45,-1
 552 397 l 2,46,47
 552 407 552 407 558 415.5 c 128,-1,48
 564 424 564 424 573 427 c 1,49,-1
 573 438 l 1,40,41
483 415 m 1,50,-1
 483 411 l 1,51,-1
 492 411 l 2,52,53
 497 411 497 411 502 407 c 0,54,55
 507 402 507 402 507 394 c 1,56,-1
 507 394 l 1,57,58
 507 386 507 386 502 381 c 0,59,60
 500 379 500 379 497 378 c 128,-1,61
 494 377 494 377 492 377 c 2,62,-1
 483 377 l 1,63,-1
 483 373 l 1,64,-1
 492 373 l 2,65,66
 499 373 499 373 505 378 c 0,67,68
 512 384 512 384 512 394 c 1,69,-1
 512 394 l 1,70,-1
 512 394 l 1,71,72
 512 405 512 405 505 411 c 0,73,74
 499 415 499 415 492 415 c 2,75,-1
 483 415 l 1,50,-1
436 413 m 129,-1,77
 436 413 436 413 436 413 c 257,78,79
 436 413 436 413 435.5 412.5 c 128,-1,80
 435 412 435 412 435 407 c 0,81,82
 435 404 435 404 435 403 c 256,83,84
 435 402 435 402 435 400.5 c 128,-1,85
 435 399 435 399 435 399 c 129,-1,86
 435 399 435 399 435 397 c 128,-1,87
 435 395 435 395 435 395 c 129,-1,88
 435 395 435 395 435 395 c 129,-1,89
 435 395 435 395 435 394.5 c 128,-1,90
 435 394 435 394 435 393 c 256,91,92
 435 392 435 392 435 388 c 0,93,94
 435 387 435 387 435 386 c 128,-1,95
 435 385 435 385 435 384.5 c 128,-1,96
 435 384 435 384 435 383.5 c 128,-1,97
 435 383 435 383 435 381.5 c 128,-1,98
 435 380 435 380 435.5 379 c 128,-1,99
 436 378 436 378 436.5 377.5 c 128,-1,100
 437 377 437 377 437 376.5 c 128,-1,101
 437 376 437 376 437.5 375 c 128,-1,102
 438 374 438 374 438.5 373.5 c 128,-1,103
 439 373 439 373 440 372 c 128,-1,104
 441 371 441 371 442 370.5 c 128,-1,105
 443 370 443 370 443 370 c 129,-1,106
 443 370 443 370 443 369.5 c 128,-1,107
 443 369 443 369 443.5 369 c 128,-1,108
 444 369 444 369 444.5 369 c 128,-1,109
 445 369 445 369 445.5 369 c 128,-1,110
 446 369 446 369 446.5 368.5 c 128,-1,111
 447 368 447 368 447 368 c 129,-1,112
 447 368 447 368 448 368 c 128,-1,113
 449 368 449 368 450.5 368 c 128,-1,114
 452 368 452 368 452 367.5 c 129,-1,115
 452 367 452 367 452 367.5 c 129,-1,116
 452 368 452 368 453 367.5 c 128,-1,117
 454 367 454 367 455 367 c 128,-1,118
 456 367 456 367 456.5 367.5 c 128,-1,119
 457 368 457 368 457 367.5 c 128,-1,120
 457 367 457 367 458 367 c 128,-1,121
 459 367 459 367 459 367.5 c 129,-1,122
 459 368 459 368 459 367.5 c 129,-1,123
 459 367 459 367 460 367.5 c 128,-1,124
 461 368 461 368 461.5 367.5 c 128,-1,125
 462 367 462 367 462 367.5 c 128,-1,126
 462 368 462 368 467 367 c 0,127,128
 469 367 469 367 471 367 c 128,-1,129
 473 367 473 367 473 367 c 1,130,-1
 477 367 l 1,131,-1
 480 367 l 1,132,133
 480 367 480 367 480.5 367 c 128,-1,134
 481 367 481 367 482 367 c 128,-1,135
 483 367 483 367 483 367 c 2,136,137
 485 367 485 367 488 367 c 0,138,139
 490 367 490 367 490 367.5 c 128,-1,140
 490 368 490 368 492 367 c 0,141,142
 495 367 495 367 496 367 c 2,143,-1
 498 367 l 2,144,145
 500 367 500 367 501.5 367.5 c 128,-1,146
 503 368 503 368 503.5 368 c 128,-1,147
 504 368 504 368 505 368 c 128,-1,148
 506 368 506 368 506 368.5 c 128,-1,149
 506 369 506 369 507 369 c 128,-1,150
 508 369 508 369 509 369.5 c 128,-1,151
 510 370 510 370 510.5 370.5 c 128,-1,152
 511 371 511 371 511 371 c 1,153,-1
 512 372 l 2,154,155
 513 373 513 373 513 373 c 129,-1,156
 513 373 513 373 513.5 373 c 128,-1,157
 514 373 514 373 514 373.5 c 128,-1,158
 514 374 514 374 514.5 374.5 c 128,-1,159
 515 375 515 375 515.5 376 c 128,-1,160
 516 377 516 377 516 377 c 129,-1,161
 516 377 516 377 516.5 378 c 128,-1,162
 517 379 517 379 517 379.5 c 128,-1,163
 517 380 517 380 517 380 c 129,-1,164
 517 380 517 380 517 381.5 c 128,-1,165
 517 383 517 383 518 393 c 0,166,167
 518 395 518 395 518 397.5 c 128,-1,168
 518 400 518 400 518 401.5 c 128,-1,169
 518 403 518 403 518 403 c 257,170,171
 518 403 518 403 517.5 405 c 128,-1,172
 517 407 517 407 517 407.5 c 128,-1,173
 517 408 517 408 516.5 408.5 c 128,-1,174
 516 409 516 409 516 409 c 129,-1,175
 516 409 516 409 516 404.5 c 128,-1,176
 516 400 516 400 516 400 c 129,-1,177
 516 400 516 400 516 399.5 c 128,-1,178
 516 399 516 399 516 391.5 c 128,-1,179
 516 384 516 384 516 384 c 129,-1,180
 516 384 516 384 516 382.5 c 128,-1,181
 516 381 516 381 515.5 380 c 128,-1,182
 515 379 515 379 515 378 c 2,183,-1
 514 378 l 2,184,185
 514 376 514 376 514 376 c 2,186,187
 513 375 513 375 512 374 c 2,188,-1
 511 373 l 2,189,190
 511 372 511 372 510.5 372 c 128,-1,191
 510 372 510 372 510 372 c 129,-1,192
 510 372 510 372 509.5 372 c 128,-1,193
 509 372 509 372 508 371 c 128,-1,194
 507 370 507 370 506.5 370 c 128,-1,195
 506 370 506 370 505.5 370 c 128,-1,196
 505 370 505 370 504.5 370 c 128,-1,197
 504 370 504 370 504 369.5 c 128,-1,198
 504 369 504 369 503.5 369.5 c 128,-1,199
 503 370 503 370 503 369.5 c 128,-1,200
 503 369 503 369 502.5 369 c 128,-1,201
 502 369 502 369 501 369 c 128,-1,202
 500 369 500 369 496 369 c 2,203,-1
 492 369 l 1,204,205
 492 369 492 369 491 369 c 2,206,-1
 490 369 l 1,207,-1
 489 369 l 1,208,209
 489 369 489 369 488.5 369 c 128,-1,210
 488 369 488 369 485 369 c 128,-1,211
 482 369 482 369 481.5 369 c 128,-1,212
 481 369 481 369 480 369 c 2,213,214
 480 369 480 369 479.5 369 c 128,-1,215
 479 369 479 369 477.5 369 c 128,-1,216
 476 369 476 369 475 369 c 0,217,218
 468 369 468 369 468 369 c 1,219,-1
 466 369 l 1,220,221
 466 369 466 369 464 369 c 128,-1,222
 462 369 462 369 461.5 369 c 128,-1,223
 461 369 461 369 461 369 c 129,-1,224
 461 369 461 369 458.5 369 c 128,-1,225
 456 369 456 369 456 369 c 129,-1,226
 456 369 456 369 456 369 c 129,-1,227
 456 369 456 369 454 369 c 2,228,-1
 452 369 l 1,229,230
 452 369 452 369 451 369 c 128,-1,231
 450 369 450 369 450 369 c 129,-1,232
 450 369 450 369 449 369.5 c 128,-1,233
 448 370 448 370 446.5 370.5 c 128,-1,234
 445 371 445 371 444.5 371 c 128,-1,235
 444 371 444 371 444 371 c 129,-1,236
 444 371 444 371 443.5 371 c 128,-1,237
 443 371 443 371 443 371.5 c 128,-1,238
 443 372 443 372 442 372 c 2,239,-1
 441 373 l 2,240,241
 442 373 442 373 441.5 373.5 c 128,-1,242
 441 374 441 374 440.5 374 c 128,-1,243
 440 374 440 374 440 374 c 129,-1,244
 440 374 440 374 440 374.5 c 128,-1,245
 440 375 440 375 439.5 375.5 c 128,-1,246
 439 376 439 376 438.5 376.5 c 128,-1,247
 438 377 438 377 438 377 c 129,-1,248
 438 377 438 377 438 378 c 128,-1,249
 438 379 438 379 437.5 379.5 c 128,-1,250
 437 380 437 380 437 380.5 c 128,-1,251
 437 381 437 381 437 381 c 129,-1,252
 437 381 437 381 437 382 c 128,-1,253
 437 383 437 383 437 383.5 c 128,-1,254
 437 384 437 384 436 385 c 0,255,256
 436 387 436 387 436 388 c 2,257,-1
 436 394 l 1,258,-1
 436 398 l 1,259,260
 436 398 436 398 436 398.5 c 128,-1,261
 436 399 436 399 436 399.5 c 128,-1,262
 436 400 436 400 436 401 c 256,263,264
 436 402 436 402 436 403 c 0,265,266
 436 405 436 405 436 408 c 0,267,268
 436 410 436 410 436 412 c 0,269,76
 436 413 436 413 436 413 c 129,-1,77
478 405 m 1,270,-1
 498 405 l 1,271,-1
 498 401 l 1,272,-1
 478 401 l 1,273,-1
 478 405 l 1,270,-1
399 397 m 1,274,275
 399 397 399 397 399 352 c 0,276,277
 399 337 399 337 407.5 326.5 c 128,-1,278
 416 316 416 316 430 313 c 1,279,-1
 430 323 l 1,280,281
 425 324 425 324 420 328 c 0,282,283
 418 329 418 329 417 331 c 0,284,285
 416 332 416 332 415 333 c 1,286,287
 415 333 415 333 415 333 c 129,-1,288
 415 333 415 333 415 333 c 1,289,290
 414 333 414 333 413 335 c 0,291,292
 411 338 411 338 410 341 c 0,293,294
 409 345 409 345 409 350 c 2,295,-1
 409 383 l 1,296,-1
 409 394 l 1,297,298
 404 396 404 396 399 397 c 1,274,275
478 396 m 1,299,-1
 478 392 l 1,300,-1
 498 392 l 1,301,-1
 498 396 l 1,302,-1
 478 396 l 1,299,-1
542 389 m 1,303,-1
 542 378 l 1,304,-1
 543 378 l 2,305,306
 544 378 544 378 547 376.5 c 128,-1,307
 550 375 550 375 553 373 c 0,308,309
 557 369 557 369 559.5 363 c 128,-1,310
 562 357 562 357 562 349 c 2,311,-1
 562 288 l 1,312,-1
 573 288 l 1,313,-1
 573 349 l 2,314,315
 573 365 573 365 564.5 375.5 c 128,-1,316
 556 386 556 386 542 389 c 1,303,-1
480 387 m 1,317,-1
 478 383 l 1,318,-1
 499 383 l 1,319,-1
 497 387 l 1,320,-1
 480 387 l 1,317,-1
463 387 m 1,321,-1
 452 373 l 1,322,-1
 465 373 l 1,323,-1
 476 387 l 1,324,-1
 463 387 l 1,321,-1
594 364 m 1,325,-1
 576 324 l 1,326,-1
 581 324 l 1,327,-1
 597 358 l 1,328,-1
 594 364 l 1,325,-1
459 363 m 1,329,-1
 459 359 l 1,330,-1
 479 359 l 1,331,-1
 479 363 l 1,332,-1
 459 363 l 1,329,-1
483 363 m 1,333,-1
 483 352 l 1,334,-1
 495 352 l 1,335,-1
 495 363 l 1,336,-1
 483 363 l 1,333,-1
499 363 m 1,337,-1
 499 352 l 1,338,-1
 512 352 l 1,339,-1
 512 363 l 1,340,-1
 499 363 l 1,337,-1
516 361 m 1,341,-1
 516 349 l 1,342,-1
 518 349 l 2,343,344
 520 348 520 348 522.5 346.5 c 128,-1,345
 525 345 525 345 527 343 c 0,346,347
 534 339 534 339 538 331 c 128,-1,348
 542 323 542 323 543 315 c 2,349,-1
 544 310 l 1,350,-1
 554 315 l 1,351,352
 553 331 553 331 542.5 344 c 128,-1,353
 532 357 532 357 516 361 c 1,341,-1
443 360 m 1,354,-1
 443 336 l 1,355,-1
 453 336 l 1,356,-1
 453 360 l 1,357,-1
 443 360 l 1,354,-1
459 353 m 1,358,-1
 456 347 l 1,359,-1
 474 308 l 1,360,-1
 480 308 l 1,361,-1
 459 353 l 1,358,-1
477 348 m 1,362,-1
 477 337 l 1,363,-1
 498 337 l 1,364,-1
 498 333 l 2,365,366
 498 322 498 322 492 314 c 128,-1,367
 486 306 486 306 476 302 c 1,368,-1
 476 291 l 1,369,370
 490 295 490 295 499.5 306.5 c 128,-1,371
 509 318 509 318 509 333 c 2,372,-1
 509 348 l 1,373,-1
 477 348 l 1,362,-1
431 347 m 1,374,-1
 431 333 l 2,375,376
 434 329 434 329 435.5 322 c 128,-1,377
 437 315 437 315 437 301 c 2,378,-1
 437 291 l 1,379,-1
 437 246 l 1,380,-1
 448 246 l 1,381,-1
 448 301 l 2,382,383
 448 314 448 314 445.5 323.5 c 128,-1,384
 443 333 443 333 439.5 338 c 128,-1,385
 436 343 436 343 431 347 c 1,374,-1
516 345 m 1,386,-1
 516 334 l 1,387,388
 521 331 521 331 524 325 c 128,-1,389
 527 319 527 319 527 308 c 2,390,-1
 527 301 l 1,391,-1
 516 301 l 1,392,-1
 516 300 l 2,393,394
 516 298 516 298 516.5 295.5 c 128,-1,395
 517 293 517 293 518 292 c 2,396,-1
 538 292 l 1,397,-1
 538 308 l 2,398,399
 538 321 538 321 532 330.5 c 128,-1,400
 526 340 526 340 516 345 c 1,386,-1
595 335 m 1,401,402
 589 331 589 331 586 326 c 128,-1,403
 583 321 583 321 580.5 311.5 c 128,-1,404
 578 302 578 302 578 289 c 2,405,-1
 578 234 l 1,406,-1
 589 234 l 1,407,-1
 589 279 l 1,408,-1
 589 289 l 2,409,410
 589 303 589 303 590.5 310 c 128,-1,411
 592 317 592 317 595 321 c 2,412,-1
 595 335 l 1,401,402
611 335 m 1,413,414
 605 331 605 331 601.5 326 c 128,-1,415
 598 321 598 321 596 311.5 c 128,-1,416
 594 302 594 302 594 289 c 2,417,-1
 594 234 l 1,418,-1
 605 234 l 1,419,-1
 605 279 l 1,420,-1
 605 289 l 2,421,422
 605 303 605 303 606.5 310 c 128,-1,423
 608 317 608 317 611 321 c 2,424,-1
 611 335 l 1,413,414
635 335 m 1,425,426
 624 330 624 330 616.5 320 c 128,-1,427
 609 310 609 310 609 295 c 2,428,-1
 609 234 l 1,429,-1
 620 234 l 1,430,-1
 620 295 l 2,431,432
 620 309 620 309 627 317 c 0,433,434
 628 318 628 318 628.5 318.5 c 128,-1,435
 629 319 629 319 629.5 319.5 c 128,-1,436
 630 320 630 320 630.5 320.5 c 128,-1,437
 631 321 631 321 632 321.5 c 128,-1,438
 633 322 633 322 633.5 322 c 128,-1,439
 634 322 634 322 634 322 c 1,440,-1
 635 323 l 1,441,-1
 635 335 l 1,425,426
477 334 m 1,442,-1
 477 323 l 1,443,-1
 489 323 l 1,444,-1
 489 334 l 1,445,-1
 477 334 l 1,442,-1
451 331 m 1,446,-1
 451 320 l 1,447,448
 455 318 455 318 458 311.5 c 128,-1,449
 461 305 461 305 461 295 c 2,450,-1
 461 288 l 1,451,-1
 451 288 l 1,452,-1
 451 286 l 2,453,454
 451 285 451 285 451 282.5 c 128,-1,455
 451 280 451 280 452 278 c 2,456,-1
 472 278 l 1,457,-1
 472 295 l 2,458,459
 472 307 472 307 466.5 316.5 c 128,-1,460
 461 326 461 326 451 331 c 1,446,-1
514 321 m 1,461,-1
 504 307 l 1,462,-1
 515 307 l 1,463,-1
 520 314 l 1,464,-1
 524 321 l 1,465,-1
 514 321 l 1,461,-1
656 317 m 1,466,467
 642 315 642 315 633.5 304 c 128,-1,468
 625 293 625 293 625 278 c 2,469,-1
 625 234 l 1,470,-1
 635 234 l 1,471,-1
 635 278 l 2,472,473
 635 286 635 286 637.5 292 c 128,-1,474
 640 298 640 298 645 302 c 0,475,476
 650 305 650 305 656 307 c 1,477,-1
 656 307 l 1,478,-1
 656 317 l 1,466,467
412 317 m 1,479,-1
 412 302 l 2,480,481
 415 299 415 299 416.5 291.5 c 128,-1,482
 418 284 418 284 418 271 c 2,483,-1
 418 260 l 1,484,-1
 418 216 l 1,485,-1
 429 216 l 1,486,-1
 429 271 l 2,487,488
 429 284 429 284 426.5 293 c 128,-1,489
 424 302 424 302 420.5 307.5 c 128,-1,490
 417 313 417 313 412 317 c 1,479,-1
388 317 m 1,491,-1
 388 305 l 1,492,493
 388 305 388 305 388.5 304.5 c 128,-1,494
 389 304 389 304 389.5 304 c 128,-1,495
 390 304 390 304 390.5 303.5 c 128,-1,496
 391 303 391 303 391.5 302.5 c 128,-1,497
 392 302 392 302 393 301.5 c 128,-1,498
 394 301 394 301 394.5 300.5 c 128,-1,499
 395 300 395 300 396 299 c 0,500,501
 403 291 403 291 403 277 c 2,502,-1
 403 216 l 1,503,-1
 413 216 l 1,504,-1
 413 277 l 2,505,506
 413 292 413 292 406 301.5 c 128,-1,507
 399 311 399 311 388 317 c 1,491,-1
503 305 m 1,508,-1
 498 298 l 1,509,-1
 503 292 l 1,510,-1
 514 292 l 1,511,-1
 505 305 l 1,512,-1
 503 305 l 1,508,-1
543 302 m 1,513,-1
 543 292 l 1,514,-1
 558 292 l 1,515,-1
 558 302 l 1,516,-1
 543 302 l 1,513,-1
351 300 m 1,517,-1
 351 290 l 1,518,519
 357 289 357 289 362 285 c 0,520,521
 363 284 363 284 365 282 c 2,522,523
 365 282 365 282 366 281 c 2,524,525
 366 281 366 281 366 280.5 c 128,-1,526
 366 280 366 280 366 280 c 2,527,528
 367 280 367 280 368 278 c 0,529,530
 370 275 370 275 371 273 c 0,531,532
 373 268 373 268 372 263 c 2,533,-1
 372 230 l 1,534,-1
 372 219 l 1,535,536
 377 217 377 217 383 216 c 1,537,-1
 383 261 l 2,538,539
 383 276 383 276 374 287 c 128,-1,540
 365 298 365 298 351 300 c 1,517,-1
378 299 m 1,541,-1
 378 287 l 1,542,543
 383 284 383 284 385 277.5 c 128,-1,544
 387 271 387 271 387 263 c 2,545,-1
 387 216 l 1,546,-1
 398 216 l 1,547,-1
 398 263 l 2,548,549
 398 275 398 275 392.5 284.5 c 128,-1,550
 387 294 387 294 378 299 c 1,541,-1
524.5 289 m 128,-1,552
 522 289 522 289 522 288.5 c 128,-1,553
 522 288 522 288 521 288.5 c 128,-1,554
 520 289 520 289 519.5 288.5 c 128,-1,555
 519 288 519 288 519 288.5 c 129,-1,556
 519 289 519 289 519 288.5 c 129,-1,557
 519 288 519 288 516 288 c 256,558,559
 513 288 513 288 511 288 c 256,560,561
 509 288 509 288 508 288 c 128,-1,562
 507 288 507 288 507 288 c 129,-1,563
 507 288 507 288 503 288 c 128,-1,564
 499 288 499 288 498.5 288 c 128,-1,565
 498 288 498 288 496 288 c 128,-1,566
 494 288 494 288 491 288 c 2,567,-1
 484 288 l 1,568,-1
 479 288 l 2,569,570
 478 288 478 288 477.5 288 c 128,-1,571
 477 288 477 288 476.5 288 c 128,-1,572
 476 288 476 288 476 287.5 c 128,-1,573
 476 287 476 287 476 285.5 c 128,-1,574
 476 284 476 284 476 282 c 128,-1,575
 476 280 476 280 476 279 c 2,576,-1
 476 278 l 1,577,578
 476 278 476 278 476 277.5 c 128,-1,579
 476 277 476 277 476 275 c 0,580,581
 477 274 477 274 477 274 c 1,582,-1
 477 271 l 2,583,584
 477 270 477 270 477 269.5 c 128,-1,585
 477 269 477 269 477 268.5 c 128,-1,586
 477 268 477 268 477.5 268 c 128,-1,587
 478 268 478 268 478 266.5 c 128,-1,588
 478 265 478 265 478 264 c 2,589,590
 478 264 478 264 478 262 c 0,591,592
 478 261 478 261 478 261 c 129,-1,593
 478 261 478 261 478 260.5 c 128,-1,594
 478 260 478 260 478 258 c 2,595,596
 478 258 478 258 478 257 c 128,-1,597
 478 256 478 256 478 255 c 128,-1,598
 478 254 478 254 478 253 c 0,599,600
 478 251 478 251 478 238 c 0,601,602
 478 235 478 235 477.5 231.5 c 128,-1,603
 477 228 477 228 477 226 c 128,-1,604
 477 224 477 224 477 224 c 2,605,606
 477 221 477 221 478 220 c 2,607,-1
 478 219 l 2,608,609
 478 218 478 218 478.5 218 c 128,-1,610
 479 218 479 218 480 218 c 128,-1,611
 481 218 481 218 481.5 218 c 128,-1,612
 482 218 482 218 484 218.5 c 128,-1,613
 486 219 486 219 486.5 219 c 128,-1,614
 487 219 487 219 489 218.5 c 128,-1,615
 491 218 491 218 491.5 218 c 128,-1,616
 492 218 492 218 493 218 c 128,-1,617
 494 218 494 218 494 218 c 129,-1,618
 494 218 494 218 494.5 218 c 128,-1,619
 495 218 495 218 496 217.5 c 128,-1,620
 497 217 497 217 498.5 217 c 128,-1,621
 500 217 500 217 500.5 217 c 128,-1,622
 501 217 501 217 501.5 217 c 128,-1,623
 502 217 502 217 503 217 c 128,-1,624
 504 217 504 217 504.5 217 c 128,-1,625
 505 217 505 217 505.5 217 c 128,-1,626
 506 217 506 217 506 217 c 129,-1,627
 506 217 506 217 507 217 c 0,628,629
 509 217 509 217 510 217 c 0,630,631
 511 218 511 218 511.5 218 c 128,-1,632
 512 218 512 218 512.5 218 c 128,-1,633
 513 218 513 218 515 218 c 2,634,635
 515 218 515 218 516 218 c 128,-1,636
 517 218 517 218 517.5 218 c 128,-1,637
 518 218 518 218 518 218 c 257,638,639
 518 218 518 218 518.5 218 c 128,-1,640
 519 218 519 218 519 217.5 c 128,-1,641
 519 217 519 217 520 217 c 0,642,643
 522 217 522 217 522.5 217 c 128,-1,644
 523 217 523 217 527 217 c 128,-1,645
 531 217 531 217 533.5 217.5 c 128,-1,646
 536 218 536 218 536.5 218 c 128,-1,647
 537 218 537 218 539.5 218 c 128,-1,648
 542 218 542 218 543 218 c 256,649,650
 544 218 544 218 546 218 c 256,651,652
 548 218 548 218 548.5 218 c 128,-1,653
 549 218 549 218 550 218 c 128,-1,654
 551 218 551 218 551 218.5 c 128,-1,655
 551 219 551 219 551 220.5 c 128,-1,656
 551 222 551 222 551.5 222 c 128,-1,657
 552 222 552 222 551.5 222.5 c 128,-1,658
 551 223 551 223 551 223.5 c 128,-1,659
 551 224 551 224 551 224.5 c 128,-1,660
 551 225 551 225 551 226 c 128,-1,661
 551 227 551 227 551 227.5 c 128,-1,662
 551 228 551 228 551 232 c 128,-1,663
 551 236 551 236 551 237 c 128,-1,664
 551 238 551 238 551 238 c 129,-1,665
 551 238 551 238 551 239 c 128,-1,666
 551 240 551 240 551 240.5 c 128,-1,667
 551 241 551 241 551 241.5 c 128,-1,668
 551 242 551 242 551 242.5 c 128,-1,669
 551 243 551 243 551 245 c 128,-1,670
 551 247 551 247 551.5 247 c 128,-1,671
 552 247 552 247 552.5 247 c 128,-1,672
 553 247 553 247 553 247 c 129,-1,673
 553 247 553 247 553.5 246.5 c 128,-1,674
 554 246 554 246 554 245.5 c 128,-1,675
 554 245 554 245 554.5 244.5 c 128,-1,676
 555 244 555 244 555 244 c 129,-1,677
 555 244 555 244 555.5 244 c 128,-1,678
 556 244 556 244 556 243.5 c 128,-1,679
 556 243 556 243 557 242 c 128,-1,680
 558 241 558 241 558 241 c 129,-1,681
 558 241 558 241 558.5 241.5 c 128,-1,682
 559 242 559 242 558.5 246.5 c 128,-1,683
 558 251 558 251 558 251 c 129,-1,684
 558 251 558 251 558 254 c 128,-1,685
 558 257 558 257 558 261 c 128,-1,686
 558 265 558 265 558 266 c 128,-1,687
 558 267 558 267 558 267 c 129,-1,688
 558 267 558 267 558 267.5 c 128,-1,689
 558 268 558 268 558 269 c 0,690,691
 558 271 558 271 558 273 c 0,692,693
 558 276 558 276 558 277.5 c 128,-1,694
 558 279 558 279 558.5 281 c 128,-1,695
 559 283 559 283 558.5 285 c 128,-1,696
 558 287 558 287 557.5 287.5 c 128,-1,697
 557 288 557 288 557 288 c 129,-1,698
 557 288 557 288 557 287 c 2,699,-1
 556 287 l 2,700,701
 556 288 556 288 556 288 c 129,-1,702
 556 288 556 288 554 288 c 0,703,704
 553 288 553 288 551 288 c 0,705,706
 546 287 546 287 546 287 c 2,707,708
 544 287 544 287 543.5 287 c 128,-1,709
 543 287 543 287 542.5 287.5 c 128,-1,710
 542 288 542 288 541.5 287.5 c 128,-1,711
 541 287 541 287 540.5 287 c 128,-1,712
 540 287 540 287 540 287.5 c 128,-1,713
 540 288 540 288 539 287.5 c 128,-1,714
 538 287 538 287 538 287.5 c 128,-1,715
 538 288 538 288 536.5 288 c 128,-1,716
 535 288 535 288 535 288 c 2,717,718
 534 288 534 288 533.5 288 c 128,-1,719
 533 288 533 288 532.5 288 c 128,-1,720
 532 288 532 288 531.5 288 c 128,-1,721
 531 288 531 288 531 288 c 129,-1,722
 531 288 531 288 529 288 c 128,-1,723
 527 288 527 288 527 288.5 c 128,-1,551
 527 289 527 289 524.5 289 c 128,-1,552
516 285 m 1,724,-1
 516 285 l 1,725,-1
 519 285 l 1,726,-1
 519 285 l 1,727,-1
 519 285 l 1,728,-1
 519 260 l 1,729,730
 519 260 519 260 519 260 c 129,-1,731
 519 260 519 260 519 260 c 1,732,-1
 520 260 l 1,733,-1
 521 260 l 1,734,-1
 521 259 l 1,735,-1
 521 257 l 1,736,-1
 521 257 l 1,737,-1
 520 257 l 1,738,-1
 520 257 l 1,739,-1
 519 257 l 2,740,741
 517 257 517 257 516.5 257.5 c 128,-1,742
 516 258 516 258 516 260 c 2,743,-1
 516 285 l 1,744,-1
 516 285 l 1,724,-1
482 285 m 1,745,-1
 482 285 l 1,746,-1
 485 285 l 1,747,-1
 485 285 l 1,748,-1
 485 285 l 1,749,-1
 485 276 l 2,750,751
 487 277 487 277 488 277 c 2,752,-1
 490 277 l 2,753,754
 491 277 491 277 493 275 c 128,-1,755
 495 273 495 273 495 268 c 2,756,-1
 495 266 l 2,757,758
 495 261 495 261 493.5 259 c 128,-1,759
 492 257 492 257 488 257 c 0,760,761
 487 257 487 257 485 257 c 1,762,-1
 485 257 l 1,763,-1
 485 257 l 1,764,-1
 485 257 l 1,765,-1
 482 257 l 1,766,-1
 482 257 l 1,767,-1
 482 257 l 1,768,-1
 482 285 l 1,769,-1
 482 285 l 1,745,-1
568 285 m 1,770,-1
 568 242 l 1,771,-1
 573 242 l 1,772,-1
 573 285 l 1,773,-1
 568 285 l 1,770,-1
505 277 m 2,774,-1
 506 277 l 2,775,776
 508 277 508 277 509.5 276 c 128,-1,777
 511 275 511 275 511 271 c 2,778,-1
 511 257 l 1,779,-1
 511 257 l 1,780,-1
 511 257 l 1,781,-1
 511 257 l 1,782,-1
 508 257 l 1,783,-1
 508 257 l 1,784,-1
 508 257 l 1,785,-1
 508 258 l 2,786,787
 506 257 506 257 504 257 c 0,788,789
 501 257 501 257 499.5 258.5 c 128,-1,790
 498 260 498 260 498 263 c 256,791,792
 498 266 498 266 500.5 268 c 128,-1,793
 503 270 503 270 508 270 c 1,794,-1
 508 271 l 2,795,796
 508 273 508 273 507 273.5 c 128,-1,797
 506 274 506 274 504.5 274 c 128,-1,798
 503 274 503 274 502.5 273.5 c 128,-1,799
 502 273 502 273 502 271 c 1,800,-1
 502 271 l 1,801,-1
 502 271 l 1,802,-1
 499 271 l 1,803,-1
 498 271 l 1,804,-1
 498 271 l 1,805,806
 499 274 499 274 500.5 275.5 c 128,-1,807
 502 277 502 277 505 277 c 2,774,-1
528 277 m 2,808,-1
 529 277 l 2,809,810
 532 277 532 277 533.5 275.5 c 128,-1,811
 535 274 535 274 535 271 c 1,812,-1
 535 271 l 1,813,-1
 535 271 l 1,814,-1
 532 271 l 1,815,-1
 532 271 l 1,816,-1
 532 271 l 1,817,818
 532 272 532 272 531 273 c 128,-1,819
 530 274 530 274 529 274 c 0,820,821
 527 274 527 274 526.5 273.5 c 128,-1,822
 526 273 526 273 526 272 c 0,823,824
 526 270 526 270 526.5 269.5 c 128,-1,825
 527 269 527 269 529 268 c 2,826,-1
 530 268 l 2,827,828
 532 268 532 268 533 267 c 128,-1,829
 534 266 534 266 534.5 265 c 128,-1,830
 535 264 535 264 535 262 c 0,831,832
 535 259 535 259 533.5 258 c 128,-1,833
 532 257 532 257 529.5 257 c 128,-1,834
 527 257 527 257 525 258.5 c 128,-1,835
 523 260 523 260 523 263 c 1,836,-1
 523 263 l 1,837,-1
 523 263 l 1,838,-1
 526 263 l 1,839,-1
 526 263 l 1,840,-1
 526 263 l 1,841,842
 526 261 526 261 527 260.5 c 128,-1,843
 528 260 528 260 529.5 260 c 128,-1,844
 531 260 531 260 531.5 260.5 c 128,-1,845
 532 261 532 261 532 262 c 256,846,847
 532 263 532 263 532 263.5 c 128,-1,848
 532 264 532 264 531.5 264.5 c 128,-1,849
 531 265 531 265 529 265 c 2,850,-1
 528 265 l 2,851,852
 527 266 527 266 525 267 c 128,-1,853
 523 268 523 268 523 272 c 0,854,855
 523 274 523 274 524.5 275.5 c 128,-1,856
 526 277 526 277 528 277 c 2,808,-1
545 277 m 2,857,-1
 546 277 l 2,858,859
 548 277 548 277 550 276 c 128,-1,860
 552 275 552 275 552 271 c 2,861,-1
 552 257 l 1,862,-1
 552 257 l 1,863,-1
 551 257 l 1,864,-1
 551 257 l 1,865,-1
 548 257 l 1,866,-1
 548 257 l 1,867,-1
 548 257 l 1,868,-1
 548 258 l 2,869,870
 546 257 546 257 544 257 c 256,871,872
 542 257 542 257 540.5 258.5 c 128,-1,873
 539 260 539 260 539 263 c 256,874,875
 539 266 539 266 541.5 268 c 128,-1,876
 544 270 544 270 548 270 c 1,877,-1
 548 271 l 2,878,879
 548 273 548 273 547.5 273.5 c 128,-1,880
 547 274 547 274 545.5 274 c 128,-1,881
 544 274 544 274 543 273.5 c 128,-1,882
 542 273 542 273 542 271 c 1,883,-1
 542 271 l 1,884,-1
 542 271 l 1,885,-1
 539 271 l 1,886,-1
 539 271 l 1,887,-1
 539 271 l 1,888,889
 539 274 539 274 540.5 275.5 c 128,-1,890
 542 277 542 277 545 277 c 2,857,-1
564 276 m 129,-1,892
 564 276 564 276 563.5 276 c 128,-1,893
 563 276 563 276 563 276 c 129,-1,894
 563 276 563 276 563 275.5 c 128,-1,895
 563 275 563 275 562.5 268.5 c 128,-1,896
 562 262 562 262 562.5 261.5 c 128,-1,897
 563 261 563 261 563 261 c 2,898,899
 563 260 563 260 563 259.5 c 128,-1,900
 563 259 563 259 563 259 c 2,901,902
 562 258 562 258 562.5 257.5 c 128,-1,903
 563 257 563 257 563 257 c 129,-1,904
 563 257 563 257 563 254 c 128,-1,905
 563 251 563 251 563 251 c 129,-1,906
 563 251 563 251 562.5 250.5 c 128,-1,907
 562 250 562 250 562.5 248.5 c 128,-1,908
 563 247 563 247 563 245.5 c 128,-1,909
 563 244 563 244 563.5 242.5 c 128,-1,910
 564 241 564 241 564.5 240.5 c 128,-1,911
 565 240 565 240 565 239.5 c 128,-1,912
 565 239 565 239 565 239 c 129,-1,913
 565 239 565 239 565 239 c 129,-1,914
 565 239 565 239 565.5 238.5 c 128,-1,915
 566 238 566 238 566 238 c 129,-1,916
 566 238 566 238 566 237.5 c 128,-1,917
 566 237 566 237 567.5 235.5 c 128,-1,918
 569 234 569 234 569.5 233.5 c 128,-1,919
 570 233 570 233 570.5 232.5 c 128,-1,920
 571 232 571 232 572.5 231.5 c 128,-1,921
 574 231 574 231 574.5 231 c 128,-1,922
 575 231 575 231 575.5 230.5 c 128,-1,923
 576 230 576 230 576 230 c 129,-1,924
 576 230 576 230 577 230 c 128,-1,925
 578 230 578 230 578 230 c 129,-1,926
 578 230 578 230 579 230 c 128,-1,927
 580 230 580 230 580.5 229.5 c 128,-1,928
 581 229 581 229 584 229 c 0,929,930
 585 229 585 229 585.5 229 c 128,-1,931
 586 229 586 229 587 229 c 1,932,-1
 587 229 l 1,933,934
 587 229 587 229 588 229 c 0,935,936
 590 229 590 229 594 229 c 0,937,938
 597 229 597 229 600 229 c 256,939,940
 603 229 603 229 611 229 c 0,941,942
 621 229 621 229 622.5 229 c 128,-1,943
 624 229 624 229 625.5 229 c 128,-1,944
 627 229 627 229 627.5 229 c 128,-1,945
 628 229 628 229 628.5 229 c 128,-1,946
 629 229 629 229 629 229 c 129,-1,947
 629 229 629 229 629 229 c 129,-1,948
 629 229 629 229 632 229 c 128,-1,949
 635 229 635 229 635 229.5 c 128,-1,950
 635 230 635 230 636 230 c 128,-1,951
 637 230 637 230 637 230 c 129,-1,952
 637 230 637 230 637.5 230 c 128,-1,953
 638 230 638 230 638.5 230 c 128,-1,954
 639 230 639 230 639.5 230 c 128,-1,955
 640 230 640 230 641 230.5 c 128,-1,956
 642 231 642 231 642.5 231.5 c 128,-1,957
 643 232 643 232 643 231.5 c 128,-1,958
 643 231 643 231 643.5 231.5 c 128,-1,959
 644 232 644 232 645 232.5 c 128,-1,960
 646 233 646 233 646 233.5 c 128,-1,961
 646 234 646 234 646.5 234 c 128,-1,962
 647 234 647 234 648 234.5 c 128,-1,963
 649 235 649 235 649 235 c 129,-1,964
 649 235 649 235 649 235.5 c 128,-1,965
 649 236 649 236 649 236 c 129,-1,966
 649 236 649 236 649.5 237 c 128,-1,967
 650 238 650 238 650 238 c 129,-1,968
 650 238 650 238 650.5 238.5 c 128,-1,969
 651 239 651 239 651 239.5 c 128,-1,970
 651 240 651 240 651.5 240 c 128,-1,971
 652 240 652 240 652 240.5 c 128,-1,972
 652 241 652 241 652 241 c 129,-1,973
 652 241 652 241 652.5 242 c 128,-1,974
 653 243 653 243 653 243 c 129,-1,975
 653 243 653 243 653 243 c 129,-1,976
 653 243 653 243 653 243.5 c 128,-1,977
 653 244 653 244 653.5 246 c 128,-1,978
 654 248 654 248 654 253 c 2,979,-1
 654 260 l 1,980,981
 654 260 654 260 654 262 c 128,-1,982
 654 264 654 264 654 265 c 0,983,984
 654 268 654 268 653.5 268.5 c 128,-1,985
 653 269 653 269 653 269 c 129,-1,986
 653 269 653 269 652.5 269.5 c 128,-1,987
 652 270 652 270 652 270 c 129,-1,988
 652 270 652 270 652 269 c 2,989,-1
 652 268 l 1,990,991
 652 268 652 268 652 267 c 256,992,993
 652 266 652 266 652 265 c 0,994,995
 652 262 652 262 652 261.5 c 128,-1,996
 652 261 652 261 652 260.5 c 128,-1,997
 652 260 652 260 652 259 c 128,-1,998
 652 258 652 258 652 258 c 129,-1,999
 652 258 652 258 652 256 c 2,1000,1001
 652 256 652 256 652 255.5 c 128,-1,1002
 652 255 652 255 652 254.5 c 128,-1,1003
 652 254 652 254 652 254 c 129,-1,1004
 652 254 652 254 652 252 c 128,-1,1005
 652 250 652 250 652 249.5 c 128,-1,1006
 652 249 652 249 652 248.5 c 128,-1,1007
 652 248 652 248 652 247 c 128,-1,1008
 652 246 652 246 651.5 245.5 c 128,-1,1009
 651 245 651 245 651 244.5 c 128,-1,1010
 651 244 651 244 651 243 c 128,-1,1011
 651 242 651 242 650 241 c 2,1012,-1
 650 240 l 2,1013,1014
 649 239 649 239 649 238.5 c 128,-1,1015
 649 238 649 238 649 238 c 129,-1,1016
 649 238 649 238 648.5 237.5 c 128,-1,1017
 648 237 648 237 648 237 c 129,-1,1018
 648 237 648 237 647.5 236.5 c 128,-1,1019
 647 236 647 236 646.5 235.5 c 128,-1,1020
 646 235 646 235 645.5 235 c 128,-1,1021
 645 235 645 235 644.5 234.5 c 128,-1,1022
 644 234 644 234 644 234 c 129,-1,1023
 644 234 644 234 643.5 233.5 c 128,-1,1024
 643 233 643 233 642.5 233 c 128,-1,1025
 642 233 642 233 641.5 233 c 128,-1,1026
 641 233 641 233 640 232.5 c 128,-1,1027
 639 232 639 232 638 232 c 128,-1,1028
 637 232 637 232 637 232 c 2,1029,1030
 636 232 636 232 636 231 c 2,1031,1032
 636 231 636 231 635 231 c 128,-1,1033
 634 231 634 231 633.5 231 c 128,-1,1034
 633 231 633 231 632.5 231 c 128,-1,1035
 632 231 632 231 630 231 c 128,-1,1036
 628 231 628 231 628 231 c 129,-1,1037
 628 231 628 231 628 231 c 129,-1,1038
 628 231 628 231 623.5 231 c 128,-1,1039
 619 231 619 231 618.5 231 c 128,-1,1040
 618 231 618 231 618 231 c 129,-1,1041
 618 231 618 231 610 231 c 128,-1,1042
 602 231 602 231 602 231 c 129,-1,1043
 602 231 602 231 601.5 231 c 128,-1,1044
 601 231 601 231 592 231 c 0,1045,1046
 591 231 591 231 590 231 c 0,1047,1048
 583 231 583 231 581.5 231 c 128,-1,1049
 580 231 580 231 579 232 c 2,1050,-1
 577 232 l 2,1051,1052
 576 232 576 232 575 233 c 2,1053,-1
 574 233 l 2,1054,1055
 573 234 573 234 572.5 233.5 c 128,-1,1056
 572 233 572 233 572 233.5 c 128,-1,1057
 572 234 572 234 571.5 234 c 128,-1,1058
 571 234 571 234 570.5 234.5 c 128,-1,1059
 570 235 570 235 570 235 c 129,-1,1060
 570 235 570 235 569 236 c 128,-1,1061
 568 237 568 237 567.5 238 c 128,-1,1062
 567 239 567 239 566.5 239.5 c 128,-1,1063
 566 240 566 240 566 240 c 129,-1,1064
 566 240 566 240 566 240.5 c 128,-1,1065
 566 241 566 241 565.5 241.5 c 128,-1,1066
 565 242 565 242 565 243 c 128,-1,1067
 565 244 565 244 565 244.5 c 128,-1,1068
 565 245 565 245 564.5 246 c 128,-1,1069
 564 247 564 247 564 247 c 129,-1,1070
 564 247 564 247 564 250 c 256,1071,1072
 564 253 564 253 564 254 c 0,1073,1074
 564 256 564 256 564 256 c 129,-1,1075
 564 256 564 256 564 256.5 c 128,-1,1076
 564 257 564 257 564 257.5 c 128,-1,1077
 564 258 564 258 564 258.5 c 128,-1,1078
 564 259 564 259 564 261 c 0,1079,1080
 564 262 564 262 564 263 c 2,1081,1082
 564 263 564 263 564 264 c 128,-1,1083
 564 265 564 265 564 265 c 1,1084,-1
 564 268 l 1,1085,-1
 564 273 l 2,1086,1087
 564 274 564 274 564 274.5 c 128,-1,1088
 564 275 564 275 564 276 c 1,1089,1090
 564 276 564 276 564 276 c 129,-1,891
 564 276 564 276 564 276 c 129,-1,892
456 274 m 1,1091,-1
 472 274 l 1,1092,-1
 472 270 l 1,1093,-1
 456 270 l 1,1094,-1
 456 274 l 1,1091,-1
489 274 m 0,1095,1096
 490 274 490 274 491 272.5 c 128,-1,1097
 492 271 492 271 492 268 c 2,1098,-1
 492 266 l 2,1099,1100
 492 263 492 263 491 261.5 c 128,-1,1101
 490 260 490 260 488 260 c 0,1102,1103
 487 260 487 260 485 261 c 2,1104,-1
 485 273 l 2,1105,1106
 487 274 487 274 489 274 c 0,1095,1096
459 267 m 1,1107,-1
 458 262 l 2,1108,1109
 457 254 457 254 453 246 c 256,1110,1111
 449 238 449 238 443 233 c 0,1112,1113
 437 229 437 229 432 228 c 1,1114,-1
 432 216 l 1,1115,1116
 447 220 447 220 457.5 233 c 128,-1,1117
 468 246 468 246 470 262 c 1,1118,-1
 459 267 l 1,1107,-1
508 267 m 2,1119,-1
 508 261 l 2,1120,1121
 506 260 506 260 504.5 260 c 128,-1,1122
 503 260 503 260 502.5 260.5 c 128,-1,1123
 502 261 502 261 502 263 c 1,1124,-1
 502 263 l 1,1125,1126
 502 264 502 264 503.5 265.5 c 128,-1,1127
 505 267 505 267 508 267 c 2,1119,-1
548 267 m 2,1128,-1
 548 261 l 2,1129,1130
 546 260 546 260 544.5 260 c 128,-1,1131
 543 260 543 260 542.5 260.5 c 128,-1,1132
 542 261 542 261 542 263 c 1,1133,-1
 542 263 l 1,1134,1135
 542 264 542 264 543.5 265.5 c 128,-1,1136
 545 267 545 267 548 267 c 2,1128,-1
358 259 m 129,-1,1138
 358 259 358 259 357.5 258.5 c 128,-1,1139
 357 258 357 258 357 258 c 129,-1,1140
 357 258 357 258 356.5 257.5 c 128,-1,1141
 356 257 356 257 356 250.5 c 128,-1,1142
 356 244 356 244 356 243.5 c 128,-1,1143
 356 243 356 243 356 243 c 129,-1,1144
 356 243 356 243 356 240 c 128,-1,1145
 356 237 356 237 356 237 c 1,1146,-1
 356 236 l 1,1147,1148
 356 236 356 236 356 235.5 c 128,-1,1149
 356 235 356 235 356 234.5 c 128,-1,1150
 356 234 356 234 356 227 c 2,1151,-1
 356 221 l 1,1152,1153
 356 221 356 221 356 218.5 c 128,-1,1154
 356 216 356 216 356 216 c 129,-1,1155
 356 216 356 216 356 215.5 c 128,-1,1156
 356 215 356 215 356 213.5 c 128,-1,1157
 356 212 356 212 356 212 c 129,-1,1158
 356 212 356 212 356 210.5 c 128,-1,1159
 356 209 356 209 356 208.5 c 128,-1,1160
 356 208 356 208 356 208 c 129,-1,1161
 356 208 356 208 356 205 c 0,1162,1163
 356 203 356 203 356.5 202.5 c 128,-1,1164
 357 202 357 202 359 202 c 0,1165,1166
 362 202 362 202 362 202 c 129,-1,1167
 362 202 362 202 363 202 c 1,1168,-1
 363 202 l 1,1169,1170
 363 202 363 202 364.5 202 c 128,-1,1171
 366 202 366 202 366 202 c 129,-1,1172
 366 202 366 202 369.5 202 c 128,-1,1173
 373 202 373 202 373 203 c 1,1174,-1
 373 203 l 1,1175,1176
 373 202 373 202 374 202 c 256,1177,1178
 375 202 375 202 375 202 c 129,-1,1179
 375 202 375 202 377 202 c 128,-1,1180
 379 202 379 202 379 202 c 129,-1,1181
 379 202 379 202 380 202 c 2,1182,-1
 387 202 l 1,1183,1184
 387 202 387 202 390 202 c 0,1185,1186
 392 202 392 202 393 202 c 128,-1,1187
 394 202 394 202 394 202 c 1,1188,-1
 396 202 l 1,1189,-1
 398 202 l 1,1190,1191
 398 202 398 202 399.5 202 c 128,-1,1192
 401 202 401 202 403.5 202 c 128,-1,1193
 406 202 406 202 408 202 c 0,1194,1195
 412 202 412 202 416 202 c 128,-1,1196
 420 202 420 202 420 202 c 1,1197,-1
 423 202 l 1,1198,1199
 423 202 423 202 423 202 c 129,-1,1200
 423 202 423 202 424 202 c 128,-1,1201
 425 202 425 202 425 202 c 1,1202,-1
 446 202 l 2,1203,1204
 451 202 451 202 456 202 c 128,-1,1205
 461 202 461 202 464 202 c 128,-1,1206
 467 202 467 202 467 202 c 2,1207,1208
 470 202 470 202 470.5 202 c 128,-1,1209
 471 202 471 202 471 202.5 c 129,-1,1210
 471 203 471 203 471 202.5 c 129,-1,1211
 471 202 471 202 471.5 202 c 128,-1,1212
 472 202 472 202 472.5 202.5 c 128,-1,1213
 473 203 473 203 473 210.5 c 128,-1,1214
 473 218 473 218 472.5 218 c 129,-1,1215
 472 218 472 218 472.5 218 c 129,-1,1216
 473 218 473 218 473 222 c 0,1217,1218
 473 224 473 224 473 226 c 2,1219,-1
 473 230 l 1,1220,-1
 473 233 l 1,1221,-1
 473 234 l 1,1222,1223
 473 234 473 234 473 234.5 c 128,-1,1224
 473 235 473 235 473 236 c 2,1225,-1
 473 238 l 1,1226,1227
 473 238 473 238 473 238.5 c 128,-1,1228
 473 239 473 239 473 240 c 0,1229,1230
 473 242 473 242 473 242 c 129,-1,1231
 473 242 473 242 472.5 242.5 c 128,-1,1232
 472 243 472 243 472.5 243.5 c 128,-1,1233
 473 244 473 244 472.5 244 c 128,-1,1234
 472 244 472 244 472 244.5 c 128,-1,1235
 472 245 472 245 471.5 245 c 128,-1,1236
 471 245 471 245 471 245.5 c 128,-1,1237
 471 246 471 246 471 246 c 129,-1,1238
 471 246 471 246 471 246 c 129,-1,1239
 471 246 471 246 470.5 246 c 128,-1,1240
 470 246 470 246 470 247 c 1,1241,1242
 470 247 470 247 470 247 c 129,-1,1243
 470 247 470 247 470 247 c 129,-1,1244
 470 247 470 247 470 240.5 c 128,-1,1245
 470 234 470 234 470 232 c 128,-1,1246
 470 230 470 230 469.5 229.5 c 128,-1,1247
 469 229 469 229 469 228.5 c 128,-1,1248
 469 228 469 228 468.5 227.5 c 128,-1,1249
 468 227 468 227 468 227 c 129,-1,1250
 468 227 468 227 467.5 225 c 128,-1,1251
 467 223 467 223 466.5 223 c 128,-1,1252
 466 223 466 223 466 222 c 2,1253,-1
 465 221 l 1,1254,1255
 465 221 465 221 465 221 c 129,-1,1256
 465 221 465 221 464 219.5 c 128,-1,1257
 463 218 463 218 463 218 c 129,-1,1258
 463 218 463 218 462.5 218 c 128,-1,1259
 462 218 462 218 462 218 c 129,-1,1260
 462 218 462 218 461.5 217.5 c 128,-1,1261
 461 217 461 217 461 217 c 129,-1,1262
 461 217 461 217 460.5 216.5 c 128,-1,1263
 460 216 460 216 460 216 c 1,1264,-1
 459 216 l 2,1265,1266
 458 215 458 215 458 215 c 129,-1,1267
 458 215 458 215 456.5 214.5 c 128,-1,1268
 455 214 455 214 454.5 213.5 c 128,-1,1269
 454 213 454 213 454 213 c 129,-1,1270
 454 213 454 213 453.5 213 c 128,-1,1271
 453 213 453 213 453 213 c 129,-1,1272
 453 213 453 213 452.5 213 c 128,-1,1273
 452 213 452 213 451 212.5 c 128,-1,1274
 450 212 450 212 448.5 212 c 128,-1,1275
 447 212 447 212 446 212 c 128,-1,1276
 445 212 445 212 444.5 211.5 c 128,-1,1277
 444 211 444 211 444 211.5 c 128,-1,1278
 444 212 444 212 444 212 c 129,-1,1279
 444 212 444 212 438 212 c 0,1280,1281
 437 212 437 212 435.5 212 c 128,-1,1282
 434 212 434 212 433 212 c 128,-1,1283
 432 212 432 212 432 212 c 2,1284,1285
 431 212 431 212 430 212 c 256,1286,1287
 429 212 429 212 419 212 c 256,1288,1289
 409 212 409 212 408.5 211.5 c 128,-1,1290
 408 211 408 211 407.5 211.5 c 128,-1,1291
 407 212 407 212 406.5 211.5 c 128,-1,1292
 406 211 406 211 406 211.5 c 128,-1,1293
 406 212 406 212 404.5 212 c 128,-1,1294
 403 212 403 212 402 212 c 128,-1,1295
 401 212 401 212 401 212 c 129,-1,1296
 401 212 401 212 400.5 211.5 c 128,-1,1297
 400 211 400 211 400 211.5 c 128,-1,1298
 400 212 400 212 399 212 c 128,-1,1299
 398 212 398 212 398 211.5 c 128,-1,1300
 398 211 398 211 397.5 211.5 c 128,-1,1301
 397 212 397 212 396 212 c 2,1302,-1
 389 212 l 2,1303,1304
 383 212 383 212 382.5 212 c 128,-1,1305
 382 212 382 212 381.5 212 c 128,-1,1306
 381 212 381 212 381 212 c 129,-1,1307
 381 212 381 212 380 212 c 128,-1,1308
 379 212 379 212 378 212.5 c 128,-1,1309
 377 213 377 213 377 213 c 129,-1,1310
 377 213 377 213 376 213 c 128,-1,1311
 375 213 375 213 374.5 213.5 c 128,-1,1312
 374 214 374 214 373.5 214 c 128,-1,1313
 373 214 373 214 373 214 c 129,-1,1314
 373 214 373 214 372 214.5 c 128,-1,1315
 371 215 371 215 371 215 c 1,1316,-1
 370 215 l 1,1317,1318
 370 215 370 215 369.5 215 c 128,-1,1319
 369 215 369 215 369 215.5 c 128,-1,1320
 369 216 369 216 368.5 216 c 128,-1,1321
 368 216 368 216 367.5 216.5 c 128,-1,1322
 367 217 367 217 367 217 c 129,-1,1323
 367 217 367 217 367 217 c 129,-1,1324
 367 217 367 217 366.5 217.5 c 128,-1,1325
 366 218 366 218 366 218 c 129,-1,1326
 366 218 366 218 365 219 c 128,-1,1327
 364 220 364 220 363.5 220.5 c 128,-1,1328
 363 221 363 221 362 222 c 128,-1,1329
 361 223 361 223 361 224 c 128,-1,1330
 361 225 361 225 360.5 226 c 128,-1,1331
 360 227 360 227 360 227 c 1,1332,-1
 359 228 l 2,1333,1334
 359 229 359 229 359 229 c 129,-1,1335
 359 229 359 229 359 230 c 2,1336,1337
 359 230 359 230 359 231 c 2,1338,1339
 359 231 359 231 358.5 231.5 c 128,-1,1340
 358 232 358 232 358 233 c 0,1341,1342
 358 236 358 236 358 240 c 2,1343,-1
 358 247 l 2,1344,1345
 358 249 358 249 358 249 c 129,-1,1346
 358 249 358 249 358 249.5 c 128,-1,1347
 358 250 358 250 358 250.5 c 128,-1,1348
 358 251 358 251 358 252 c 2,1349,-1
 358 254 l 1,1350,-1
 358 256 l 2,1351,1352
 358 258 358 258 358 258 c 129,-1,1353
 358 258 358 258 358 258 c 129,-1,1354
 358 258 358 258 358 258.5 c 128,-1,1137
 358 259 358 259 358 259 c 129,-1,1138
508 252 m 1,1355,-1
 508 251 l 1,1356,-1
 508 247 l 1,1357,-1
 508 246 l 1,1358,-1
 508 246 l 1,1359,-1
 511 246 l 1,1360,-1
 511 246 l 1,1361,-1
 511 246 l 1,1362,-1
 511 247 l 1,1363,-1
 511 251 l 1,1364,-1
 511 252 l 1,1365,-1
 511 252 l 1,1366,-1
 508 252 l 1,1367,-1
 508 252 l 1,1355,-1
482 244 m 1,1368,-1
 482 244 l 1,1369,-1
 482 224 l 1,1370,-1
 482 223 l 1,1371,-1
 483 223 l 1,1372,-1
 485 223 l 1,1373,-1
 485 223 l 1,1374,-1
 485 224 l 1,1375,-1
 485 240 l 2,1376,1377
 487 241 487 241 488 241 c 0,1378,1379
 490 241 490 241 490.5 240.5 c 128,-1,1380
 491 240 491 240 491 239 c 2,1381,-1
 491 224 l 1,1382,-1
 491 223 l 1,1383,-1
 491 223 l 1,1384,-1
 494 223 l 1,1385,-1
 494 223 l 1,1386,-1
 494 224 l 1,1387,-1
 494 240 l 2,1388,1389
 496 241 496 241 497 241 c 0,1390,1391
 499 241 499 241 499.5 240.5 c 128,-1,1392
 500 240 500 240 500 239 c 2,1393,-1
 500 224 l 1,1394,-1
 500 223 l 1,1395,-1
 500 223 l 1,1396,-1
 503 223 l 1,1397,-1
 503 223 l 1,1398,-1
 503 223 l 1,1399,-1
 503 224 l 1,1400,-1
 503 239 l 2,1401,1402
 503 242 503 242 501.5 243 c 128,-1,1403
 500 244 500 244 499 244 c 2,1404,-1
 497 244 l 2,1405,1406
 495 244 495 244 493 242 c 1,1407,1408
 493 243 493 243 492 243 c 0,1409,1410
 491 244 491 244 490 244 c 2,1411,-1
 488 244 l 2,1412,1413
 487 244 487 244 485 243 c 2,1414,-1
 485 244 l 1,1415,-1
 485 244 l 1,1416,-1
 485 244 l 1,1417,-1
 483 244 l 1,1418,-1
 482 244 l 1,1368,-1
508 244 m 1,1419,-1
 508 244 l 1,1420,-1
 508 224 l 1,1421,-1
 508 223 l 1,1422,-1
 508 223 l 1,1423,-1
 511 223 l 1,1424,-1
 511 223 l 1,1425,-1
 511 223 l 1,1426,-1
 511 224 l 1,1427,-1
 511 244 l 1,1428,-1
 511 244 l 1,1429,-1
 511 244 l 1,1430,-1
 508 244 l 1,1431,-1
 508 244 l 1,1419,-1
516 244 m 1,1432,-1
 516 244 l 1,1433,-1
 516 224 l 1,1434,-1
 516 223 l 1,1435,-1
 516 223 l 1,1436,-1
 518 223 l 1,1437,-1
 519 223 l 1,1438,-1
 519 224 l 1,1439,-1
 519 239 l 2,1440,1441
 519 240 519 240 520 240.5 c 128,-1,1442
 521 241 521 241 523 241 c 0,1443,1444
 524 241 524 241 524.5 240.5 c 128,-1,1445
 525 240 525 240 525 239 c 2,1446,-1
 525 224 l 1,1447,-1
 525 223 l 1,1448,-1
 525 223 l 1,1449,-1
 528 223 l 1,1450,-1
 528 223 l 1,1451,-1
 528 223 l 1,1452,-1
 528 224 l 1,1453,-1
 528 239 l 2,1454,1455
 528 242 528 242 527 243 c 128,-1,1456
 526 244 526 244 524 244 c 2,1457,-1
 523 244 l 2,1458,1459
 521 244 521 244 520.5 243.5 c 128,-1,1460
 520 243 520 243 519 243 c 2,1461,1462
 519 243 519 243 519 242 c 2,1463,-1
 519 244 l 1,1464,-1
 519 244 l 1,1465,-1
 518 244 l 1,1466,-1
 516 244 l 1,1467,-1
 516 244 l 1,1432,-1
539 244 m 2,1468,1469
 536 244 536 244 534 241.5 c 128,-1,1470
 532 239 532 239 532 235 c 2,1471,-1
 532 233 l 2,1472,1473
 532 229 532 229 534.5 226 c 128,-1,1474
 537 223 537 223 540 223 c 0,1475,1476
 542 223 542 223 544 224 c 128,-1,1477
 546 225 546 225 546 228 c 1,1478,-1
 546 228 l 1,1479,-1
 546 228 l 1,1480,-1
 543 228 l 1,1481,-1
 543 228 l 1,1482,-1
 543 228 l 1,1483,1484
 543 227 543 227 542 226.5 c 128,-1,1485
 541 226 541 226 540 226 c 0,1486,1487
 538 226 538 226 537 228 c 128,-1,1488
 536 230 536 230 536 232 c 2,1489,-1
 546 232 l 1,1490,-1
 547 232 l 1,1491,-1
 547 232 l 1,1492,-1
 547 235 l 2,1493,1494
 547 239 547 239 545 241.5 c 128,-1,1495
 543 244 543 244 540 244 c 2,1496,-1
 539 244 l 2,1468,1469
539.5 241 m 128,-1,1498
 541 241 541 241 542 239.5 c 128,-1,1499
 543 238 543 238 543 235 c 2,1500,-1
 536 235 l 2,1501,1502
 536 238 536 238 537 239.5 c 128,-1,1497
 538 241 538 241 539.5 241 c 128,-1,1498
554 235 m 1,1503,-1
 554 163 l 2,1504,1505
 554 153 554 153 560 145.5 c 128,-1,1506
 566 138 566 138 575 134 c 1,1507,-1
 575 146 l 1,1508,1509
 570 149 570 149 567.5 153 c 128,-1,1510
 565 157 565 157 565 163 c 2,1511,-1
 565 193 l 1,1512,-1
 565 207 l 1,1513,-1
 565 217 l 1,1514,-1
 565 235 l 1,1515,-1
 554 235 l 1,1503,-1
570 229 m 1,1516,-1
 570 183 l 2,1517,1518
 570 169 570 169 578.5 158 c 128,-1,1519
 587 147 587 147 601 144 c 1,1520,-1
 601 155 l 1,1521,1522
 595 156 595 156 590 160 c 0,1523,1524
 589 161 589 161 588 162 c 256,1525,1526
 587 163 587 163 586 164 c 1,1527,1528
 586 164 586 164 586 164 c 129,-1,1529
 586 164 586 164 586 164 c 1,1530,1531
 585 165 585 165 584 167 c 0,1532,1533
 582 170 582 170 581 172 c 0,1534,1535
 580 176 580 176 580 182 c 2,1536,-1
 580 214 l 1,1537,-1
 580 225 l 1,1538,1539
 575 228 575 228 570 229 c 1,1516,-1
585 226 m 129,-1,1541
 585 226 585 226 584.5 225.5 c 128,-1,1542
 584 225 584 225 584 224 c 1,1543,1544
 583 224 583 224 583 223 c 128,-1,1545
 583 222 583 222 583 219 c 0,1546,1547
 583 218 583 218 583 217 c 128,-1,1548
 583 216 583 216 583 215.5 c 128,-1,1549
 583 215 583 215 583 215 c 257,1550,1551
 583 215 583 215 583 212.5 c 128,-1,1552
 583 210 583 210 583.5 209.5 c 128,-1,1553
 584 209 584 209 583.5 209 c 128,-1,1554
 583 209 583 209 583 204 c 0,1555,1556
 583 200 583 200 583.5 197.5 c 128,-1,1557
 584 195 584 195 584 194.5 c 128,-1,1558
 584 194 584 194 584 193.5 c 128,-1,1559
 584 193 584 193 584 192.5 c 128,-1,1560
 584 192 584 192 584.5 191 c 128,-1,1561
 585 190 585 190 585.5 188.5 c 128,-1,1562
 586 187 586 187 586 187 c 129,-1,1563
 586 187 586 187 586.5 187 c 128,-1,1564
 587 187 587 187 587.5 186 c 128,-1,1565
 588 185 588 185 588 184.5 c 128,-1,1566
 588 184 588 184 588.5 184 c 128,-1,1567
 589 184 589 184 589 183.5 c 128,-1,1568
 589 183 589 183 589.5 183 c 128,-1,1569
 590 183 590 183 590.5 182.5 c 128,-1,1570
 591 182 591 182 592 181.5 c 128,-1,1571
 593 181 593 181 593 181 c 1,1572,-1
 594 180 l 1,1573,1574
 594 180 594 180 594.5 180 c 128,-1,1575
 595 180 595 180 595 179.5 c 128,-1,1576
 595 179 595 179 595.5 179 c 128,-1,1577
 596 179 596 179 596 179 c 129,-1,1578
 596 179 596 179 596.5 179 c 128,-1,1579
 597 179 597 179 597.5 178.5 c 128,-1,1580
 598 178 598 178 599 178 c 128,-1,1581
 600 178 600 178 600 177.5 c 128,-1,1582
 600 177 600 177 600.5 177 c 128,-1,1583
 601 177 601 177 601 177 c 129,-1,1584
 601 177 601 177 603 176.5 c 128,-1,1585
 605 176 605 176 607 176 c 128,-1,1586
 609 176 609 176 609 176 c 129,-1,1587
 609 176 609 176 611 176 c 0,1588,1589
 612 176 612 176 613.5 176 c 128,-1,1590
 615 176 615 176 617 176 c 128,-1,1591
 619 176 619 176 621 176 c 0,1592,1593
 628 176 628 176 628 177 c 2,1594,-1
 629 177 l 2,1595,1596
 629 176 629 176 630 176 c 0,1597,1598
 633 177 633 177 633 177 c 2,1599,1600
 635 177 635 177 635 176.5 c 128,-1,1601
 635 176 635 176 636.5 176.5 c 128,-1,1602
 638 177 638 177 638 177 c 129,-1,1603
 638 177 638 177 640.5 176.5 c 128,-1,1604
 643 176 643 176 643.5 176.5 c 128,-1,1605
 644 177 644 177 644 176.5 c 128,-1,1606
 644 176 644 176 656.5 176 c 128,-1,1607
 669 176 669 176 669 176 c 129,-1,1608
 669 176 669 176 670.5 176.5 c 128,-1,1609
 672 177 672 177 672.5 177 c 128,-1,1610
 673 177 673 177 673.5 177 c 128,-1,1611
 674 177 674 177 674 177 c 1,1612,-1
 675 177 l 1,1613,1614
 675 177 675 177 675.5 177 c 128,-1,1615
 676 177 676 177 676.5 177 c 128,-1,1616
 677 177 677 177 678 177.5 c 128,-1,1617
 679 178 679 178 679.5 178 c 128,-1,1618
 680 178 680 178 680 178 c 129,-1,1619
 680 178 680 178 680.5 178.5 c 128,-1,1620
 681 179 681 179 681 179 c 129,-1,1621
 681 179 681 179 681.5 179 c 128,-1,1622
 682 179 682 179 683 179.5 c 128,-1,1623
 684 180 684 180 684 180 c 129,-1,1624
 684 180 684 180 684.5 180.5 c 128,-1,1625
 685 181 685 181 685 181 c 129,-1,1626
 685 181 685 181 685.5 181.5 c 128,-1,1627
 686 182 686 182 686.5 182.5 c 128,-1,1628
 687 183 687 183 687 183 c 129,-1,1629
 687 183 687 183 687 183 c 129,-1,1630
 687 183 687 183 688 183.5 c 128,-1,1631
 689 184 689 184 689.5 185 c 128,-1,1632
 690 186 690 186 690 186 c 129,-1,1633
 690 186 690 186 690.5 186.5 c 128,-1,1634
 691 187 691 187 691 187.5 c 128,-1,1635
 691 188 691 188 691.5 188.5 c 128,-1,1636
 692 189 692 189 692 189.5 c 128,-1,1637
 692 190 692 190 692 190 c 129,-1,1638
 692 190 692 190 692 190 c 129,-1,1639
 692 190 692 190 692.5 190.5 c 128,-1,1640
 693 191 693 191 693.5 192.5 c 128,-1,1641
 694 194 694 194 694 194.5 c 128,-1,1642
 694 195 694 195 694 195.5 c 128,-1,1643
 694 196 694 196 694 197.5 c 128,-1,1644
 694 199 694 199 694 199 c 129,-1,1645
 694 199 694 199 694 199.5 c 128,-1,1646
 694 200 694 200 694 202 c 2,1647,1648
 694 202 694 202 694 202.5 c 128,-1,1649
 694 203 694 203 694 203.5 c 128,-1,1650
 694 204 694 204 694 204 c 129,-1,1651
 694 204 694 204 694 207.5 c 128,-1,1652
 694 211 694 211 694 212 c 128,-1,1653
 694 213 694 213 693.5 213.5 c 128,-1,1654
 693 214 693 214 692.5 214.5 c 128,-1,1655
 692 215 692 215 692 215 c 129,-1,1656
 692 215 692 215 692 211.5 c 128,-1,1657
 692 208 692 208 692 208 c 129,-1,1658
 692 208 692 208 692 207.5 c 128,-1,1659
 692 207 692 207 692 206 c 128,-1,1660
 692 205 692 205 692 205 c 129,-1,1661
 692 205 692 205 692 201.5 c 128,-1,1662
 692 198 692 198 692 198 c 129,-1,1663
 692 198 692 198 692 197.5 c 128,-1,1664
 692 197 692 197 692 196.5 c 128,-1,1665
 692 196 692 196 691.5 194.5 c 128,-1,1666
 691 193 691 193 690.5 192.5 c 128,-1,1667
 690 192 690 192 690 192 c 129,-1,1668
 690 192 690 192 690 191.5 c 128,-1,1669
 690 191 690 191 690 190.5 c 128,-1,1670
 690 190 690 190 689.5 190 c 128,-1,1671
 689 190 689 190 689 189.5 c 128,-1,1672
 689 189 689 189 688.5 188.5 c 128,-1,1673
 688 188 688 188 688 187.5 c 128,-1,1674
 688 187 688 187 687.5 186.5 c 128,-1,1675
 687 186 687 186 687 186 c 129,-1,1676
 687 186 687 186 686 185 c 128,-1,1677
 685 184 685 184 685 184 c 129,-1,1678
 685 184 685 184 684.5 184 c 128,-1,1679
 684 184 684 184 683.5 183.5 c 128,-1,1680
 683 183 683 183 682.5 183 c 128,-1,1681
 682 183 682 183 682 182.5 c 128,-1,1682
 682 182 682 182 681.5 182 c 128,-1,1683
 681 182 681 182 681 182 c 129,-1,1684
 681 182 681 182 680 182 c 2,1685,-1
 679 181 l 1,1686,1687
 679 181 679 181 678.5 180.5 c 128,-1,1688
 678 180 678 180 677.5 180 c 128,-1,1689
 677 180 677 180 676.5 180 c 128,-1,1690
 676 180 676 180 675 180 c 128,-1,1691
 674 180 674 180 673 180 c 1,1692,1693
 673 179 673 179 672 179.5 c 128,-1,1694
 671 180 671 180 671 179.5 c 128,-1,1695
 671 179 671 179 660 179 c 0,1696,1697
 648 179 648 179 647 179 c 0,1698,1699
 645 179 645 179 645 179 c 129,-1,1700
 645 179 645 179 644 179 c 128,-1,1701
 643 179 643 179 643 179 c 129,-1,1702
 643 179 643 179 642 179 c 128,-1,1703
 641 179 641 179 640 179 c 2,1704,1705
 640 179 640 179 639 179 c 1,1706,1707
 639 179 639 179 639 179 c 129,-1,1708
 639 179 639 179 639 179 c 1,1709,1710
 638 179 638 179 634 179 c 0,1711,1712
 632 179 632 179 630 179 c 2,1713,-1
 628 179 l 1,1714,1715
 628 179 628 179 626.5 179 c 128,-1,1716
 625 179 625 179 624 179 c 0,1717,1718
 622 179 622 179 621.5 179 c 128,-1,1719
 621 179 621 179 617 179 c 128,-1,1720
 613 179 613 179 613 179 c 129,-1,1721
 613 179 613 179 613 179 c 129,-1,1722
 613 179 613 179 609.5 179 c 128,-1,1723
 606 179 606 179 605.5 179 c 128,-1,1724
 605 179 605 179 604 180 c 0,1725,1726
 603 180 603 180 603 180 c 2,1727,1728
 602 180 602 180 601 180 c 128,-1,1729
 600 180 600 180 600 180.5 c 128,-1,1730
 600 181 600 181 599.5 181 c 128,-1,1731
 599 181 599 181 599 181 c 129,-1,1732
 599 181 599 181 598.5 181 c 128,-1,1733
 598 181 598 181 598 181 c 129,-1,1734
 598 181 598 181 597.5 181.5 c 128,-1,1735
 597 182 597 182 597 182 c 129,-1,1736
 597 182 597 182 596.5 182 c 128,-1,1737
 596 182 596 182 594 183 c 128,-1,1738
 592 184 592 184 591 185 c 2,1739,-1
 590 187 l 2,1740,1741
 589 188 589 188 589 188 c 129,-1,1742
 589 188 589 188 589 188.5 c 128,-1,1743
 589 189 589 189 589 189 c 129,-1,1744
 589 189 589 189 588.5 189.5 c 128,-1,1745
 588 190 588 190 588 190 c 129,-1,1746
 588 190 588 190 587.5 190.5 c 128,-1,1747
 587 191 587 191 587 191.5 c 128,-1,1748
 587 192 587 192 587 192.5 c 128,-1,1749
 587 193 587 193 586.5 193.5 c 128,-1,1750
 586 194 586 194 586 194 c 129,-1,1751
 586 194 586 194 586 194.5 c 128,-1,1752
 586 195 586 195 586 195 c 129,-1,1753
 586 195 586 195 586 196.5 c 128,-1,1754
 586 198 586 198 586 198 c 129,-1,1755
 586 198 586 198 586 208 c 2,1756,-1
 586 220 l 1,1757,1758
 586 220 586 220 586 221 c 128,-1,1759
 586 222 586 222 586 222.5 c 128,-1,1760
 586 223 586 223 586 223.5 c 128,-1,1761
 586 224 586 224 586 224.5 c 128,-1,1762
 586 225 586 225 585.5 225 c 128,-1,1763
 585 225 585 225 585 225.5 c 128,-1,1540
 585 226 585 226 585 226 c 129,-1,1541
545 215 m 0,1764,1765
 542 214 542 214 540 213 c 2,1766,-1
 540 127 l 1,1767,-1
 550 127 l 1,1768,-1
 550 213 l 2,1769,1770
 549 214 549 214 545 215 c 0,1764,1765
477 215 m 1,1771,-1
 477 198 l 2,1772,1773
 477 185 477 185 483 175.5 c 128,-1,1774
 489 166 489 166 498 161 c 1,1775,-1
 498 172 l 1,1776,1777
 494 175 494 175 491 181.5 c 128,-1,1778
 488 188 488 188 488 198 c 2,1779,-1
 488 205 l 1,1780,-1
 498 205 l 1,1781,-1
 498 207 l 2,1782,1783
 498 208 498 208 498 210.5 c 128,-1,1784
 498 213 498 213 497 215 c 2,1785,-1
 477 215 l 1,1771,-1
501 215 m 1,1786,-1
 501 172 l 1,1787,-1
 506 172 l 1,1788,-1
 506 215 l 1,1789,-1
 501 215 l 1,1786,-1
509 215 m 1,1790,-1
 509 143 l 2,1791,1792
 509 133 509 133 515 125 c 128,-1,1793
 521 117 521 117 530 114 c 1,1794,-1
 530 125 l 1,1795,1796
 525 129 525 129 522.5 133 c 128,-1,1797
 520 137 520 137 520 143 c 2,1798,-1
 520 173 l 1,1799,-1
 520 186 l 1,1800,-1
 520 197 l 1,1801,-1
 520 215 l 1,1802,-1
 509 215 l 1,1790,-1
525 215 m 1,1803,-1
 525 135 l 1,1804,-1
 526 136 l 2,1805,1806
 528 137 528 137 530.5 138 c 128,-1,1807
 533 139 533 139 536 141 c 2,1808,-1
 536 209 l 1,1809,1810
 531 213 531 213 525 215 c 1,1803,-1
494 202 m 1,1811,-1
 494 193 l 1,1812,-1
 498 193 l 1,1813,-1
 498 202 l 1,1814,-1
 494 202 l 1,1811,-1
417 198 m 1,1815,-1
 417 99 l 1,1816,-1
 427 99 l 1,1817,-1
 427 198 l 1,1818,-1
 417 198 l 1,1815,-1
431 198 m 1,1819,-1
 431 99 l 1,1820,-1
 443 99 l 1,1821,-1
 443 198 l 1,1822,-1
 431 198 l 1,1819,-1
447 198 m 1,1823,-1
 447 99 l 1,1824,-1
 457 99 l 1,1825,-1
 457 197 l 1,1826,-1
 457 197 l 1,1827,-1
 457 198 l 1,1828,-1
 447 198 l 1,1823,-1
462 189 m 1,1829,-1
 462 99 l 1,1830,-1
 472 99 l 1,1831,-1
 472 183 l 1,1832,1833
 466 188 466 188 462 189 c 1,1829,-1
501 169 m 1,1834,-1
 501 127 l 1,1835,-1
 506 127 l 1,1836,-1
 506 169 l 1,1837,-1
 501 169 l 1,1834,-1
487 166 m 1,1838,1839
 481 164 481 164 476 161 c 1,1840,-1
 476 138 l 1,1841,-1
 487 138 l 1,1842,-1
 487 166 l 1,1843,-1
 487 166 l 1,1838,1839
497.5 149 m 128,-1,1845
 497 149 497 149 496.5 148 c 128,-1,1846
 496 147 496 147 496 147 c 129,-1,1847
 496 147 496 147 496 145 c 0,1848,1849
 496 142 496 142 496 142 c 2,1850,1851
 496 140 496 140 496 139 c 256,1852,1853
 496 138 496 138 496 136.5 c 128,-1,1854
 496 135 496 135 496 134 c 2,1855,1856
 496 134 496 134 496 130.5 c 128,-1,1857
 496 127 496 127 496 127 c 257,1858,1859
 496 127 496 127 496 125 c 2,1860,-1
 496 124 l 2,1861,1862
 496 123 496 123 496 121 c 0,1863,1864
 496 118 496 118 496 117.5 c 128,-1,1865
 496 117 496 117 496 116.5 c 128,-1,1866
 496 116 496 116 496 115.5 c 128,-1,1867
 496 115 496 115 496.5 114.5 c 128,-1,1868
 497 114 497 114 497 113.5 c 128,-1,1869
 497 113 497 113 497.5 112 c 128,-1,1870
 498 111 498 111 498 111 c 129,-1,1871
 498 111 498 111 499 110 c 0,1872,1873
 499 109 499 109 499 109 c 129,-1,1874
 499 109 499 109 499 109 c 129,-1,1875
 499 109 499 109 499 109 c 1,1876,-1
 499 109 l 1,1877,1878
 499 108 499 108 500.5 107 c 128,-1,1879
 502 106 502 106 502.5 105.5 c 128,-1,1880
 503 105 503 105 503.5 104.5 c 128,-1,1881
 504 104 504 104 504.5 104 c 128,-1,1882
 505 104 505 104 506 103.5 c 128,-1,1883
 507 103 507 103 507 102.5 c 128,-1,1884
 507 102 507 102 507.5 102 c 128,-1,1885
 508 102 508 102 508.5 102 c 128,-1,1886
 509 102 509 102 510 102 c 128,-1,1887
 511 102 511 102 511 102 c 129,-1,1888
 511 102 511 102 511 101.5 c 128,-1,1889
 511 101 511 101 512.5 101 c 128,-1,1890
 514 101 514 101 515 101 c 256,1891,1892
 516 101 516 101 517 101 c 256,1893,1894
 518 101 518 101 518.5 101 c 128,-1,1895
 519 101 519 101 519 101 c 129,-1,1896
 519 101 519 101 521 101 c 0,1897,1898
 522 101 522 101 523 101 c 256,1899,1900
 524 101 524 101 524 101 c 129,-1,1901
 524 101 524 101 529 101 c 0,1902,1903
 535 101 535 101 545 101 c 0,1904,1905
 556 101 556 101 556.5 101 c 128,-1,1906
 557 101 557 101 557 101 c 129,-1,1907
 557 101 557 101 557 101 c 129,-1,1908
 557 101 557 101 560.5 101 c 128,-1,1909
 564 101 564 101 564.5 101 c 128,-1,1910
 565 101 565 101 565 101 c 129,-1,1911
 565 101 565 101 567 101 c 0,1912,1913
 568 101 568 101 569 101 c 2,1914,1915
 569 101 569 101 572 101 c 256,1916,1917
 575 101 575 101 577 101 c 128,-1,1918
 579 101 579 101 580.5 101.5 c 128,-1,1919
 582 102 582 102 582 102 c 129,-1,1920
 582 102 582 102 582.5 102 c 128,-1,1921
 583 102 583 102 583.5 102.5 c 128,-1,1922
 584 103 584 103 585 103 c 128,-1,1923
 586 103 586 103 586.5 103.5 c 128,-1,1924
 587 104 587 104 587 104.5 c 128,-1,1925
 587 105 587 105 587.5 104.5 c 128,-1,1926
 588 104 588 104 588.5 104.5 c 128,-1,1927
 589 105 589 105 589.5 105.5 c 128,-1,1928
 590 106 590 106 590 106 c 129,-1,1929
 590 106 590 106 590.5 106.5 c 128,-1,1930
 591 107 591 107 591.5 108 c 128,-1,1931
 592 109 592 109 592.5 109.5 c 128,-1,1932
 593 110 593 110 593.5 111.5 c 128,-1,1933
 594 113 594 113 595 113 c 1,1934,1935
 595 114 595 114 595 114 c 129,-1,1936
 595 114 595 114 595 114 c 129,-1,1937
 595 114 595 114 595 114.5 c 128,-1,1938
 595 115 595 115 595 115 c 129,-1,1939
 595 115 595 115 595 115.5 c 128,-1,1940
 595 116 595 116 595.5 117.5 c 128,-1,1941
 596 119 596 119 596 119 c 2,1942,1943
 596 120 596 120 596 121 c 128,-1,1944
 596 122 596 122 596 122 c 129,-1,1945
 596 122 596 122 596 122 c 129,-1,1946
 596 122 596 122 596 122.5 c 128,-1,1947
 596 123 596 123 596 127 c 0,1948,1949
 596 128 596 128 596 130.5 c 128,-1,1950
 596 133 596 133 596 134 c 0,1951,1952
 596 138 596 138 595.5 138.5 c 128,-1,1953
 595 139 595 139 595 139.5 c 128,-1,1954
 595 140 595 140 594.5 140 c 128,-1,1955
 594 140 594 140 594 140 c 129,-1,1956
 594 140 594 140 594 137.5 c 128,-1,1957
 594 135 594 135 594 134 c 128,-1,1958
 594 133 594 133 594 132.5 c 128,-1,1959
 594 132 594 132 594 132 c 129,-1,1960
 594 132 594 132 594 131.5 c 128,-1,1961
 594 131 594 131 594 129 c 2,1962,1963
 594 129 594 129 594 127.5 c 128,-1,1964
 594 126 594 126 594 125 c 256,1965,1966
 594 124 594 124 594 123.5 c 128,-1,1967
 594 123 594 123 594 123 c 129,-1,1968
 594 123 594 123 594 123 c 129,-1,1969
 594 123 594 123 594 121.5 c 128,-1,1970
 594 120 594 120 594 119.5 c 128,-1,1971
 594 119 594 119 594 119 c 129,-1,1972
 594 119 594 119 593.5 118 c 128,-1,1973
 593 117 593 117 593 115.5 c 128,-1,1974
 593 114 593 114 592 112.5 c 128,-1,1975
 591 111 591 111 591 111 c 129,-1,1976
 591 111 591 111 590.5 110.5 c 128,-1,1977
 590 110 590 110 590 110 c 129,-1,1978
 590 110 590 110 590 109.5 c 128,-1,1979
 590 109 590 109 589.5 109 c 128,-1,1980
 589 109 589 109 589 109 c 129,-1,1981
 589 109 589 109 589 108.5 c 128,-1,1982
 589 108 589 108 588.5 107.5 c 128,-1,1983
 588 107 588 107 588 107 c 129,-1,1984
 588 107 588 107 587.5 106.5 c 128,-1,1985
 587 106 587 106 586.5 106 c 128,-1,1986
 586 106 586 106 586 106 c 129,-1,1987
 586 106 586 106 585.5 106 c 128,-1,1988
 585 106 585 106 585 105.5 c 128,-1,1989
 585 105 585 105 584 105 c 128,-1,1990
 583 105 583 105 582.5 104.5 c 128,-1,1991
 582 104 582 104 581.5 104 c 128,-1,1992
 581 104 581 104 581 104 c 129,-1,1993
 581 104 581 104 580.5 104 c 128,-1,1994
 580 104 580 104 580 104 c 129,-1,1995
 580 104 580 104 579.5 104 c 128,-1,1996
 579 104 579 104 577.5 103.5 c 128,-1,1997
 576 103 576 103 566 103 c 0,1998,1999
 564 103 564 103 561.5 103 c 128,-1,2000
 559 103 559 103 558 103 c 128,-1,2001
 557 103 557 103 557 103 c 1,2002,-1
 554 103 l 2,2003,2004
 553 103 553 103 549 103 c 0,2005,2006
 546 103 546 103 543 103 c 128,-1,2007
 540 103 540 103 539.5 103 c 128,-1,2008
 539 103 539 103 538 103 c 128,-1,2009
 537 103 537 103 537 103 c 129,-1,2010
 537 103 537 103 537 103 c 129,-1,2011
 537 103 537 103 535 103 c 128,-1,2012
 533 103 533 103 532.5 103 c 128,-1,2013
 532 103 532 103 531 103 c 128,-1,2014
 530 103 530 103 528 103 c 0,2015,2016
 527 103 527 103 524 103 c 0,2017,2018
 522 103 522 103 518.5 103 c 128,-1,2019
 515 103 515 103 514 103 c 128,-1,2020
 513 103 513 103 512.5 103.5 c 128,-1,2021
 512 104 512 104 511 104 c 128,-1,2022
 510 104 510 104 510 104.5 c 128,-1,2023
 510 105 510 105 509 105 c 128,-1,2024
 508 105 508 105 508 105 c 1,2025,-1
 507 105 l 1,2026,2027
 507 105 507 105 506 106 c 0,2028,2029
 504 107 504 107 504 107 c 129,-1,2030
 504 107 504 107 503 108 c 2,2031,-1
 502 109 l 1,2032,2033
 502 109 502 109 502 109.5 c 128,-1,2034
 502 110 502 110 501.5 110 c 128,-1,2035
 501 110 501 110 501 110.5 c 128,-1,2036
 501 111 501 111 500.5 111.5 c 128,-1,2037
 500 112 500 112 500 112 c 129,-1,2038
 500 112 500 112 500 112.5 c 128,-1,2039
 500 113 500 113 499.5 113.5 c 128,-1,2040
 499 114 499 114 498.5 115.5 c 128,-1,2041
 498 117 498 117 498 117 c 257,2042,2043
 498 117 498 117 498 117.5 c 128,-1,2044
 498 118 498 118 498 118 c 129,-1,2045
 498 118 498 118 498 118.5 c 128,-1,2046
 498 119 498 119 498 119 c 2,2047,2048
 498 120 498 120 498 122 c 2,2049,2050
 498 122 498 122 498 122.5 c 128,-1,2051
 498 123 498 123 497.5 123.5 c 128,-1,2052
 497 124 497 124 497 124 c 129,-1,2053
 497 124 497 124 497 124 c 1,2054,-1
 497 124 l 1,2055,2056
 498 124 498 124 498 136 c 0,2057,2058
 498 141 498 141 498 148 c 0,2059,1844
 498 149 498 149 497.5 149 c 128,-1,1845
535 124 m 1,2060,-1
 554 124 l 1,2061,-1
 554 113 l 1,2062,-1
 535 113 l 1,2063,-1
 535 124 l 1,2060,-1
558 124 m 1,2064,-1
 570 124 l 1,2065,-1
 570 113 l 1,2066,-1
 558 113 l 1,2067,-1
 558 124 l 1,2064,-1
EndSplineSet
EndChar

StartChar: c
Encoding: 99 99 70
Width: 2048
GlyphClass: 2
Flags: W
LayerCount: 2
Fore
SplineSet
1840 816 m 1,0,1
 1824 480 1824 480 1624 240 c 128,-1,2
 1424 0 1424 0 1072 0 c 0,3,4
 688 0 688 0 464 304 c 128,-1,5
 240 608 240 608 240 1168 c 0,6,7
 240 1760 240 1760 480 2056 c 128,-1,8
 720 2352 720 2352 992 2352 c 2,9,-1
 1168 2352 l 2,10,11
 1424 2352 1424 2352 1632 2128 c 128,-1,12
 1840 1904 1840 1904 1840 1552 c 1,13,-1
 1536 1552 l 1,14,15
 1504 1840 1504 1840 1376 1952 c 128,-1,16
 1248 2064 1248 2064 1072 2064 c 0,17,18
 832 2064 832 2064 680 1832 c 128,-1,19
 528 1600 528 1600 528 1184 c 0,20,21
 528 720 528 720 688 512 c 128,-1,22
 848 304 848 304 1072 304 c 0,23,24
 1248 304 1248 304 1376 456 c 128,-1,25
 1504 608 1504 608 1520 816 c 1,26,-1
 1840 816 l 1,0,1
EndSplineSet
EndChar

StartChar: d
Encoding: 100 100 71
Width: 2032
GlyphClass: 2
Flags: W
LayerCount: 2
Fore
SplineSet
1712 0 m 1,0,-1
 1440 0 l 1,1,-1
 1440 128 l 1,2,3
 1264 0 1264 0 1008 0 c 0,4,5
 240 0 240 0 240 1088 c 2,6,-1
 240 1248 l 2,7,8
 240 1856 240 1856 416 2104 c 128,-1,9
 592 2352 592 2352 864 2352 c 2,10,-1
 1008 2352 l 2,11,12
 1216 2352 1216 2352 1440 2192 c 1,13,-1
 1440 3248 l 1,14,-1
 1712 3248 l 1,15,-1
 1712 0 l 1,0,-1
1440 464 m 1,16,-1
 1440 1872 l 1,17,18
 1200 2064 1200 2064 992 2064 c 0,19,20
 720 2064 720 2064 624 1840 c 128,-1,21
 528 1616 528 1616 528 1248 c 2,22,-1
 528 1088 l 2,23,24
 528 288 528 288 1008 288 c 0,25,26
 1232 288 1232 288 1440 464 c 1,16,-1
EndSplineSet
EndChar

StartChar: e
Encoding: 101 101 72
Width: 2048
GlyphClass: 2
Flags: W
LayerCount: 2
Fore
SplineSet
528 1056 m 1,0,1
 544 720 544 720 680 512 c 128,-1,2
 816 304 816 304 1104 288 c 1,3,4
 1248 288 1248 288 1336 344 c 128,-1,5
 1424 400 1424 400 1472 496 c 1,6,-1
 1792 496 l 1,7,8
 1728 256 1728 256 1536 128 c 128,-1,9
 1344 0 1344 0 1104 0 c 0,10,11
 704 0 704 0 472 296 c 128,-1,12
 240 592 240 592 240 1056 c 2,13,-1
 240 1328 l 2,14,15
 240 1856 240 1856 448 2104 c 128,-1,16
 656 2352 656 2352 928 2352 c 2,17,-1
 1120 2352 l 2,18,19
 1376 2352 1376 2352 1592 2104 c 128,-1,20
 1808 1856 1808 1856 1808 1328 c 2,21,-1
 1808 1056 l 1,22,-1
 528 1056 l 1,0,1
1504 1328 m 1,23,24
 1520 1728 1520 1728 1392 1904 c 128,-1,25
 1264 2080 1264 2080 1024 2080 c 0,26,27
 816 2080 816 2080 672 1888 c 128,-1,28
 528 1696 528 1696 528 1328 c 1,29,-1
 1504 1328 l 1,23,24
EndSplineSet
EndChar

StartChar: f
Encoding: 102 102 73
Width: 1248
GlyphClass: 2
Flags: W
LayerCount: 2
Fore
SplineSet
1104 3248 m 1,0,-1
 1104 2976 l 1,1,-1
 768 2976 l 2,2,3
 672 2976 672 2976 640 2944 c 128,-1,4
 608 2912 608 2912 608 2832 c 2,5,-1
 608 2352 l 1,6,-1
 1104 2352 l 1,7,-1
 1104 2080 l 1,8,-1
 608 2080 l 1,9,-1
 608 0 l 1,10,-1
 320 0 l 1,11,-1
 320 2080 l 1,12,-1
 48 2080 l 1,13,-1
 48 2352 l 1,14,-1
 320 2352 l 1,15,-1
 320 2832 l 2,16,17
 320 3056 320 3056 424 3152 c 128,-1,18
 528 3248 528 3248 768 3248 c 2,19,-1
 1104 3248 l 1,0,-1
EndSplineSet
EndChar

StartChar: g
Encoding: 103 103 74
Width: 1888
GlyphClass: 2
Flags: W
LayerCount: 2
Fore
SplineSet
288 -160 m 1,0,1
 576 -256 576 -256 808 -256 c 128,-1,2
 1040 -256 1040 -256 1160 -128 c 128,-1,3
 1280 0 1280 0 1280 224 c 1,4,5
 1072 80 1072 80 880 80 c 0,6,7
 240 80 240 80 240 1072 c 2,8,-1
 240 1312 l 2,9,10
 240 1888 240 1888 392 2120 c 128,-1,11
 544 2352 544 2352 752 2352 c 2,12,-1
 928 2352 l 2,13,14
 1088 2352 1088 2352 1280 2208 c 1,15,-1
 1280 2352 l 1,16,-1
 1568 2352 l 1,17,-1
 1568 368 l 2,18,19
 1568 -144 1568 -144 1376 -360 c 128,-1,20
 1184 -576 1184 -576 864 -576 c 0,21,22
 560 -576 560 -576 288 -512 c 1,23,-1
 288 -160 l 1,0,1
528 1072 m 2,24,25
 528 368 528 368 880 368 c 0,26,27
 1072 368 1072 368 1280 528 c 1,28,-1
 1280 1920 l 1,29,30
 1072 2064 1072 2064 880 2064 c 0,31,32
 528 2064 528 2064 528 1312 c 2,33,-1
 528 1072 l 2,24,25
EndSplineSet
EndChar

StartChar: h
Encoding: 104 104 75
Width: 2048
GlyphClass: 2
Flags: W
LayerCount: 2
Fore
SplineSet
1728 0 m 1,0,-1
 1424 0 l 1,1,-1
 1424 1808 l 2,2,3
 1424 1952 1424 1952 1360 2008 c 128,-1,4
 1296 2064 1296 2064 1136 2064 c 0,5,6
 1008 2064 1008 2064 888 2000 c 128,-1,7
 768 1936 768 1936 608 1760 c 1,8,-1
 608 0 l 1,9,-1
 320 0 l 1,10,-1
 320 3248 l 1,11,-1
 608 3248 l 1,12,-1
 608 2080 l 1,13,14
 688 2176 688 2176 832 2264 c 128,-1,15
 976 2352 976 2352 1120 2352 c 2,16,-1
 1264 2352 l 2,17,18
 1472 2352 1472 2352 1600 2216 c 128,-1,19
 1728 2080 1728 2080 1728 1856 c 2,20,-1
 1728 0 l 1,0,-1
EndSplineSet
EndChar

StartChar: i
Encoding: 105 105 76
Width: 864
GlyphClass: 2
Flags: W
LayerCount: 2
Fore
SplineSet
592 0 m 1,0,-1
 288 0 l 1,1,-1
 288 2352 l 1,2,-1
 592 2352 l 1,3,-1
 592 0 l 1,0,-1
592 2720 m 1,4,-1
 288 2720 l 1,5,-1
 288 3248 l 1,6,-1
 592 3248 l 1,7,-1
 592 2720 l 1,4,-1
EndSplineSet
EndChar

StartChar: j
Encoding: 106 106 77
Width: 896
GlyphClass: 2
Flags: W
LayerCount: 2
Fore
SplineSet
592 2720 m 1,0,-1
 304 2720 l 1,1,-1
 304 3248 l 1,2,-1
 592 3248 l 1,3,-1
 592 2720 l 1,0,-1
592 2352 m 1,4,-1
 592 -80 l 2,5,6
 592 -576 592 -576 224 -576 c 2,7,-1
 0 -576 l 1,8,-1
 0 -272 l 1,9,-1
 128 -272 l 2,10,11
 304 -272 304 -272 304 -80 c 2,12,-1
 304 2352 l 1,13,-1
 592 2352 l 1,4,-1
EndSplineSet
EndChar

StartChar: k
Encoding: 107 107 78
Width: 1888
GlyphClass: 2
Flags: W
LayerCount: 2
Fore
SplineSet
608 0 m 1,0,-1
 320 0 l 1,1,-1
 320 3248 l 1,2,-1
 608 3248 l 1,3,-1
 608 1383 l 1,4,-1
 1376 2352 l 1,5,-1
 1744 2352 l 1,6,-1
 1027 1489 l 1,7,-1
 1744 0 l 1,8,-1
 1392 0 l 1,9,-1
 828 1249 l 1,10,-1
 608 984 l 1,11,-1
 608 0 l 1,0,-1
EndSplineSet
EndChar

StartChar: l
Encoding: 108 108 79
Width: 864
GlyphClass: 2
Flags: W
LayerCount: 2
Fore
SplineSet
784 0 m 1,0,-1
 656 0 l 2,1,2
 288 0 288 0 288 368 c 2,3,-1
 288 3248 l 1,4,-1
 592 3248 l 1,5,-1
 592 368 l 2,6,7
 592 288 592 288 656 288 c 2,8,-1
 784 288 l 1,9,-1
 784 0 l 1,0,-1
EndSplineSet
EndChar

StartChar: m
Encoding: 109 109 80
Width: 3008
GlyphClass: 2
Flags: W
LayerCount: 2
Fore
SplineSet
2688 0 m 1,0,-1
 2384 0 l 1,1,-1
 2384 1792 l 2,2,3
 2384 1952 2384 1952 2304 2016 c 128,-1,4
 2224 2080 2224 2080 2048 2080 c 0,5,6
 1808 2080 1808 2080 1632 1904 c 1,7,-1
 1632 0 l 1,8,-1
 1344 0 l 1,9,-1
 1344 1792 l 2,10,11
 1344 1968 1344 1968 1240 2024 c 128,-1,12
 1136 2080 1136 2080 992 2080 c 0,13,14
 736 2080 736 2080 608 1904 c 1,15,-1
 608 0 l 1,16,-1
 320 0 l 1,17,-1
 320 2352 l 1,18,-1
 608 2352 l 1,19,-1
 608 2192 l 1,20,21
 752 2352 752 2352 992 2352 c 2,22,-1
 1136 2352 l 2,23,24
 1264 2352 1264 2352 1368 2296 c 128,-1,25
 1472 2240 1472 2240 1552 2144 c 1,26,27
 1760 2352 1760 2352 2048 2352 c 2,28,-1
 2224 2352 l 2,29,30
 2384 2352 2384 2352 2536 2224 c 128,-1,31
 2688 2096 2688 2096 2688 1792 c 2,32,-1
 2688 0 l 1,0,-1
EndSplineSet
EndChar

StartChar: n
Encoding: 110 110 81
Width: 2048
GlyphClass: 2
Flags: W
LayerCount: 2
Fore
SplineSet
1728 0 m 1,0,-1
 1440 0 l 1,1,-1
 1440 1792 l 2,2,3
 1440 1984 1440 1984 1352 2032 c 128,-1,4
 1264 2080 1264 2080 1120 2080 c 0,5,6
 944 2080 944 2080 824 1992 c 128,-1,7
 704 1904 704 1904 608 1760 c 1,8,-1
 608 0 l 1,9,-1
 320 0 l 1,10,-1
 320 2352 l 1,11,-1
 608 2352 l 1,12,-1
 608 2080 l 1,13,14
 672 2176 672 2176 744 2232 c 128,-1,15
 816 2288 816 2288 888 2320 c 128,-1,16
 960 2352 960 2352 1104 2352 c 2,17,-1
 1280 2352 l 2,18,19
 1456 2352 1456 2352 1592 2224 c 128,-1,20
 1728 2096 1728 2096 1728 1856 c 2,21,-1
 1728 0 l 1,0,-1
EndSplineSet
EndChar

StartChar: o
Encoding: 111 111 82
Width: 2080
GlyphClass: 2
Flags: W
LayerCount: 2
Fore
SplineSet
1152 2352 m 2,0,1
 1408 2352 1408 2352 1624 2056 c 128,-1,2
 1840 1760 1840 1760 1840 1232 c 2,3,-1
 1840 1136 l 2,4,5
 1840 640 1840 640 1624 320 c 128,-1,6
 1408 0 1408 0 1040 0 c 0,7,8
 656 0 656 0 448 328 c 128,-1,9
 240 656 240 656 240 1136 c 2,10,-1
 240 1232 l 2,11,12
 240 1744 240 1744 448 2048 c 128,-1,13
 656 2352 656 2352 944 2352 c 2,14,-1
 1152 2352 l 2,0,1
528 1232 m 2,15,-1
 528 1136 l 2,16,17
 528 784 528 784 672 544 c 128,-1,18
 816 304 816 304 1040 304 c 256,19,20
 1264 304 1264 304 1400 528 c 128,-1,21
 1536 752 1536 752 1536 1136 c 2,22,-1
 1536 1232 l 2,23,24
 1536 1600 1536 1600 1400 1832 c 128,-1,25
 1264 2064 1264 2064 1040 2064 c 0,26,27
 800 2064 800 2064 664 1848 c 128,-1,28
 528 1632 528 1632 528 1232 c 2,15,-1
EndSplineSet
EndChar

StartChar: p
Encoding: 112 112 83
Width: 2032
GlyphClass: 2
Flags: W
LayerCount: 2
Fore
SplineSet
608 2176 m 1,0,1
 832 2352 832 2352 976 2352 c 2,2,-1
 1136 2352 l 2,3,4
 1392 2352 1392 2352 1592 2104 c 128,-1,5
 1792 1856 1792 1856 1792 1232 c 2,6,-1
 1792 1104 l 2,7,8
 1792 0 1792 0 1056 0 c 0,9,10
 800 0 800 0 608 128 c 1,11,-1
 608 -576 l 1,12,-1
 320 -576 l 1,13,-1
 320 2352 l 1,14,-1
 608 2352 l 1,15,-1
 608 2176 l 1,0,1
608 1856 m 1,16,-1
 608 464 l 1,17,18
 816 288 816 288 1056 288 c 1,19,20
 1504 304 1504 304 1504 1104 c 2,21,-1
 1504 1232 l 2,22,23
 1504 1696 1504 1696 1376 1880 c 128,-1,24
 1248 2064 1248 2064 1056 2064 c 0,25,26
 816 2064 816 2064 608 1856 c 1,16,-1
EndSplineSet
EndChar

StartChar: q
Encoding: 113 113 84
Width: 2032
GlyphClass: 2
Flags: W
LayerCount: 2
Fore
SplineSet
1712 -576 m 1,0,-1
 1424 -576 l 1,1,-1
 1424 128 l 1,2,3
 1184 0 1184 0 944 0 c 1,4,5
 240 -16 240 -16 240 1008 c 2,6,-1
 240 1248 l 2,7,8
 240 1856 240 1856 416 2104 c 128,-1,9
 592 2352 592 2352 848 2352 c 2,10,-1
 1040 2352 l 2,11,12
 1200 2352 1200 2352 1424 2224 c 1,13,-1
 1424 2352 l 1,14,-1
 1712 2352 l 1,15,-1
 1712 -576 l 1,0,-1
1424 432 m 1,16,-1
 1424 1920 l 1,17,18
 1200 2064 1200 2064 928 2064 c 1,19,20
 784 2080 784 2080 656 1912 c 128,-1,21
 528 1744 528 1744 528 1248 c 2,22,-1
 528 1008 l 2,23,24
 528 288 528 288 944 288 c 0,25,26
 1184 288 1184 288 1424 432 c 1,16,-1
EndSplineSet
EndChar

StartChar: r
Encoding: 114 114 85
Width: 1424
GlyphClass: 2
Flags: W
LayerCount: 2
Fore
SplineSet
1344 2080 m 1,0,-1
 1120 2080 l 2,1,2
 1024 2080 1024 2080 880 2032 c 128,-1,3
 736 1984 736 1984 608 1824 c 1,4,-1
 608 0 l 1,5,-1
 320 0 l 1,6,-1
 320 2352 l 1,7,-1
 608 2352 l 1,8,-1
 608 2128 l 1,9,10
 720 2240 720 2240 856 2296 c 128,-1,11
 992 2352 992 2352 1120 2352 c 2,12,-1
 1344 2352 l 1,13,-1
 1344 2080 l 1,0,-1
EndSplineSet
EndChar

StartChar: s
Encoding: 115 115 86
Width: 1888
GlyphClass: 2
Flags: W
LayerCount: 2
Fore
SplineSet
912 2064 m 0,0,1
 720 2064 720 2064 624 1976 c 128,-1,2
 528 1888 528 1888 528 1744 c 0,3,4
 528 1568 528 1568 624 1464 c 128,-1,5
 720 1360 720 1360 896 1328 c 1,6,-1
 1024 1296 l 2,7,8
 1232 1248 1232 1248 1360 1160 c 128,-1,9
 1488 1072 1488 1072 1560 936 c 128,-1,10
 1632 800 1632 800 1632 592 c 0,11,12
 1632 304 1632 304 1456 152 c 128,-1,13
 1280 0 1280 0 976 0 c 256,14,15
 672 0 672 0 472 176 c 128,-1,16
 272 352 272 352 240 720 c 1,17,-1
 544 720 l 1,18,19
 576 496 576 496 688 392 c 128,-1,20
 800 288 800 288 976 288 c 0,21,22
 1168 288 1168 288 1256 368 c 128,-1,23
 1344 448 1344 448 1344 592 c 0,24,25
 1344 704 1344 704 1320 776 c 128,-1,26
 1296 848 1296 848 1216 920 c 128,-1,27
 1136 992 1136 992 1008 1008 c 1,28,-1
 880 1040 l 1,29,30
 672 1072 672 1072 456 1232 c 128,-1,31
 240 1392 240 1392 240 1744 c 0,32,33
 240 2016 240 2016 416 2184 c 128,-1,34
 592 2352 592 2352 816 2352 c 2,35,-1
 992 2352 l 2,36,37
 1232 2352 1232 2352 1424 2168 c 128,-1,38
 1616 1984 1616 1984 1632 1648 c 1,39,-1
 1328 1648 l 1,40,41
 1312 1840 1312 1840 1192 1952 c 128,-1,42
 1072 2064 1072 2064 912 2064 c 0,0,1
EndSplineSet
EndChar

StartChar: t
Encoding: 116 116 87
Width: 1440
GlyphClass: 2
Flags: W
LayerCount: 2
Fore
SplineSet
720 0 m 2,0,1
 320 0 320 0 320 416 c 2,2,-1
 320 2080 l 1,3,-1
 80 2080 l 1,4,-1
 80 2352 l 1,5,-1
 320 2352 l 1,6,-1
 320 3104 l 1,7,-1
 608 3104 l 1,8,-1
 608 2352 l 1,9,-1
 1200 2352 l 1,10,-1
 1200 2080 l 1,11,-1
 608 2080 l 1,12,-1
 608 416 l 2,13,14
 608 288 608 288 720 288 c 2,15,-1
 1200 288 l 1,16,-1
 1200 0 l 1,17,-1
 720 0 l 2,0,1
EndSplineSet
EndChar

StartChar: u
Encoding: 117 117 88
Width: 2048
GlyphClass: 2
Flags: W
LayerCount: 2
Fore
SplineSet
1728 0 m 1,0,-1
 1424 0 l 1,1,-1
 1424 208 l 1,2,3
 1200 0 1200 0 880 0 c 0,4,5
 624 0 624 0 472 120 c 128,-1,6
 320 240 320 240 320 528 c 2,7,-1
 320 2352 l 1,8,-1
 624 2352 l 1,9,-1
 624 544 l 2,10,11
 624 288 624 288 896 288 c 0,12,13
 1184 288 1184 288 1424 576 c 1,14,-1
 1424 2352 l 1,15,-1
 1728 2352 l 1,16,-1
 1728 0 l 1,0,-1
EndSplineSet
EndChar

StartChar: v
Encoding: 118 118 89
Width: 1952
GlyphClass: 2
Flags: W
LayerCount: 2
Fore
SplineSet
1760 2352 m 1,0,-1
 1200 0 l 1,1,-1
 784 0 l 1,2,-1
 160 2352 l 1,3,-1
 512 2352 l 1,4,-1
 992 400 l 1,5,-1
 1424 2352 l 1,6,-1
 1760 2352 l 1,0,-1
EndSplineSet
EndChar

StartChar: w
Encoding: 119 119 90
Width: 2656
GlyphClass: 2
Flags: W
LayerCount: 2
Fore
SplineSet
2512 2352 m 1,0,-1
 2096 0 l 1,1,-1
 1632 0 l 1,2,-1
 1344 1984 l 1,3,-1
 1040 0 l 1,4,-1
 576 0 l 1,5,-1
 160 2352 l 1,6,-1
 480 2352 l 1,7,-1
 800 368 l 1,8,-1
 1136 2352 l 1,9,-1
 1568 2352 l 1,10,-1
 1856 368 l 1,11,-1
 2192 2352 l 1,12,-1
 2512 2352 l 1,0,-1
EndSplineSet
EndChar

StartChar: x
Encoding: 120 120 91
Width: 1888
GlyphClass: 2
Flags: W
LayerCount: 2
Fore
SplineSet
512 0 m 1,0,-1
 160 0 l 1,1,-1
 764 1184 l 1,2,-1
 176 2352 l 1,3,-1
 512 2352 l 1,4,-1
 936 1521 l 1,5,-1
 1360 2352 l 1,6,-1
 1696 2352 l 1,7,-1
 1108 1184 l 1,8,-1
 1712 0 l 1,9,-1
 1360 0 l 1,10,-1
 936 842 l 1,11,-1
 512 0 l 1,0,-1
EndSplineSet
EndChar

StartChar: y
Encoding: 121 121 92
Width: 1952
GlyphClass: 2
Flags: W
LayerCount: 2
Fore
SplineSet
1792 2352 m 1,0,-1
 784 -576 l 1,1,-1
 464 -576 l 1,2,-1
 843 526 l 1,3,-1
 160 2352 l 1,4,-1
 480 2352 l 1,5,-1
 995 966 l 1,6,-1
 1472 2352 l 1,7,-1
 1792 2352 l 1,0,-1
EndSplineSet
EndChar

StartChar: z
Encoding: 122 122 93
Width: 1872
GlyphClass: 2
Flags: W
LayerCount: 2
Fore
SplineSet
1696 0 m 1,0,-1
 160 0 l 1,1,-1
 160 288 l 1,2,-1
 1360 2080 l 1,3,-1
 160 2080 l 1,4,-1
 160 2352 l 1,5,-1
 1696 2352 l 1,6,-1
 1696 2080 l 1,7,-1
 528 288 l 1,8,-1
 1696 288 l 1,9,-1
 1696 0 l 1,0,-1
EndSplineSet
EndChar

StartChar: braceleft
Encoding: 123 123 94
Width: 960
GlyphClass: 2
Flags: W
LayerCount: 2
Fore
SplineSet
880 -432 m 1,0,1
 272 -432 272 -432 272 128 c 2,2,-1
 272 1024 l 1,3,4
 304 1360 304 1360 64 1408 c 1,5,-1
 64 1568 l 1,6,7
 320 1600 320 1600 272 1952 c 1,8,-1
 272 2768 l 2,9,10
 272 3344 272 3344 880 3344 c 1,11,-1
 880 3136 l 1,12,13
 560 3136 560 3136 560 2768 c 2,14,-1
 560 1952 l 2,15,16
 560 1616 560 1616 320 1488 c 1,17,18
 560 1344 560 1344 560 1024 c 2,19,-1
 560 128 l 2,20,21
 560 -240 560 -240 880 -240 c 1,22,-1
 880 -432 l 1,0,1
EndSplineSet
EndChar

StartChar: bar
Encoding: 124 124 95
Width: 960
GlyphClass: 2
Flags: W
LayerCount: 2
Fore
SplineSet
624 -352 m 1,0,-1
 336 -352 l 1,1,-1
 336 3328 l 1,2,-1
 624 3328 l 1,3,-1
 624 -352 l 1,0,-1
EndSplineSet
EndChar

StartChar: braceright
Encoding: 125 125 96
Width: 960
GlyphClass: 2
Flags: W
LayerCount: 2
Fore
SplineSet
80 3344 m 1,0,1
 704 3344 704 3344 704 2784 c 2,2,-1
 704 1888 l 1,3,4
 656 1552 656 1552 896 1504 c 1,5,-1
 896 1344 l 1,6,7
 656 1312 656 1312 704 960 c 1,8,-1
 704 144 l 2,9,10
 704 -432 704 -432 80 -432 c 1,11,-1
 80 -224 l 1,12,13
 400 -224 400 -224 400 144 c 2,14,-1
 400 960 l 2,15,16
 400 1296 400 1296 656 1424 c 1,17,18
 400 1568 400 1568 400 1888 c 2,19,-1
 400 2784 l 2,20,21
 400 3152 400 3152 80 3152 c 1,22,-1
 80 3344 l 1,0,1
EndSplineSet
EndChar

StartChar: asciitilde
Encoding: 126 126 97
Width: 1696
GlyphClass: 2
Flags: W
LayerCount: 2
Fore
SplineSet
1472 2880 m 1,0,1
 1248 2448 1248 2448 784 2704 c 1,2,3
 512 2896 512 2896 352 2640 c 1,4,-1
 160 2816 l 1,5,6
 384 3296 384 3296 816 3024 c 1,7,8
 1088 2800 1088 2800 1280 3088 c 1,9,-1
 1472 2880 l 1,0,1
EndSplineSet
EndChar

StartChar: exclamdown
Encoding: 161 161 99
Width: 896
GlyphClass: 2
Flags: W
LayerCount: 2
Fore
SplineSet
272 -304 m 1,0,-1
 320 2192 l 1,1,-1
 576 2192 l 1,2,-1
 624 -304 l 1,3,-1
 272 -304 l 1,0,-1
608 3248 m 1,4,-1
 608 2720 l 1,5,-1
 304 2720 l 1,6,-1
 304 3248 l 1,7,-1
 608 3248 l 1,4,-1
EndSplineSet
EndChar

StartChar: cent
Encoding: 162 162 100
Width: 2048
GlyphClass: 2
Flags: W
LayerCount: 2
Fore
SplineSet
208 1632 m 0,0,1
 208 2144 208 2144 440 2424 c 128,-1,2
 672 2704 672 2704 1008 2704 c 0,3,4
 1104 2704 1104 2704 1184 2688 c 1,5,-1
 1248 2992 l 1,6,-1
 1392 2960 l 1,7,-1
 1312 2656 l 1,8,9
 1552 2576 1552 2576 1680 2392 c 128,-1,10
 1808 2208 1808 2208 1840 1920 c 1,11,-1
 1520 1920 l 1,12,13
 1488 2096 1488 2096 1424 2216 c 128,-1,14
 1360 2336 1360 2336 1248 2368 c 1,15,-1
 896 864 l 1,16,17
 976 848 976 848 1040 848 c 0,18,19
 1216 848 1216 848 1352 952 c 128,-1,20
 1488 1056 1488 1056 1520 1248 c 1,21,-1
 1824 1248 l 1,22,23
 1792 960 1792 960 1576 760 c 128,-1,24
 1360 560 1360 560 1040 560 c 0,25,26
 928 560 928 560 832 576 c 1,27,-1
 720 80 l 1,28,-1
 576 112 l 1,29,-1
 704 640 l 1,30,31
 496 720 496 720 352 976 c 128,-1,32
 208 1232 208 1232 208 1632 c 0,0,1
1008 2400 m 2,33,34
 800 2400 800 2400 648 2216 c 128,-1,35
 496 2032 496 2032 496 1616 c 0,36,37
 496 1360 496 1360 560 1200 c 128,-1,38
 624 1040 624 1040 768 944 c 1,39,-1
 1120 2400 l 1,40,-1
 1008 2400 l 2,33,34
EndSplineSet
EndChar

StartChar: sterling
Encoding: 163 163 101
Width: 2736
GlyphClass: 2
Flags: W
LayerCount: 2
Fore
SplineSet
1888 320 m 0,0,1
 2048 320 2048 320 2152 432 c 128,-1,2
 2256 544 2256 544 2256 976 c 1,3,-1
 2592 880 l 1,4,5
 2592 336 2592 336 2408 168 c 128,-1,6
 2224 0 2224 0 1920 0 c 0,7,8
 1680 0 1680 0 1376 192 c 1,9,10
 1184 0 1184 0 720 0 c 0,11,12
 496 0 496 0 320 112 c 128,-1,13
 144 224 144 224 144 432 c 0,14,15
 144 704 144 704 304 800 c 128,-1,16
 464 896 464 896 672 896 c 0,17,18
 928 896 928 896 1232 688 c 1,19,20
 1248 752 1248 752 1248 816 c 0,21,22
 1248 1200 1248 1200 1056 1552 c 1,23,-1
 416 1552 l 1,24,-1
 416 1792 l 1,25,-1
 944 1792 l 1,26,27
 832 2016 832 2016 832 2272 c 0,28,29
 832 2656 832 2656 1016 2880 c 128,-1,30
 1200 3104 1200 3104 1568 3104 c 0,31,32
 1920 3104 1920 3104 2120 2920 c 128,-1,33
 2320 2736 2320 2736 2320 2496 c 1,34,-1
 1920 2496 l 1,35,36
 1920 2608 1920 2608 1840 2712 c 128,-1,37
 1760 2816 1760 2816 1568 2816 c 256,38,39
 1376 2816 1376 2816 1288 2656 c 128,-1,40
 1200 2496 1200 2496 1200 2272 c 256,41,42
 1200 2048 1200 2048 1328 1792 c 1,43,-1
 2128 1792 l 1,44,-1
 2128 1552 l 1,45,-1
 1472 1552 l 1,46,47
 1664 1152 1664 1152 1664 832 c 0,48,49
 1664 656 1664 656 1568 464 c 1,50,51
 1760 320 1760 320 1888 320 c 0,0,1
672 608 m 0,52,53
 480 608 480 608 480 432 c 0,54,55
 480 272 480 272 720 256 c 1,56,57
 960 256 960 256 1104 432 c 1,58,59
 880 608 880 608 672 608 c 0,52,53
EndSplineSet
EndChar

StartChar: currency
Encoding: 164 164 102
Width: 2096
GlyphClass: 2
Flags: W
LayerCount: 2
Fore
SplineSet
560 1472 m 0,0,1
 560 976 560 976 704 736 c 128,-1,2
 848 496 848 496 1056 496 c 0,3,4
 1312 496 1312 496 1432 808 c 128,-1,5
 1552 1120 1552 1120 1552 1472 c 0,6,7
 1552 1904 1552 1904 1416 2168 c 128,-1,8
 1280 2432 1280 2432 1056 2432 c 0,9,10
 816 2432 816 2432 688 2152 c 128,-1,11
 560 1872 560 1872 560 1472 c 0,0,1
368 1472 m 1,12,13
 368 1904 368 1904 512 2288 c 1,14,-1
 240 2800 l 1,15,-1
 384 3072 l 1,16,-1
 656 2544 l 1,17,18
 832 2800 832 2800 1056 2800 c 0,19,20
 1296 2800 1296 2800 1472 2528 c 1,21,-1
 1744 3056 l 1,22,-1
 1888 2816 l 1,23,-1
 1616 2272 l 1,24,25
 1744 1920 1744 1920 1728 1472 c 1,26,27
 1728 1024 1728 1024 1600 672 c 1,28,-1
 1888 112 l 1,29,-1
 1760 -128 l 1,30,-1
 1472 416 l 1,31,32
 1296 160 1296 160 1056 160 c 0,33,34
 832 160 832 160 640 400 c 1,35,-1
 384 -128 l 1,36,-1
 240 128 l 1,37,-1
 512 656 l 1,38,39
 384 976 384 976 368 1472 c 1,12,13
EndSplineSet
EndChar

StartChar: yen
Encoding: 165 165 103
Width: 2416
GlyphClass: 2
Flags: W
LayerCount: 2
Fore
SplineSet
1392 640 m 1,0,-1
 1392 0 l 1,1,-1
 1040 0 l 1,2,-1
 1040 640 l 1,3,-1
 256 640 l 1,4,-1
 256 896 l 1,5,-1
 1040 896 l 1,6,-1
 1040 1472 l 1,7,-1
 256 1472 l 1,8,-1
 256 1728 l 1,9,-1
 960 1728 l 1,10,-1
 208 3104 l 1,11,-1
 592 3104 l 1,12,-1
 1216 1952 l 1,13,-1
 1840 3104 l 1,14,-1
 2208 3104 l 1,15,-1
 1472 1728 l 1,16,-1
 2160 1728 l 1,17,-1
 2160 1472 l 1,18,-1
 1392 1472 l 1,19,-1
 1392 896 l 1,20,-1
 2160 896 l 1,21,-1
 2160 640 l 1,22,-1
 1392 640 l 1,0,-1
EndSplineSet
EndChar

StartChar: brokenbar
Encoding: 166 166 104
Width: 928
GlyphClass: 2
Flags: W
LayerCount: 2
Fore
SplineSet
384 -304 m 1,0,-1
 384 3248 l 1,1,-1
 544 3248 l 1,2,-1
 544 -304 l 1,3,-1
 384 -304 l 1,0,-1
EndSplineSet
EndChar

StartChar: section
Encoding: 167 167 105
Width: 4096
GlyphClass: 2
Flags: W
LayerCount: 2
Fore
SplineSet
1088 464 m 1,0,1
 1152 -32 1152 -32 2064 -32 c 0,2,3
 2992 -32 2992 -32 2992 336 c 0,4,5
 2992 512 2992 512 2656 632 c 128,-1,6
 2320 752 2320 752 1792 880 c 0,7,8
 1120 1040 1120 1040 888 1184 c 128,-1,9
 656 1328 656 1328 656 1584 c 0,10,11
 656 1824 656 1824 1232 2064 c 1,12,13
 800 2272 800 2272 800 2576 c 0,14,15
 800 2896 800 2896 1112 3072 c 128,-1,16
 1424 3248 1424 3248 2064 3248 c 0,17,18
 3344 3248 3344 3248 3424 2480 c 1,19,-1
 3024 2480 l 1,20,21
 3008 2960 3008 2960 2064 2960 c 0,22,23
 1232 2960 1232 2960 1232 2576 c 0,24,25
 1232 2368 1232 2368 1552 2256 c 128,-1,26
 1872 2144 1872 2144 2240 2064 c 1,27,28
 2864 1888 2864 1888 3144 1736 c 128,-1,29
 3424 1584 3424 1584 3424 1344 c 0,30,31
 3424 1056 3424 1056 2896 864 c 1,32,33
 3408 672 3408 672 3408 336 c 0,34,35
 3408 48 3408 48 3024 -128 c 128,-1,36
 2640 -304 2640 -304 2064 -304 c 0,37,38
 768 -304 768 -304 656 464 c 1,39,-1
 1088 464 l 1,0,1
1632 1936 m 1,40,41
 1072 1776 1072 1776 1072 1584 c 0,42,43
 1072 1360 1072 1360 2000 1136 c 1,44,-1
 2512 1008 l 1,45,46
 2992 1136 2992 1136 2992 1360 c 256,47,48
 2992 1584 2992 1584 2176 1792 c 1,49,-1
 1632 1936 l 1,40,41
EndSplineSet
Substitution2: "sous-table 'vert' Formes verticales alternatives (CJK) dans Hiragana & katakana lookup 0" section.vert
EndChar

StartChar: dieresis
Encoding: 168 168 106
Width: 2048
GlyphClass: 2
Flags: W
LayerCount: 2
Fore
SplineSet
288 3104 m 1,0,-1
 784 3104 l 1,1,-1
 784 2624 l 1,2,-1
 288 2624 l 1,3,-1
 288 3104 l 1,0,-1
1280 3104 m 1,4,-1
 1776 3104 l 1,5,-1
 1776 2624 l 1,6,-1
 1280 2624 l 1,7,-1
 1280 3104 l 1,4,-1
EndSplineSet
Substitution2: "sous-table 'vert' Formes verticales alternatives (CJK) dans Hiragana & katakana lookup 0" dieresis.vert
EndChar

StartChar: copyright
Encoding: 169 169 107
Width: 2736
GlyphClass: 2
Flags: W
LayerCount: 2
Fore
SplineSet
768 1456 m 0,0,1
 768 1712 768 1712 944 1912 c 128,-1,2
 1120 2112 1120 2112 1360 2112 c 0,3,4
 1568 2112 1568 2112 1712 1984 c 128,-1,5
 1856 1856 1856 1856 1904 1616 c 1,6,-1
 1696 1616 l 1,7,8
 1664 1776 1664 1776 1584 1848 c 128,-1,9
 1504 1920 1504 1920 1360 1920 c 256,10,11
 1216 1920 1216 1920 1096 1800 c 128,-1,12
 976 1680 976 1680 976 1456 c 256,13,14
 976 1232 976 1232 1088 1104 c 128,-1,15
 1200 976 1200 976 1360 976 c 0,16,17
 1504 976 1504 976 1592 1064 c 128,-1,18
 1680 1152 1680 1152 1712 1312 c 1,19,-1
 1920 1312 l 1,20,21
 1904 1088 1904 1088 1752 944 c 128,-1,22
 1600 800 1600 800 1360 800 c 256,23,24
 1120 800 1120 800 944 992 c 128,-1,25
 768 1184 768 1184 768 1456 c 0,0,1
240 1472 m 0,26,27
 240 2048 240 2048 584 2392 c 128,-1,28
 928 2736 928 2736 1360 2736 c 0,29,30
 1856 2736 1856 2736 2168 2392 c 128,-1,31
 2480 2048 2480 2048 2480 1472 c 0,32,33
 2480 944 2480 944 2168 576 c 128,-1,34
 1856 208 1856 208 1360 208 c 256,35,36
 864 208 864 208 552 576 c 128,-1,37
 240 944 240 944 240 1472 c 0,26,27
416 1472 m 1,38,39
 432 992 432 992 696 696 c 128,-1,40
 960 400 960 400 1360 400 c 256,41,42
 1760 400 1760 400 2040 704 c 128,-1,43
 2320 1008 2320 1008 2320 1472 c 256,44,45
 2320 1936 2320 1936 2040 2240 c 128,-1,46
 1760 2544 1760 2544 1360 2544 c 256,47,48
 960 2544 960 2544 688 2232 c 128,-1,49
 416 1920 416 1920 416 1472 c 1,38,39
EndSplineSet
EndChar

StartChar: ordfeminine
Encoding: 170 170 108
Width: 1456
GlyphClass: 2
Flags: W
LayerCount: 2
Fore
SplineSet
800 3248 m 2,0,1
 912 3248 912 3248 984 3144 c 128,-1,2
 1056 3040 1056 3040 1056 2864 c 2,3,-1
 1056 2352 l 1,4,-1
 1088 2112 l 1,5,-1
 944 2112 l 1,6,-1
 928 2240 l 1,7,8
 880 2176 880 2176 832 2144 c 128,-1,9
 784 2112 784 2112 688 2112 c 0,10,11
 560 2112 560 2112 496 2192 c 128,-1,12
 432 2272 432 2272 432 2400 c 0,13,14
 432 2624 432 2624 576 2728 c 128,-1,15
 720 2832 720 2832 912 2848 c 1,16,-1
 912 2928 l 2,17,18
 912 2992 912 2992 872 3056 c 128,-1,19
 832 3120 832 3120 752 3120 c 256,20,21
 672 3120 672 3120 632 3064 c 128,-1,22
 592 3008 592 3008 592 2928 c 1,23,-1
 464 2928 l 1,24,25
 464 3072 464 3072 528 3160 c 128,-1,26
 592 3248 592 3248 688 3248 c 2,27,-1
 800 3248 l 2,0,1
912 2704 m 1,28,29
 752 2688 752 2688 664 2624 c 128,-1,30
 576 2560 576 2560 576 2416 c 0,31,32
 576 2336 576 2336 608 2296 c 128,-1,33
 640 2256 640 2256 688 2256 c 0,34,35
 768 2256 768 2256 816 2288 c 128,-1,36
 864 2320 864 2320 912 2432 c 1,37,-1
 912 2704 l 1,28,29
EndSplineSet
EndChar

StartChar: guillemotleft
Encoding: 171 171 109
Width: 2736
GlyphClass: 2
Flags: W
LayerCount: 2
Fore
SplineSet
1856 2656 m 1,0,-1
 512 1472 l 1,1,-1
 1856 288 l 1,2,-1
 1712 144 l 1,3,-1
 224 1472 l 1,4,-1
 1712 2784 l 1,5,-1
 1856 2656 l 1,0,-1
2512 2656 m 1,6,-1
 1168 1472 l 1,7,-1
 2512 288 l 1,8,-1
 2368 144 l 1,9,-1
 864 1472 l 1,10,-1
 2368 2784 l 1,11,-1
 2512 2656 l 1,6,-1
EndSplineSet
EndChar

StartChar: logicalnot
Encoding: 172 172 110
Width: 2624
GlyphClass: 2
Flags: W
LayerCount: 2
Fore
SplineSet
224 2048 m 1,0,-1
 2304 2048 l 1,1,-1
 2304 1040 l 1,2,-1
 2000 1040 l 1,3,-1
 2000 1792 l 1,4,-1
 224 1792 l 1,5,-1
 224 2048 l 1,0,-1
EndSplineSet
EndChar

StartChar: uni00AD
Encoding: 173 173 111
Width: 2064
GlyphClass: 2
Flags: W
LayerCount: 2
Fore
SplineSet
128 1616 m 1,0,-1
 1920 1616 l 1,1,-1
 1920 1344 l 1,2,-1
 128 1344 l 1,3,-1
 128 1616 l 1,0,-1
EndSplineSet
EndChar

StartChar: registered
Encoding: 174 174 112
Width: 2736
GlyphClass: 2
Flags: W
LayerCount: 2
Fore
SplineSet
240 1472 m 0,0,1
 240 2048 240 2048 584 2392 c 128,-1,2
 928 2736 928 2736 1360 2736 c 0,3,4
 1856 2736 1856 2736 2168 2392 c 128,-1,5
 2480 2048 2480 2048 2480 1472 c 0,6,7
 2480 944 2480 944 2168 576 c 128,-1,8
 1856 208 1856 208 1360 208 c 256,9,10
 864 208 864 208 552 576 c 128,-1,11
 240 944 240 944 240 1472 c 0,0,1
416 1472 m 1,12,13
 432 992 432 992 696 696 c 128,-1,14
 960 400 960 400 1360 400 c 256,15,16
 1760 400 1760 400 2040 704 c 128,-1,17
 2320 1008 2320 1008 2320 1472 c 256,18,19
 2320 1936 2320 1936 2040 2240 c 128,-1,20
 1760 2544 1760 2544 1360 2544 c 256,21,22
 960 2544 960 2544 688 2232 c 128,-1,23
 416 1920 416 1920 416 1472 c 1,12,13
1920 752 m 1,24,-1
 1728 752 l 1,25,-1
 1360 1472 l 1,26,-1
 1104 1472 l 1,27,-1
 1104 752 l 1,28,-1
 960 752 l 1,29,-1
 960 2208 l 1,30,-1
 1456 2208 l 2,31,32
 1648 2208 1648 2208 1752 2096 c 128,-1,33
 1856 1984 1856 1984 1856 1840 c 256,34,35
 1856 1696 1856 1696 1784 1592 c 128,-1,36
 1712 1488 1712 1488 1520 1472 c 1,37,-1
 1920 752 l 1,24,-1
1104 1600 m 1,38,-1
 1456 1600 l 2,39,40
 1552 1600 1552 1600 1616 1656 c 128,-1,41
 1680 1712 1680 1712 1680 1840 c 0,42,43
 1680 1952 1680 1952 1616 2008 c 128,-1,44
 1552 2064 1552 2064 1456 2064 c 2,45,-1
 1104 2064 l 1,46,-1
 1104 1600 l 1,38,-1
EndSplineSet
EndChar

StartChar: macron
Encoding: 175 175 113
Width: 2736
GlyphClass: 2
Flags: W
LayerCount: 2
Fore
SplineSet
0 3520 m 1,0,-1
 2736 3520 l 1,1,-1
 2736 3248 l 1,2,-1
 0 3248 l 1,3,-1
 0 3520 l 1,0,-1
EndSplineSet
EndChar

StartChar: degree
Encoding: 176 176 114
Width: 4096
GlyphClass: 2
Flags: W
LayerCount: 2
Fore
SplineSet
912 3312 m 0,0,1
 1184 3312 1184 3312 1392 3120 c 128,-1,2
 1600 2928 1600 2928 1600 2608 c 0,3,4
 1600 2272 1600 2272 1400 2088 c 128,-1,5
 1200 1904 1200 1904 912 1904 c 256,6,7
 624 1904 624 1904 424 2088 c 128,-1,8
 224 2272 224 2272 224 2608 c 0,9,10
 224 2928 224 2928 408 3120 c 128,-1,11
 592 3312 592 3312 912 3312 c 0,0,1
912 3024 m 0,12,13
 720 3024 720 3024 616 2912 c 128,-1,14
 512 2800 512 2800 512 2608 c 256,15,16
 512 2416 512 2416 624 2312 c 128,-1,17
 736 2208 736 2208 912 2208 c 0,18,19
 1072 2208 1072 2208 1184 2312 c 128,-1,20
 1296 2416 1296 2416 1296 2608 c 0,21,22
 1296 2768 1296 2768 1192 2896 c 128,-1,23
 1088 3024 1088 3024 912 3024 c 0,12,13
EndSplineSet
Substitution2: "sous-table 'vert' Formes verticales alternatives (CJK) dans Hiragana & katakana lookup 0" degree.vert
EndChar

StartChar: plusminus
Encoding: 177 177 115
Width: 4096
GlyphClass: 2
Flags: W
LayerCount: 2
Fore
SplineSet
1904 3248 m 1,0,-1
 2192 3248 l 1,1,-1
 2192 2048 l 1,2,-1
 3456 2048 l 1,3,-1
 3456 1728 l 1,4,-1
 2192 1728 l 1,5,-1
 2192 512 l 1,6,-1
 1904 512 l 1,7,-1
 1904 1728 l 1,8,-1
 640 1728 l 1,9,-1
 640 2048 l 1,10,-1
 1904 2048 l 1,11,-1
 1904 3248 l 1,0,-1
640 -16 m 1,12,-1
 3456 -16 l 1,13,-1
 3456 -304 l 1,14,-1
 640 -304 l 1,15,-1
 640 -16 l 1,12,-1
EndSplineSet
Substitution2: "sous-table 'vert' Formes verticales alternatives (CJK) dans Hiragana & katakana lookup 0" plusminus.vert
EndChar

StartChar: uni00B2
Encoding: 178 178 116
Width: 976
GlyphClass: 2
Flags: W
LayerCount: 2
Fore
SplineSet
272 3424 m 0,0,1
 368 3424 368 3424 432 3328 c 128,-1,2
 496 3232 496 3232 496 3056 c 0,3,4
 496 2848 496 2848 400 2640 c 1,5,-1
 176 2224 l 1,6,-1
 496 2224 l 1,7,-1
 496 2064 l 1,8,-1
 64 2064 l 1,9,-1
 64 2240 l 1,10,-1
 304 2688 l 1,11,12
 416 2880 416 2880 416 3056 c 0,13,14
 416 3184 416 3184 376 3224 c 128,-1,15
 336 3264 336 3264 272 3264 c 0,16,17
 224 3264 224 3264 184 3224 c 128,-1,18
 144 3184 144 3184 144 3040 c 1,19,-1
 64 3040 l 1,20,21
 64 3216 64 3216 128 3320 c 128,-1,22
 192 3424 192 3424 272 3424 c 0,0,1
EndSplineSet
EndChar

StartChar: uni00B3
Encoding: 179 179 117
Width: 976
GlyphClass: 2
Flags: W
LayerCount: 2
Fore
SplineSet
288 2912 m 1,0,1
 496 2912 496 2912 496 2480 c 0,2,3
 496 2064 496 2064 240 2064 c 2,4,-1
 64 2064 l 1,5,-1
 64 2208 l 1,6,-1
 240 2208 l 2,7,8
 384 2208 384 2208 384 2480 c 0,9,10
 384 2784 384 2784 240 2784 c 2,11,-1
 128 2784 l 1,12,-1
 128 2896 l 1,13,-1
 352 3280 l 1,14,-1
 64 3280 l 1,15,-1
 64 3424 l 1,16,-1
 496 3424 l 1,17,-1
 496 3280 l 1,18,-1
 288 2912 l 1,0,1
EndSplineSet
EndChar

StartChar: acute
Encoding: 180 180 118
Width: 2048
GlyphClass: 2
Flags: W
LayerCount: 2
Fore
SplineSet
992 3104 m 1,0,-1
 1488 3104 l 1,1,-1
 1008 2608 l 1,2,-1
 688 2608 l 1,3,-1
 992 3104 l 1,0,-1
EndSplineSet
Substitution2: "sous-table 'vert' Formes verticales alternatives (CJK) dans Hiragana & katakana lookup 0" acute.vert
EndChar

StartChar: uni00B5
Encoding: 181 181 119
Width: 2064
GlyphClass: 2
Flags: W
LayerCount: 2
Fore
SplineSet
1744 0 m 1,0,-1
 1376 0 l 1,1,-1
 1376 208 l 1,2,3
 1184 0 1184 0 976 0 c 0,4,5
 784 0 784 0 688 176 c 1,6,-1
 688 -576 l 1,7,-1
 304 -576 l 1,8,-1
 304 1920 l 1,9,-1
 688 1920 l 1,10,-1
 688 544 l 1,11,12
 816 288 816 288 976 288 c 0,13,14
 1184 288 1184 288 1376 576 c 1,15,-1
 1376 1920 l 1,16,-1
 1744 1920 l 1,17,-1
 1744 0 l 1,0,-1
EndSplineSet
EndChar

StartChar: paragraph
Encoding: 182 182 120
Width: 2048
GlyphClass: 2
Flags: W
LayerCount: 2
Fore
SplineSet
416 -304 m 1,0,-1
 416 1920 l 1,1,2
 272 1904 272 1904 176 2096 c 128,-1,3
 80 2288 80 2288 80 2592 c 0,4,5
 80 2880 80 2880 176 3064 c 128,-1,6
 272 3248 272 3248 432 3248 c 2,7,-1
 976 3248 l 1,8,-1
 976 2992 l 1,9,-1
 928 2992 l 1,10,-1
 928 -304 l 1,11,-1
 768 -304 l 1,12,-1
 768 2992 l 1,13,-1
 576 2992 l 1,14,-1
 576 -304 l 1,15,-1
 416 -304 l 1,0,-1
EndSplineSet
Substitution2: "sous-table 'vert' Formes verticales alternatives (CJK) dans Hiragana & katakana lookup 0" paragraph.vert
EndChar

StartChar: periodcentered
Encoding: 183 183 121
Width: 832
GlyphClass: 2
Flags: W
LayerCount: 2
Fore
SplineSet
320 1280 m 1,0,-1
 320 1776 l 1,1,-1
 512 1776 l 1,2,-1
 512 1280 l 1,3,-1
 320 1280 l 1,0,-1
EndSplineSet
EndChar

StartChar: cedilla
Encoding: 184 184 122
Width: 832
GlyphClass: 2
Flags: W
LayerCount: 2
Fore
SplineSet
256 288 m 0,0,1
 256 416 256 416 296 528 c 128,-1,2
 336 640 336 640 400 640 c 256,3,4
 464 640 464 640 504 536 c 128,-1,5
 544 432 544 432 544 288 c 1,6,7
 560 -96 560 -96 488 -312 c 128,-1,8
 416 -528 416 -528 272 -576 c 1,9,-1
 256 -400 l 1,10,11
 336 -384 336 -384 368 -320 c 128,-1,12
 400 -256 400 -256 416 -160 c 128,-1,13
 432 -64 432 -64 400 -64 c 0,14,15
 336 -64 336 -64 296 32 c 128,-1,16
 256 128 256 128 256 288 c 0,0,1
EndSplineSet
EndChar

StartChar: uni00B9
Encoding: 185 185 123
Width: 976
GlyphClass: 2
Flags: W
LayerCount: 2
Fore
SplineSet
320 2064 m 1,0,-1
 176 2064 l 1,1,-1
 176 3040 l 1,2,-1
 64 3040 l 1,3,-1
 64 3232 l 1,4,5
 192 3232 192 3232 224 3424 c 1,6,-1
 320 3424 l 1,7,-1
 320 2064 l 1,0,-1
EndSplineSet
EndChar

StartChar: ordmasculine
Encoding: 186 186 124
Width: 976
GlyphClass: 2
Flags: W
LayerCount: 2
Fore
SplineSet
64 2752 m 0,0,1
 64 3008 64 3008 128 3216 c 128,-1,2
 192 3424 192 3424 304 3424 c 256,3,4
 416 3424 416 3424 480 3232 c 128,-1,5
 544 3040 544 3040 544 2752 c 0,6,7
 544 2448 544 2448 480 2256 c 128,-1,8
 416 2064 416 2064 304 2064 c 256,9,10
 192 2064 192 2064 128 2264 c 128,-1,11
 64 2464 64 2464 64 2752 c 0,0,1
160 2752 m 256,12,13
 160 2512 160 2512 200 2392 c 128,-1,14
 240 2272 240 2272 304 2272 c 256,15,16
 368 2272 368 2272 408 2392 c 128,-1,17
 448 2512 448 2512 448 2752 c 256,18,19
 448 2992 448 2992 408 3104 c 128,-1,20
 368 3216 368 3216 304 3216 c 256,21,22
 240 3216 240 3216 200 3104 c 128,-1,23
 160 2992 160 2992 160 2752 c 256,12,13
EndSplineSet
EndChar

StartChar: guillemotright
Encoding: 187 187 125
Width: 2736
GlyphClass: 2
Flags: W
LayerCount: 2
Fore
SplineSet
896 288 m 1,0,-1
 2240 1472 l 1,1,-1
 896 2656 l 1,2,-1
 1056 2800 l 1,3,-1
 2528 1472 l 1,4,-1
 1056 160 l 1,5,-1
 896 288 l 1,0,-1
256 288 m 1,6,-1
 1584 1472 l 1,7,-1
 256 2656 l 1,8,-1
 400 2800 l 1,9,-1
 1888 1472 l 1,10,-1
 400 160 l 1,11,-1
 256 288 l 1,6,-1
EndSplineSet
EndChar

StartChar: onequarter
Encoding: 188 188 126
Width: 2096
GlyphClass: 2
Flags: W
LayerCount: 2
Fore
SplineSet
1744 0 m 1,0,-1
 1536 0 l 1,1,-1
 1536 336 l 1,2,-1
 944 336 l 1,3,-1
 944 416 l 1,4,-1
 1568 1472 l 1,5,-1
 1744 1472 l 1,6,-1
 1744 512 l 1,7,-1
 1984 512 l 1,8,-1
 1984 336 l 1,9,-1
 1744 336 l 1,10,-1
 1744 0 l 1,0,-1
1536 1120 m 1,11,-1
 1168 512 l 1,12,-1
 1536 512 l 1,13,-1
 1536 1120 l 1,11,-1
1616 3104 m 1,14,-1
 1744 3072 l 1,15,-1
 464 16 l 1,16,-1
 336 64 l 1,17,-1
 1616 3104 l 1,14,-1
544 1632 m 1,18,-1
 352 1632 l 1,19,-1
 352 2816 l 1,20,-1
 144 2816 l 1,21,-1
 144 2960 l 1,22,23
 368 2960 368 2960 400 3104 c 1,24,-1
 544 3104 l 1,25,-1
 544 1632 l 1,18,-1
EndSplineSet
EndChar

StartChar: onehalf
Encoding: 189 189 127
Width: 2096
GlyphClass: 2
Flags: W
LayerCount: 2
Fore
SplineSet
1504 1472 m 0,0,1
 1696 1472 1696 1472 1824 1360 c 128,-1,2
 1952 1248 1952 1248 1952 1056 c 0,3,4
 1952 848 1952 848 1744 624 c 1,5,-1
 1296 176 l 1,6,-1
 1952 176 l 1,7,-1
 1952 0 l 1,8,-1
 1088 0 l 1,9,-1
 1088 192 l 1,10,-1
 1568 672 l 1,11,12
 1760 880 1760 880 1760 1056 c 0,13,14
 1760 1200 1760 1200 1688 1248 c 128,-1,15
 1616 1296 1616 1296 1504 1296 c 0,16,17
 1408 1296 1408 1296 1336 1248 c 128,-1,18
 1264 1200 1264 1200 1264 1040 c 1,19,-1
 1072 1040 l 1,20,21
 1072 1232 1072 1232 1200 1352 c 128,-1,22
 1328 1472 1328 1472 1504 1472 c 0,0,1
544 1632 m 1,23,-1
 352 1632 l 1,24,-1
 352 2832 l 1,25,-1
 144 2832 l 1,26,-1
 144 2960 l 1,27,28
 368 2976 368 2976 400 3104 c 1,29,-1
 544 3104 l 1,30,-1
 544 1632 l 1,23,-1
1616 3104 m 1,31,-1
 1744 3072 l 1,32,-1
 464 16 l 1,33,-1
 336 64 l 1,34,-1
 1616 3104 l 1,31,-1
EndSplineSet
EndChar

StartChar: threequarters
Encoding: 190 190 128
Width: 2096
GlyphClass: 2
Flags: W
LayerCount: 2
Fore
SplineSet
1808 0 m 1,0,-1
 1616 0 l 1,1,-1
 1616 336 l 1,2,-1
 1008 336 l 1,3,-1
 1008 544 l 1,4,-1
 1600 1472 l 1,5,-1
 1808 1472 l 1,6,-1
 1808 512 l 1,7,-1
 2064 512 l 1,8,-1
 2064 336 l 1,9,-1
 1808 336 l 1,10,-1
 1808 0 l 1,0,-1
1616 1136 m 1,11,-1
 1216 512 l 1,12,-1
 1616 512 l 1,13,-1
 1616 1136 l 1,11,-1
1616 3104 m 1,14,-1
 1744 3072 l 1,15,-1
 464 16 l 1,16,-1
 336 64 l 1,17,-1
 1616 3104 l 1,14,-1
560 2544 m 1,18,19
 976 2544 976 2544 976 2096 c 0,20,21
 976 1632 976 1632 464 1632 c 2,22,-1
 144 1632 l 1,23,-1
 144 1792 l 1,24,-1
 464 1792 l 2,25,26
 736 1792 736 1792 736 2096 c 0,27,28
 736 2416 736 2416 464 2416 c 2,29,-1
 256 2416 l 1,30,-1
 256 2544 l 1,31,-1
 672 2944 l 1,32,-1
 144 2944 l 1,33,-1
 144 3104 l 1,34,-1
 976 3104 l 1,35,-1
 976 2944 l 1,36,-1
 560 2544 l 1,18,19
EndSplineSet
EndChar

StartChar: questiondown
Encoding: 191 191 129
Width: 1856
GlyphClass: 2
Flags: W
LayerCount: 2
Fore
SplineSet
1136 3168 m 1,0,-1
 1136 2720 l 1,1,-1
 752 2720 l 1,2,-1
 752 3168 l 1,3,-1
 1136 3168 l 1,0,-1
896 -160 m 1,4,5
 544 -176 544 -176 328 40 c 128,-1,6
 112 256 112 256 112 560 c 0,7,8
 112 896 112 896 256 1072 c 128,-1,9
 400 1248 400 1248 576 1376 c 1,10,11
 752 1520 752 1520 776 1680 c 128,-1,12
 800 1840 800 1840 800 1984 c 2,13,-1
 800 2224 l 1,14,-1
 1104 2224 l 1,15,-1
 1104 1984 l 2,16,17
 1104 1824 1104 1824 1072 1640 c 128,-1,18
 1040 1456 1040 1456 832 1248 c 1,19,20
 624 1088 624 1088 512 952 c 128,-1,21
 400 816 400 816 400 576 c 0,22,23
 400 384 400 384 520 248 c 128,-1,24
 640 112 640 112 896 112 c 0,25,26
 1168 112 1168 112 1296 272 c 128,-1,27
 1424 432 1424 432 1424 672 c 2,28,-1
 1424 848 l 1,29,-1
 1696 848 l 1,30,-1
 1696 672 l 2,31,32
 1696 304 1696 304 1472 72 c 128,-1,33
 1248 -160 1248 -160 896 -160 c 1,4,5
EndSplineSet
EndChar

StartChar: Agrave
Encoding: 192 192 130
Width: 2592
GlyphClass: 2
Flags: W
LayerCount: 2
Fore
SplineSet
848 3520 m 1,0,-1
 1280 3520 l 1,1,-1
 1648 2720 l 1,2,-1
 1408 2720 l 1,3,-1
 848 3520 l 1,0,-1
2032 0 m 1,4,-1
 1760 0 l 1,5,-1
 1568 672 l 1,6,-1
 928 672 l 1,7,-1
 752 0 l 1,8,-1
 480 0 l 1,9,-1
 1104 2352 l 1,10,-1
 1408 2352 l 1,11,-1
 2032 0 l 1,4,-1
1008 960 m 1,12,-1
 1504 960 l 1,13,-1
 1248 1904 l 1,14,-1
 1008 960 l 1,12,-1
EndSplineSet
EndChar

StartChar: Aacute
Encoding: 193 193 131
Width: 2592
GlyphClass: 2
Flags: W
LayerCount: 2
Fore
SplineSet
1664 3520 m 1,0,-1
 1120 2720 l 1,1,-1
 864 2720 l 1,2,-1
 1232 3520 l 1,3,-1
 1664 3520 l 1,0,-1
2032 0 m 1,4,-1
 1760 0 l 1,5,-1
 1568 672 l 1,6,-1
 928 672 l 1,7,-1
 752 0 l 1,8,-1
 480 0 l 1,9,-1
 1104 2352 l 1,10,-1
 1408 2352 l 1,11,-1
 2032 0 l 1,4,-1
1008 960 m 1,12,-1
 1504 960 l 1,13,-1
 1248 1904 l 1,14,-1
 1008 960 l 1,12,-1
EndSplineSet
EndChar

StartChar: Acircumflex
Encoding: 194 194 132
Width: 2592
GlyphClass: 2
Flags: W
LayerCount: 2
Fore
SplineSet
1248 3520 m 1,0,-1
 1376 3520 l 1,1,-1
 1808 2832 l 1,2,-1
 1648 2672 l 1,3,-1
 1312 3216 l 1,4,-1
 976 2672 l 1,5,-1
 816 2832 l 1,6,-1
 1248 3520 l 1,0,-1
2096 0 m 1,7,-1
 1824 0 l 1,8,-1
 1632 672 l 1,9,-1
 992 672 l 1,10,-1
 816 0 l 1,11,-1
 544 0 l 1,12,-1
 1168 2352 l 1,13,-1
 1472 2352 l 1,14,-1
 2096 0 l 1,7,-1
1072 960 m 1,15,-1
 1568 960 l 1,16,-1
 1328 1904 l 1,17,-1
 1072 960 l 1,15,-1
EndSplineSet
EndChar

StartChar: Atilde
Encoding: 195 195 133
Width: 2592
GlyphClass: 2
Flags: W
LayerCount: 2
Fore
SplineSet
1936 2960 m 1,0,1
 1712 2656 1712 2656 1568 2656 c 256,2,3
 1424 2656 1424 2656 1312 2800 c 2,4,-1
 1120 3040 l 1,5,6
 1040 3152 1040 3152 928 3152 c 0,7,8
 800 3152 800 3152 544 2800 c 1,9,-1
 544 3200 l 1,10,11
 784 3520 784 3520 928 3520 c 256,12,13
 1072 3520 1072 3520 1168 3360 c 1,14,-1
 1360 3120 l 1,15,16
 1456 3008 1456 3008 1568 3008 c 256,17,18
 1680 3008 1680 3008 1936 3360 c 1,19,-1
 1936 2960 l 1,0,1
2016 0 m 1,20,-1
 1744 0 l 1,21,-1
 1552 672 l 1,22,-1
 912 672 l 1,23,-1
 736 0 l 1,24,-1
 464 0 l 1,25,-1
 1088 2352 l 1,26,-1
 1392 2352 l 1,27,-1
 2016 0 l 1,20,-1
992 960 m 1,28,-1
 1488 960 l 1,29,-1
 1232 1904 l 1,30,-1
 992 960 l 1,28,-1
EndSplineSet
EndChar

StartChar: Adieresis
Encoding: 196 196 134
Width: 2592
GlyphClass: 2
Flags: W
LayerCount: 2
Fore
SplineSet
640 2720 m 1,0,-1
 640 3520 l 1,1,-1
 1040 3520 l 1,2,-1
 1040 2720 l 1,3,-1
 640 2720 l 1,0,-1
1472 2720 m 1,4,-1
 1472 3520 l 1,5,-1
 1888 3520 l 1,6,-1
 1888 2720 l 1,7,-1
 1472 2720 l 1,4,-1
2064 0 m 1,8,-1
 1776 0 l 1,9,-1
 1600 672 l 1,10,-1
 960 672 l 1,11,-1
 784 0 l 1,12,-1
 496 0 l 1,13,-1
 1120 2352 l 1,14,-1
 1440 2352 l 1,15,-1
 2064 0 l 1,8,-1
1024 960 m 1,16,-1
 1536 960 l 1,17,-1
 1280 1904 l 1,18,-1
 1024 960 l 1,16,-1
EndSplineSet
EndChar

StartChar: Aring
Encoding: 197 197 135
Width: 2592
GlyphClass: 2
Flags: W
LayerCount: 2
Fore
SplineSet
832 3104 m 0,0,1
 832 3264 832 3264 960 3392 c 1,2,3
 1072 3520 1072 3520 1248 3520 c 0,4,5
 1408 3520 1408 3520 1536 3392 c 256,6,7
 1664 3264 1664 3264 1664 3104 c 0,8,9
 1664 2928 1664 2928 1536 2816 c 1,10,11
 1408 2688 1408 2688 1248 2688 c 0,12,13
 1072 2688 1072 2688 960 2816 c 1,14,15
 832 2928 832 2928 832 3104 c 0,0,1
976 3104 m 0,16,17
 976 2976 976 2976 1048 2896 c 128,-1,18
 1120 2816 1120 2816 1248 2816 c 0,19,20
 1360 2816 1360 2816 1440 2912 c 1,21,22
 1520 2976 1520 2976 1520 3104 c 0,23,24
 1520 3216 1520 3216 1440 3296 c 128,-1,25
 1360 3376 1360 3376 1248 3376 c 0,26,27
 1120 3376 1120 3376 1056 3296 c 1,28,29
 976 3216 976 3216 976 3104 c 0,16,17
2016 0 m 1,30,-1
 1744 0 l 1,31,-1
 1552 672 l 1,32,-1
 912 672 l 1,33,-1
 736 0 l 1,34,-1
 464 0 l 1,35,-1
 1088 2352 l 1,36,-1
 1392 2352 l 1,37,-1
 2016 0 l 1,30,-1
992 960 m 1,38,-1
 1488 960 l 1,39,-1
 1232 1904 l 1,40,-1
 992 960 l 1,38,-1
EndSplineSet
EndChar

StartChar: AE
Encoding: 198 198 136
Width: 2736
GlyphClass: 2
Flags: W
LayerCount: 2
Fore
SplineSet
1360 1840 m 1,0,-1
 960 960 l 1,1,-1
 1360 960 l 1,2,-1
 1360 1840 l 1,0,-1
1360 688 m 1,3,-1
 832 688 l 1,4,-1
 528 0 l 1,5,-1
 256 0 l 1,6,-1
 1344 2352 l 1,7,-1
 2496 2352 l 1,8,-1
 2496 2080 l 1,9,-1
 1568 2080 l 1,10,-1
 1568 1376 l 1,11,-1
 2320 1376 l 1,12,-1
 2320 1088 l 1,13,-1
 1568 1088 l 1,14,-1
 1568 272 l 1,15,-1
 2496 272 l 1,16,-1
 2496 0 l 1,17,-1
 1360 0 l 1,18,-1
 1360 688 l 1,3,-1
EndSplineSet
EndChar

StartChar: Ccedilla
Encoding: 199 199 137
Width: 2720
GlyphClass: 2
Flags: W
LayerCount: 2
Fore
SplineSet
1216 0 m 1,0,1
 752 48 752 48 416 392 c 128,-1,2
 80 736 80 736 80 1184 c 0,3,4
 80 1648 80 1648 440 2000 c 128,-1,5
 800 2352 800 2352 1424 2368 c 1,6,7
 2064 2352 2064 2352 2328 2144 c 128,-1,8
 2592 1936 2592 1936 2640 1552 c 1,9,-1
 2176 1552 l 1,10,11
 2096 1824 2096 1824 1928 1952 c 128,-1,12
 1760 2080 1760 2080 1424 2080 c 0,13,14
 1056 2080 1056 2080 808 1856 c 128,-1,15
 560 1632 560 1632 560 1184 c 0,16,17
 560 768 560 768 808 512 c 128,-1,18
 1056 256 1056 256 1376 256 c 256,19,20
 1696 256 1696 256 1912 384 c 128,-1,21
 2128 512 2128 512 2176 832 c 1,22,-1
 2640 832 l 1,23,24
 2624 432 2624 432 2312 232 c 128,-1,25
 2000 32 2000 32 1552 0 c 1,26,27
 1632 -32 1632 -32 1696 -32 c 1,28,29
 1920 -64 1920 -64 1968 -136 c 128,-1,30
 2016 -208 2016 -208 2016 -288 c 0,31,32
 2016 -448 2016 -448 1832 -512 c 128,-1,33
 1648 -576 1648 -576 1440 -576 c 1,34,35
 1248 -592 1248 -592 1080 -528 c 128,-1,36
 912 -464 912 -464 848 -400 c 1,37,-1
 1136 -288 l 1,38,39
 1136 -288 1136 -288 1248 -344 c 128,-1,40
 1360 -400 1360 -400 1440 -400 c 0,41,42
 1552 -400 1552 -400 1600 -392 c 128,-1,43
 1648 -384 1648 -384 1664 -288 c 256,44,45
 1680 -192 1680 -192 1552 -160 c 1,46,47
 1296 -112 1296 -112 1216 0 c 1,0,1
EndSplineSet
EndChar

StartChar: Egrave
Encoding: 200 200 138
Width: 2320
GlyphClass: 2
Flags: W
LayerCount: 2
Fore
SplineSet
576 3536 m 1,0,-1
 1200 3536 l 1,1,-1
 1728 2720 l 1,2,-1
 1376 2720 l 1,3,-1
 576 3536 l 1,0,-1
2128 2352 m 1,4,-1
 2128 2080 l 1,5,-1
 592 2080 l 1,6,-1
 592 1376 l 1,7,-1
 1872 1376 l 1,8,-1
 1872 1088 l 1,9,-1
 592 1088 l 1,10,-1
 592 272 l 1,11,-1
 2128 272 l 1,12,-1
 2128 0 l 1,13,-1
 208 0 l 1,14,-1
 208 2352 l 1,15,-1
 2128 2352 l 1,4,-1
EndSplineSet
EndChar

StartChar: Eacute
Encoding: 201 201 139
Width: 2320
GlyphClass: 2
Flags: W
LayerCount: 2
Fore
SplineSet
1728 3536 m 1,0,-1
 944 2720 l 1,1,-1
 576 2720 l 1,2,-1
 1120 3536 l 1,3,-1
 1728 3536 l 1,0,-1
2112 2352 m 1,4,-1
 2112 2064 l 1,5,-1
 576 2064 l 1,6,-1
 576 1360 l 1,7,-1
 1856 1360 l 1,8,-1
 1856 1088 l 1,9,-1
 576 1088 l 1,10,-1
 576 272 l 1,11,-1
 2112 272 l 1,12,-1
 2112 0 l 1,13,-1
 192 0 l 1,14,-1
 192 2352 l 1,15,-1
 2112 2352 l 1,4,-1
EndSplineSet
EndChar

StartChar: Ecircumflex
Encoding: 202 202 140
Width: 2320
GlyphClass: 2
Flags: W
LayerCount: 2
Fore
SplineSet
1072 3536 m 1,0,-1
 1248 3536 l 1,1,-1
 1872 2768 l 1,2,-1
 1648 2576 l 1,3,-1
 1168 3184 l 1,4,-1
 672 2576 l 1,5,-1
 432 2768 l 1,6,-1
 1072 3536 l 1,0,-1
2128 2352 m 1,7,-1
 2128 2080 l 1,8,-1
 592 2080 l 1,9,-1
 592 1376 l 1,10,-1
 1872 1376 l 1,11,-1
 1872 1088 l 1,12,-1
 592 1088 l 1,13,-1
 592 272 l 1,14,-1
 2128 272 l 1,15,-1
 2128 0 l 1,16,-1
 208 0 l 1,17,-1
 208 2352 l 1,18,-1
 2128 2352 l 1,7,-1
EndSplineSet
EndChar

StartChar: Edieresis
Encoding: 203 203 141
Width: 2320
GlyphClass: 2
Flags: W
LayerCount: 2
Fore
SplineSet
384 2720 m 1,0,-1
 384 3520 l 1,1,-1
 928 3520 l 1,2,-1
 928 2720 l 1,3,-1
 384 2720 l 1,0,-1
1392 2720 m 1,4,-1
 1392 3520 l 1,5,-1
 1936 3520 l 1,6,-1
 1936 2720 l 1,7,-1
 1392 2720 l 1,4,-1
2128 2352 m 1,8,-1
 2128 2080 l 1,9,-1
 592 2080 l 1,10,-1
 592 1376 l 1,11,-1
 1872 1376 l 1,12,-1
 1872 1088 l 1,13,-1
 592 1088 l 1,14,-1
 592 272 l 1,15,-1
 2128 272 l 1,16,-1
 2128 0 l 1,17,-1
 208 0 l 1,18,-1
 208 2352 l 1,19,-1
 2128 2352 l 1,8,-1
EndSplineSet
EndChar

StartChar: Igrave
Encoding: 204 204 142
Width: 1376
GlyphClass: 2
Flags: W
LayerCount: 2
Fore
SplineSet
352 3536 m 1,0,-1
 720 3536 l 1,1,-1
 1024 2720 l 1,2,-1
 816 2720 l 1,3,-1
 352 3536 l 1,0,-1
816 0 m 1,4,-1
 576 0 l 1,5,-1
 576 2352 l 1,6,-1
 816 2352 l 1,7,-1
 816 0 l 1,4,-1
EndSplineSet
EndChar

StartChar: Iacute
Encoding: 205 205 143
Width: 1184
GlyphClass: 2
Flags: W
LayerCount: 2
Fore
SplineSet
880 3536 m 1,0,-1
 480 2832 l 1,1,-1
 304 2832 l 1,2,-1
 576 3536 l 1,3,-1
 880 3536 l 1,0,-1
704 0 m 1,4,-1
 496 0 l 1,5,-1
 496 2352 l 1,6,-1
 704 2352 l 1,7,-1
 704 0 l 1,4,-1
EndSplineSet
EndChar

StartChar: Icircumflex
Encoding: 206 206 144
Width: 1776
GlyphClass: 2
Flags: W
LayerCount: 2
Fore
SplineSet
816 3520 m 1,0,-1
 960 3520 l 1,1,-1
 1440 2960 l 1,2,-1
 1264 2816 l 1,3,-1
 896 3264 l 1,4,-1
 512 2816 l 1,5,-1
 336 2960 l 1,6,-1
 816 3520 l 1,0,-1
1040 0 m 1,7,-1
 752 0 l 1,8,-1
 752 2352 l 1,9,-1
 1040 2352 l 1,10,-1
 1040 0 l 1,7,-1
EndSplineSet
EndChar

StartChar: Idieresis
Encoding: 207 207 145
Width: 1376
GlyphClass: 2
Flags: W
LayerCount: 2
Fore
SplineSet
160 3056 m 1,0,-1
 160 3536 l 1,1,-1
 480 3536 l 1,2,-1
 480 3056 l 1,3,-1
 160 3056 l 1,0,-1
832 3056 m 1,4,-1
 832 3536 l 1,5,-1
 1152 3536 l 1,6,-1
 1152 3056 l 1,7,-1
 832 3056 l 1,4,-1
816 0 m 1,8,-1
 576 0 l 1,9,-1
 576 2352 l 1,10,-1
 816 2352 l 1,11,-1
 816 0 l 1,8,-1
EndSplineSet
EndChar

StartChar: Eth
Encoding: 208 208 146
Width: 2656
GlyphClass: 2
Flags: W
LayerCount: 2
Fore
SplineSet
992 1472 m 1,0,-1
 992 304 l 1,1,-1
 1312 304 l 2,2,3
 1712 304 1712 304 1872 648 c 128,-1,4
 2032 992 2032 992 2032 1544 c 128,-1,5
 2032 2096 2032 2096 1872 2464 c 128,-1,6
 1712 2832 1712 2832 1312 2832 c 2,7,-1
 992 2832 l 1,8,-1
 992 1744 l 1,9,-1
 1456 1744 l 1,10,-1
 1456 1472 l 1,11,-1
 992 1472 l 1,0,-1
752 1472 m 1,12,-1
 352 1472 l 1,13,-1
 352 1744 l 1,14,-1
 752 1744 l 1,15,-1
 752 3104 l 1,16,-1
 1312 3104 l 2,17,18
 1872 3104 1872 3104 2096 2680 c 128,-1,19
 2320 2256 2320 2256 2320 1552 c 128,-1,20
 2320 848 2320 848 2096 424 c 128,-1,21
 1872 0 1872 0 1312 0 c 2,22,-1
 752 0 l 1,23,-1
 752 1472 l 1,12,-1
EndSplineSet
EndChar

StartChar: Ntilde
Encoding: 209 209 147
Width: 2624
GlyphClass: 2
Flags: W
LayerCount: 2
Fore
SplineSet
2368 3104 m 1,0,1
 2016 2864 2016 2864 1792 2864 c 0,2,3
 1584 2864 1584 2864 1424 2976 c 1,4,-1
 1136 3168 l 1,5,6
 1008 3248 1008 3248 832 3248 c 256,7,8
 656 3248 656 3248 256 2976 c 1,9,-1
 256 3280 l 1,10,11
 608 3520 608 3520 832 3520 c 256,12,13
 1056 3520 1056 3520 1200 3408 c 1,14,-1
 1488 3216 l 1,15,16
 1616 3136 1616 3136 1792 3136 c 0,17,18
 1984 3136 1984 3136 2368 3408 c 1,19,-1
 2368 3104 l 1,0,1
672 0 m 1,20,-1
 224 0 l 1,21,-1
 224 2352 l 1,22,-1
 800 2352 l 1,23,-1
 1968 576 l 1,24,-1
 1968 2352 l 1,25,-1
 2416 2352 l 1,26,-1
 2416 0 l 1,27,-1
 1856 0 l 1,28,-1
 672 1824 l 1,29,-1
 672 0 l 1,20,-1
EndSplineSet
EndChar

StartChar: Ograve
Encoding: 210 210 148
Width: 2736
GlyphClass: 2
Flags: W
LayerCount: 2
Fore
SplineSet
784 3520 m 1,0,-1
 1376 3520 l 1,1,-1
 1888 2864 l 1,2,-1
 1536 2864 l 1,3,-1
 784 3520 l 1,0,-1
304 1168 m 0,4,5
 304 1632 304 1632 560 1992 c 128,-1,6
 816 2352 816 2352 1232 2352 c 2,7,-1
 1472 2352 l 2,8,9
 1872 2352 1872 2352 2144 1992 c 128,-1,10
 2416 1632 2416 1632 2416 1168 c 0,11,12
 2416 672 2416 672 2120 328 c 128,-1,13
 1824 -16 1824 -16 1352 -16 c 128,-1,14
 880 -16 880 -16 592 328 c 128,-1,15
 304 672 304 672 304 1168 c 0,4,5
640 1168 m 0,16,17
 640 704 640 704 864 480 c 128,-1,18
 1088 256 1088 256 1352 256 c 128,-1,19
 1616 256 1616 256 1848 480 c 128,-1,20
 2080 704 2080 704 2080 1168 c 0,21,22
 2080 1616 2080 1616 1856 1856 c 128,-1,23
 1632 2096 1632 2096 1408 2096 c 2,24,-1
 1296 2096 l 2,25,26
 1088 2096 1088 2096 864 1840 c 128,-1,27
 640 1584 640 1584 640 1168 c 0,16,17
EndSplineSet
EndChar

StartChar: Oacute
Encoding: 211 211 149
Width: 2736
GlyphClass: 2
Flags: W
LayerCount: 2
Fore
SplineSet
1856 3520 m 1,0,-1
 1232 2816 l 1,1,-1
 944 2816 l 1,2,-1
 1360 3520 l 1,3,-1
 1856 3520 l 1,0,-1
304 1168 m 0,4,5
 304 1632 304 1632 560 1992 c 128,-1,6
 816 2352 816 2352 1232 2352 c 2,7,-1
 1472 2352 l 2,8,9
 1872 2352 1872 2352 2144 1992 c 128,-1,10
 2416 1632 2416 1632 2416 1168 c 0,11,12
 2416 672 2416 672 2120 328 c 128,-1,13
 1824 -16 1824 -16 1352 -16 c 128,-1,14
 880 -16 880 -16 592 328 c 128,-1,15
 304 672 304 672 304 1168 c 0,4,5
640 1168 m 0,16,17
 640 704 640 704 864 480 c 128,-1,18
 1088 256 1088 256 1352 256 c 128,-1,19
 1616 256 1616 256 1848 480 c 128,-1,20
 2080 704 2080 704 2080 1168 c 0,21,22
 2080 1616 2080 1616 1856 1856 c 128,-1,23
 1632 2096 1632 2096 1408 2096 c 2,24,-1
 1296 2096 l 2,25,26
 1088 2096 1088 2096 864 1840 c 128,-1,27
 640 1584 640 1584 640 1168 c 0,16,17
EndSplineSet
EndChar

StartChar: Ocircumflex
Encoding: 212 212 150
Width: 2736
GlyphClass: 2
Flags: W
LayerCount: 2
Fore
SplineSet
1280 3520 m 1,0,-1
 1424 3520 l 1,1,-1
 1920 2960 l 1,2,-1
 1744 2816 l 1,3,-1
 1360 3280 l 1,4,-1
 976 2816 l 1,5,-1
 784 2960 l 1,6,-1
 1280 3520 l 1,0,-1
304 1168 m 0,7,8
 304 1632 304 1632 560 1992 c 128,-1,9
 816 2352 816 2352 1232 2352 c 2,10,-1
 1472 2352 l 2,11,12
 1872 2352 1872 2352 2144 1992 c 128,-1,13
 2416 1632 2416 1632 2416 1168 c 0,14,15
 2416 672 2416 672 2120 328 c 128,-1,16
 1824 -16 1824 -16 1352 -16 c 128,-1,17
 880 -16 880 -16 592 328 c 128,-1,18
 304 672 304 672 304 1168 c 0,7,8
640 1168 m 0,19,20
 640 704 640 704 864 480 c 128,-1,21
 1088 256 1088 256 1352 256 c 128,-1,22
 1616 256 1616 256 1848 480 c 128,-1,23
 2080 704 2080 704 2080 1168 c 0,24,25
 2080 1616 2080 1616 1856 1856 c 128,-1,26
 1632 2096 1632 2096 1408 2096 c 2,27,-1
 1296 2096 l 2,28,29
 1088 2096 1088 2096 864 1840 c 128,-1,30
 640 1584 640 1584 640 1168 c 0,19,20
EndSplineSet
EndChar

StartChar: Otilde
Encoding: 213 213 151
Width: 2736
GlyphClass: 2
Flags: W
LayerCount: 2
Fore
SplineSet
2080 3104 m 1,0,1
 1856 2864 1856 2864 1696 2864 c 256,2,3
 1536 2864 1536 2864 1424 2976 c 2,4,-1
 1232 3168 l 1,5,6
 1136 3248 1136 3248 1024 3248 c 0,7,8
 896 3248 896 3248 624 2976 c 1,9,-1
 624 3296 l 1,10,11
 864 3536 864 3536 1024 3536 c 0,12,13
 1168 3536 1168 3536 1280 3424 c 2,14,-1
 1472 3232 l 1,15,16
 1568 3152 1568 3152 1696 3152 c 256,17,18
 1824 3152 1824 3152 2080 3424 c 1,19,-1
 2080 3104 l 1,0,1
304 1168 m 0,20,21
 304 1632 304 1632 560 1992 c 128,-1,22
 816 2352 816 2352 1232 2352 c 2,23,-1
 1472 2352 l 2,24,25
 1872 2352 1872 2352 2144 1992 c 128,-1,26
 2416 1632 2416 1632 2416 1168 c 0,27,28
 2416 672 2416 672 2120 328 c 128,-1,29
 1824 -16 1824 -16 1352 -16 c 128,-1,30
 880 -16 880 -16 592 328 c 128,-1,31
 304 672 304 672 304 1168 c 0,20,21
640 1168 m 0,32,33
 640 704 640 704 864 480 c 128,-1,34
 1088 256 1088 256 1352 256 c 128,-1,35
 1616 256 1616 256 1848 480 c 128,-1,36
 2080 704 2080 704 2080 1168 c 0,37,38
 2080 1616 2080 1616 1856 1856 c 128,-1,39
 1632 2096 1632 2096 1408 2096 c 2,40,-1
 1296 2096 l 2,41,42
 1088 2096 1088 2096 864 1840 c 128,-1,43
 640 1584 640 1584 640 1168 c 0,32,33
EndSplineSet
EndChar

StartChar: Odieresis
Encoding: 214 214 152
Width: 2736
GlyphClass: 2
Flags: W
LayerCount: 2
Fore
SplineSet
704 2720 m 1,0,-1
 704 3520 l 1,1,-1
 1136 3520 l 1,2,-1
 1136 2720 l 1,3,-1
 704 2720 l 1,0,-1
1584 2720 m 1,4,-1
 1584 3520 l 1,5,-1
 2016 3520 l 1,6,-1
 2016 2720 l 1,7,-1
 1584 2720 l 1,4,-1
304 1168 m 0,8,9
 304 1632 304 1632 544 1992 c 128,-1,10
 784 2352 784 2352 1232 2352 c 2,11,-1
 1472 2352 l 2,12,13
 1920 2352 1920 2352 2168 1992 c 128,-1,14
 2416 1632 2416 1632 2416 1168 c 0,15,16
 2416 672 2416 672 2152 336 c 128,-1,17
 1888 0 1888 0 1456 0 c 2,18,-1
 1248 0 l 2,19,20
 832 0 832 0 568 336 c 128,-1,21
 304 672 304 672 304 1168 c 0,8,9
640 1168 m 0,22,23
 640 704 640 704 840 496 c 128,-1,24
 1040 288 1040 288 1296 288 c 2,25,-1
 1408 288 l 2,26,27
 1632 288 1632 288 1856 496 c 128,-1,28
 2080 704 2080 704 2080 1168 c 0,29,30
 2080 1616 2080 1616 1888 1840 c 128,-1,31
 1696 2064 1696 2064 1408 2064 c 2,32,-1
 1296 2064 l 2,33,34
 1008 2064 1008 2064 824 1824 c 128,-1,35
 640 1584 640 1584 640 1168 c 0,22,23
EndSplineSet
EndChar

StartChar: multiply
Encoding: 215 215 153
Width: 4096
GlyphClass: 2
Flags: W
LayerCount: 2
Fore
SplineSet
992 2832 m 1,0,-1
 2048 1776 l 1,1,-1
 3104 2832 l 1,2,-1
 3312 2624 l 1,3,-1
 2256 1568 l 1,4,-1
 3344 496 l 1,5,-1
 3136 272 l 1,6,-1
 2048 1360 l 1,7,-1
 976 272 l 1,8,-1
 768 496 l 1,9,-1
 1840 1568 l 1,10,-1
 784 2624 l 1,11,-1
 992 2832 l 1,0,-1
EndSplineSet
Substitution2: "sous-table 'vert' Formes verticales alternatives (CJK) dans Hiragana & katakana lookup 0" multiply.vert
EndChar

StartChar: Oslash
Encoding: 216 216 154
Width: 2736
GlyphClass: 2
Flags: W
LayerCount: 2
Fore
SplineSet
1808 2560 m 1,0,1
 1664 2768 1664 2768 1472 2768 c 0,2,3
 1264 2768 1264 2768 1104 2456 c 128,-1,4
 944 2144 944 2144 944 1568 c 0,5,6
 944 1120 944 1120 1024 832 c 1,7,-1
 1808 2560 l 1,0,1
1936 2304 m 1,8,-1
 1136 560 l 1,9,10
 1280 304 1280 304 1472 304 c 0,11,12
 1696 304 1696 304 1864 632 c 128,-1,13
 2032 960 2032 960 2032 1568 c 0,14,15
 2032 2000 2032 2000 1936 2304 c 1,8,-1
848 448 m 1,16,17
 608 912 608 912 608 1568 c 0,18,19
 608 2176 608 2176 848 2640 c 128,-1,20
 1088 3104 1088 3104 1472 3104 c 0,21,22
 1760 3104 1760 3104 1952 2864 c 1,23,-1
 2192 3376 l 1,24,-1
 2384 3264 l 1,25,-1
 2096 2656 l 1,26,27
 2352 2176 2352 2176 2352 1568 c 0,28,29
 2352 912 2352 912 2104 456 c 128,-1,30
 1856 0 1856 0 1472 0 c 0,31,32
 1200 0 1200 0 992 240 c 1,33,-1
 752 -288 l 1,34,-1
 560 -160 l 1,35,-1
 848 448 l 1,16,17
EndSplineSet
EndChar

StartChar: Ugrave
Encoding: 217 217 155
Width: 2624
GlyphClass: 2
Flags: W
LayerCount: 2
Fore
SplineSet
768 3536 m 1,0,-1
 1456 3536 l 1,1,-1
 2064 2832 l 1,2,-1
 1648 2832 l 1,3,-1
 768 3536 l 1,0,-1
1312 320 m 256,4,5
 1600 320 1600 320 1768 480 c 128,-1,6
 1936 640 1936 640 1936 1040 c 2,7,-1
 1936 2352 l 1,8,-1
 2384 2352 l 1,9,-1
 2384 1040 l 2,10,11
 2384 448 2384 448 2072 216 c 128,-1,12
 1760 -16 1760 -16 1296 -16 c 128,-1,13
 832 -16 832 -16 544 216 c 128,-1,14
 256 448 256 448 256 1040 c 2,15,-1
 256 2352 l 1,16,-1
 704 2352 l 1,17,-1
 704 1040 l 2,18,19
 704 640 704 640 864 480 c 128,-1,20
 1024 320 1024 320 1312 320 c 256,4,5
EndSplineSet
EndChar

StartChar: Uacute
Encoding: 218 218 156
Width: 2624
GlyphClass: 2
Flags: W
LayerCount: 2
Fore
SplineSet
1920 3536 m 1,0,-1
 1024 2832 l 1,1,-1
 624 2832 l 1,2,-1
 1216 3536 l 1,3,-1
 1920 3536 l 1,0,-1
1312 320 m 256,4,5
 1600 320 1600 320 1768 480 c 128,-1,6
 1936 640 1936 640 1936 1040 c 2,7,-1
 1936 2352 l 1,8,-1
 2384 2352 l 1,9,-1
 2384 1040 l 2,10,11
 2384 448 2384 448 2072 216 c 128,-1,12
 1760 -16 1760 -16 1296 -16 c 128,-1,13
 832 -16 832 -16 544 216 c 128,-1,14
 256 448 256 448 256 1040 c 2,15,-1
 256 2352 l 1,16,-1
 704 2352 l 1,17,-1
 704 1040 l 2,18,19
 704 640 704 640 864 480 c 128,-1,20
 1024 320 1024 320 1312 320 c 256,4,5
EndSplineSet
EndChar

StartChar: Ucircumflex
Encoding: 219 219 157
Width: 2624
GlyphClass: 2
Flags: W
LayerCount: 2
Fore
SplineSet
1216 3520 m 1,0,-1
 1424 3520 l 1,1,-1
 2128 2960 l 1,2,-1
 1872 2816 l 1,3,-1
 1312 3264 l 1,4,-1
 768 2816 l 1,5,-1
 496 2960 l 1,6,-1
 1216 3520 l 1,0,-1
1312 320 m 256,7,8
 1600 320 1600 320 1768 480 c 128,-1,9
 1936 640 1936 640 1936 1040 c 2,10,-1
 1936 2352 l 1,11,-1
 2384 2352 l 1,12,-1
 2384 1040 l 2,13,14
 2384 448 2384 448 2072 216 c 128,-1,15
 1760 -16 1760 -16 1296 -16 c 128,-1,16
 832 -16 832 -16 544 216 c 128,-1,17
 256 448 256 448 256 1040 c 2,18,-1
 256 2352 l 1,19,-1
 704 2352 l 1,20,-1
 704 1040 l 2,21,22
 704 640 704 640 864 480 c 128,-1,23
 1024 320 1024 320 1312 320 c 256,7,8
EndSplineSet
EndChar

StartChar: Udieresis
Encoding: 220 220 158
Width: 2624
GlyphClass: 2
Flags: W
LayerCount: 2
Fore
SplineSet
304 3056 m 1,0,-1
 304 3536 l 1,1,-1
 928 3536 l 1,2,-1
 928 3056 l 1,3,-1
 304 3056 l 1,0,-1
1584 3056 m 1,4,-1
 1584 3536 l 1,5,-1
 2192 3536 l 1,6,-1
 2192 3056 l 1,7,-1
 1584 3056 l 1,4,-1
1312 320 m 256,8,9
 1600 320 1600 320 1768 480 c 128,-1,10
 1936 640 1936 640 1936 1040 c 2,11,-1
 1936 2352 l 1,12,-1
 2384 2352 l 1,13,-1
 2384 1040 l 2,14,15
 2384 448 2384 448 2072 216 c 128,-1,16
 1760 -16 1760 -16 1296 -16 c 128,-1,17
 832 -16 832 -16 544 216 c 128,-1,18
 256 448 256 448 256 1040 c 2,19,-1
 256 2352 l 1,20,-1
 704 2352 l 1,21,-1
 704 1040 l 2,22,23
 704 640 704 640 864 480 c 128,-1,24
 1024 320 1024 320 1312 320 c 256,8,9
EndSplineSet
EndChar

StartChar: Yacute
Encoding: 221 221 159
Width: 2416
GlyphClass: 2
Flags: W
LayerCount: 2
Fore
SplineSet
1840 3520 m 1,0,-1
 1024 2816 l 1,1,-1
 640 2816 l 1,2,-1
 1200 3520 l 1,3,-1
 1840 3520 l 1,0,-1
1424 0 m 1,4,-1
 1008 0 l 1,5,-1
 1008 1104 l 1,6,-1
 224 2352 l 1,7,-1
 640 2352 l 1,8,-1
 1216 1408 l 1,9,-1
 1792 2352 l 1,10,-1
 2208 2352 l 1,11,-1
 1424 1104 l 1,12,-1
 1424 0 l 1,4,-1
EndSplineSet
EndChar

StartChar: Thorn
Encoding: 222 222 160
Width: 2224
GlyphClass: 2
Flags: W
LayerCount: 2
Fore
SplineSet
672 0 m 1,0,-1
 304 0 l 1,1,-1
 304 3248 l 1,2,-1
 672 3248 l 1,3,-1
 672 2384 l 1,4,-1
 1216 2384 l 2,5,6
 2000 2384 2000 2384 2016 1632 c 256,7,8
 2032 880 2032 880 1216 864 c 1,9,-1
 672 864 l 1,10,-1
 672 0 l 1,0,-1
1696 1632 m 1,11,12
 1696 2096 1696 2096 1216 2112 c 1,13,-1
 672 2112 l 1,14,-1
 672 1120 l 1,15,-1
 1216 1120 l 2,16,17
 1680 1120 1680 1120 1696 1632 c 1,11,12
EndSplineSet
EndChar

StartChar: germandbls
Encoding: 223 223 161
Width: 2224
GlyphClass: 2
Flags: W
LayerCount: 2
Fore
SplineSet
1088 3104 m 2,0,1
 1392 3104 1392 3104 1616 2872 c 128,-1,2
 1840 2640 1840 2640 1840 2304 c 0,3,4
 1840 2016 1840 2016 1688 1848 c 128,-1,5
 1536 1680 1536 1680 1424 1648 c 1,6,7
 1664 1600 1664 1600 1856 1376 c 128,-1,8
 2048 1152 2048 1152 2048 848 c 0,9,10
 2048 -16 2048 -16 1232 0 c 1,11,-1
 768 0 l 1,12,-1
 768 288 l 1,13,-1
 1168 288 l 2,14,15
 1696 288 1696 288 1696 832 c 0,16,17
 1696 1168 1696 1168 1432 1344 c 128,-1,18
 1168 1520 1168 1520 880 1520 c 1,19,-1
 880 1776 l 1,20,21
 1152 1776 1152 1776 1312 1920 c 128,-1,22
 1472 2064 1472 2064 1472 2304 c 0,23,24
 1472 2576 1472 2576 1336 2696 c 128,-1,25
 1200 2816 1200 2816 960 2816 c 0,26,27
 784 2816 784 2816 664 2664 c 128,-1,28
 544 2512 544 2512 544 2176 c 2,29,-1
 544 0 l 1,30,-1
 176 0 l 1,31,-1
 176 2176 l 2,32,33
 176 2704 176 2704 408 2904 c 128,-1,34
 640 3104 640 3104 896 3104 c 2,35,-1
 1088 3104 l 2,0,1
EndSplineSet
EndChar

StartChar: agrave
Encoding: 224 224 162
Width: 1952
GlyphClass: 2
Flags: W
LayerCount: 2
Fore
SplineSet
496 3248 m 1,0,-1
 1008 3248 l 1,1,-1
 1456 2544 l 1,2,-1
 1152 2544 l 1,3,-1
 496 3248 l 1,0,-1
1744 0 m 1,4,-1
 1456 0 l 1,5,-1
 1392 176 l 1,6,7
 1152 0 1152 0 768 0 c 0,8,9
 192 0 192 0 192 608 c 0,10,11
 192 1280 192 1280 1040 1280 c 2,12,-1
 1360 1280 l 1,13,-1
 1360 1392 l 2,14,15
 1360 1552 1360 1552 1272 1616 c 128,-1,16
 1184 1680 1184 1680 1040 1680 c 2,17,-1
 768 1680 l 2,18,19
 496 1680 496 1680 336 1568 c 1,20,-1
 208 1744 l 1,21,22
 464 1920 464 1920 752 1920 c 2,23,-1
 1104 1920 l 2,24,25
 1312 1920 1312 1920 1488 1800 c 128,-1,26
 1664 1680 1664 1680 1664 1392 c 2,27,-1
 1664 416 l 1,28,-1
 1744 0 l 1,4,-1
1360 1040 m 1,29,-1
 1040 1040 l 2,30,31
 544 1040 544 1040 528 592 c 1,32,33
 528 224 528 224 848 224 c 0,34,35
 1104 224 1104 224 1360 432 c 1,36,-1
 1360 1040 l 1,29,-1
EndSplineSet
EndChar

StartChar: aacute
Encoding: 225 225 163
Width: 1952
GlyphClass: 2
Flags: W
LayerCount: 2
Fore
SplineSet
1456 3248 m 1,0,-1
 800 2544 l 1,1,-1
 496 2544 l 1,2,-1
 944 3248 l 1,3,-1
 1456 3248 l 1,0,-1
1744 0 m 1,4,-1
 1456 0 l 1,5,-1
 1392 176 l 1,6,7
 1152 0 1152 0 768 0 c 0,8,9
 192 0 192 0 192 608 c 0,10,11
 192 1280 192 1280 1040 1280 c 2,12,-1
 1360 1280 l 1,13,-1
 1360 1392 l 2,14,15
 1360 1552 1360 1552 1272 1616 c 128,-1,16
 1184 1680 1184 1680 1040 1680 c 2,17,-1
 768 1680 l 2,18,19
 496 1680 496 1680 336 1568 c 1,20,-1
 208 1744 l 1,21,22
 464 1920 464 1920 752 1920 c 2,23,-1
 1104 1920 l 2,24,25
 1312 1920 1312 1920 1488 1800 c 128,-1,26
 1664 1680 1664 1680 1664 1392 c 2,27,-1
 1664 416 l 1,28,-1
 1744 0 l 1,4,-1
1360 1040 m 1,29,-1
 1040 1040 l 2,30,31
 544 1040 544 1040 528 592 c 1,32,33
 528 224 528 224 848 224 c 0,34,35
 1104 224 1104 224 1360 432 c 1,36,-1
 1360 1040 l 1,29,-1
EndSplineSet
EndChar

StartChar: acircumflex
Encoding: 226 226 164
Width: 1952
GlyphClass: 2
Flags: W
LayerCount: 2
Fore
SplineSet
896 3248 m 1,0,-1
 1056 3248 l 1,1,-1
 1584 2672 l 1,2,-1
 1392 2544 l 1,3,-1
 976 2992 l 1,4,-1
 576 2544 l 1,5,-1
 368 2672 l 1,6,-1
 896 3248 l 1,0,-1
1744 0 m 1,7,-1
 1456 0 l 1,8,-1
 1392 176 l 1,9,10
 1152 0 1152 0 768 0 c 0,11,12
 192 0 192 0 192 608 c 0,13,14
 192 1280 192 1280 1040 1280 c 2,15,-1
 1360 1280 l 1,16,-1
 1360 1392 l 2,17,18
 1360 1552 1360 1552 1272 1616 c 128,-1,19
 1184 1680 1184 1680 1040 1680 c 2,20,-1
 768 1680 l 2,21,22
 496 1680 496 1680 336 1568 c 1,23,-1
 208 1744 l 1,24,25
 464 1920 464 1920 752 1920 c 2,26,-1
 1104 1920 l 2,27,28
 1312 1920 1312 1920 1488 1800 c 128,-1,29
 1664 1680 1664 1680 1664 1392 c 2,30,-1
 1664 416 l 1,31,-1
 1744 0 l 1,7,-1
1360 1040 m 1,32,-1
 1040 1040 l 2,33,34
 544 1040 544 1040 528 592 c 1,35,36
 528 224 528 224 848 224 c 0,37,38
 1104 224 1104 224 1360 432 c 1,39,-1
 1360 1040 l 1,32,-1
EndSplineSet
EndChar

StartChar: atilde
Encoding: 227 227 165
Width: 1952
GlyphClass: 2
Flags: W
LayerCount: 2
Fore
SplineSet
1760 2672 m 1,0,1
 1504 2432 1504 2432 1344 2432 c 256,2,3
 1184 2432 1184 2432 1056 2544 c 1,4,-1
 848 2736 l 1,5,6
 752 2816 752 2816 624 2816 c 0,7,8
 480 2816 480 2816 192 2544 c 1,9,-1
 192 2848 l 1,10,11
 448 3088 448 3088 624 3088 c 0,12,13
 784 3088 784 3088 896 2976 c 1,14,-1
 1104 2784 l 1,15,16
 1216 2704 1216 2704 1344 2704 c 256,17,18
 1472 2704 1472 2704 1760 2976 c 1,19,-1
 1760 2672 l 1,0,1
1744 0 m 1,20,-1
 1456 0 l 1,21,-1
 1392 176 l 1,22,23
 1152 0 1152 0 768 0 c 0,24,25
 192 0 192 0 192 608 c 0,26,27
 192 1280 192 1280 1040 1280 c 2,28,-1
 1360 1280 l 1,29,-1
 1360 1392 l 2,30,31
 1360 1552 1360 1552 1272 1616 c 128,-1,32
 1184 1680 1184 1680 1040 1680 c 2,33,-1
 768 1680 l 2,34,35
 496 1680 496 1680 336 1568 c 1,36,-1
 208 1744 l 1,37,38
 464 1920 464 1920 752 1920 c 2,39,-1
 1104 1920 l 2,40,41
 1312 1920 1312 1920 1488 1800 c 128,-1,42
 1664 1680 1664 1680 1664 1392 c 2,43,-1
 1664 416 l 1,44,-1
 1744 0 l 1,20,-1
1360 1040 m 1,45,-1
 1040 1040 l 2,46,47
 544 1040 544 1040 528 592 c 1,48,49
 528 224 528 224 848 224 c 0,50,51
 1104 224 1104 224 1360 432 c 1,52,-1
 1360 1040 l 1,45,-1
EndSplineSet
EndChar

StartChar: adieresis
Encoding: 228 228 166
Width: 1952
GlyphClass: 2
Flags: W
LayerCount: 2
Fore
SplineSet
240 2352 m 1,0,-1
 240 3104 l 1,1,-1
 688 3104 l 1,2,-1
 688 2352 l 1,3,-1
 240 2352 l 1,0,-1
1184 2352 m 1,4,-1
 1184 3104 l 1,5,-1
 1632 3104 l 1,6,-1
 1632 2352 l 1,7,-1
 1184 2352 l 1,4,-1
1744 0 m 1,8,-1
 1456 0 l 1,9,-1
 1392 176 l 1,10,11
 1152 0 1152 0 768 0 c 0,12,13
 192 0 192 0 192 608 c 0,14,15
 192 1280 192 1280 1040 1280 c 2,16,-1
 1360 1280 l 1,17,-1
 1360 1392 l 2,18,19
 1360 1552 1360 1552 1272 1616 c 128,-1,20
 1184 1680 1184 1680 1040 1680 c 2,21,-1
 768 1680 l 2,22,23
 496 1680 496 1680 336 1568 c 1,24,-1
 208 1744 l 1,25,26
 464 1920 464 1920 752 1920 c 2,27,-1
 1104 1920 l 2,28,29
 1312 1920 1312 1920 1488 1800 c 128,-1,30
 1664 1680 1664 1680 1664 1392 c 2,31,-1
 1664 416 l 1,32,-1
 1744 0 l 1,8,-1
1360 1040 m 1,33,-1
 1040 1040 l 2,34,35
 544 1040 544 1040 528 592 c 1,36,37
 528 224 528 224 848 224 c 0,38,39
 1104 224 1104 224 1360 432 c 1,40,-1
 1360 1040 l 1,33,-1
EndSplineSet
EndChar

StartChar: aring
Encoding: 229 229 167
Width: 1952
GlyphClass: 2
Flags: W
LayerCount: 2
Fore
SplineSet
512 2800 m 0,0,1
 512 2992 512 2992 656 3136 c 1,2,3
 784 3280 784 3280 976 3280 c 256,4,5
 1168 3280 1168 3280 1312 3136 c 1,6,7
 1440 2992 1440 2992 1440 2800 c 0,8,9
 1440 2592 1440 2592 1312 2448 c 1,10,11
 1168 2304 1168 2304 976 2304 c 256,12,13
 784 2304 784 2304 656 2448 c 1,14,15
 512 2592 512 2592 512 2800 c 0,0,1
672 2784 m 0,16,17
 672 2656 672 2656 760 2560 c 128,-1,18
 848 2464 848 2464 976 2464 c 256,19,20
 1104 2464 1104 2464 1200 2560 c 1,21,22
 1280 2656 1280 2656 1280 2784 c 0,23,24
 1280 2928 1280 2928 1192 3024 c 128,-1,25
 1104 3120 1104 3120 976 3120 c 256,26,27
 848 3120 848 3120 752 3024 c 1,28,29
 672 2928 672 2928 672 2784 c 0,16,17
1744 0 m 1,30,-1
 1456 0 l 1,31,-1
 1392 176 l 1,32,33
 1152 0 1152 0 768 0 c 0,34,35
 192 0 192 0 192 608 c 0,36,37
 192 1280 192 1280 1040 1280 c 2,38,-1
 1360 1280 l 1,39,-1
 1360 1392 l 2,40,41
 1360 1552 1360 1552 1272 1616 c 128,-1,42
 1184 1680 1184 1680 1040 1680 c 2,43,-1
 768 1680 l 2,44,45
 496 1680 496 1680 336 1568 c 1,46,-1
 208 1744 l 1,47,48
 464 1920 464 1920 752 1920 c 2,49,-1
 1104 1920 l 2,50,51
 1312 1920 1312 1920 1488 1800 c 128,-1,52
 1664 1680 1664 1680 1664 1392 c 2,53,-1
 1664 416 l 1,54,-1
 1744 0 l 1,30,-1
1360 1040 m 1,55,-1
 1040 1040 l 2,56,57
 544 1040 544 1040 528 592 c 1,58,59
 528 224 528 224 848 224 c 0,60,61
 1104 224 1104 224 1360 432 c 1,62,-1
 1360 1040 l 1,55,-1
EndSplineSet
EndChar

StartChar: ae
Encoding: 230 230 168
Width: 2736
GlyphClass: 2
Flags: W
LayerCount: 2
Fore
SplineSet
1424 1216 m 1,0,-1
 2208 1216 l 1,1,2
 2144 1632 2144 1632 1824 1648 c 1,3,4
 1488 1632 1488 1632 1424 1216 c 1,0,-1
1312 1648 m 1,5,6
 1456 1920 1456 1920 1744 1920 c 2,7,-1
 1904 1920 l 2,8,9
 2128 1920 2128 1920 2328 1664 c 128,-1,10
 2528 1408 2528 1408 2528 960 c 1,11,-1
 1408 960 l 1,12,13
 1408 640 1408 640 1544 456 c 128,-1,14
 1680 272 1680 272 1872 272 c 0,15,16
 2016 272 2016 272 2104 360 c 128,-1,17
 2192 448 2192 448 2240 608 c 1,18,-1
 2512 608 l 1,19,20
 2384 -16 2384 -16 1872 -16 c 0,21,22
 1488 -16 1488 -16 1312 288 c 1,23,24
 992 0 992 0 640 -16 c 1,25,26
 400 -16 400 -16 296 120 c 128,-1,27
 192 256 192 256 192 480 c 0,28,29
 192 896 192 896 440 1056 c 128,-1,30
 688 1216 688 1216 1136 1264 c 1,31,32
 1136 1664 1136 1664 816 1696 c 1,33,34
 544 1696 544 1696 512 1392 c 1,35,-1
 224 1392 l 1,36,37
 272 1712 272 1712 416 1816 c 128,-1,38
 560 1920 560 1920 720 1920 c 2,39,-1
 928 1920 l 2,40,41
 1184 1920 1184 1920 1312 1648 c 1,5,6
1136 512 m 1,42,43
 1136 1008 1136 1008 1136 1008 c 1,44,45
 800 944 800 944 632 840 c 128,-1,46
 464 736 464 736 464 480 c 0,47,48
 464 288 464 288 640 288 c 0,49,50
 928 288 928 288 1136 512 c 1,42,43
EndSplineSet
EndChar

StartChar: ccedilla
Encoding: 231 231 169
Width: 2048
GlyphClass: 2
Flags: W
LayerCount: 2
Fore
SplineSet
1168 0 m 1,0,1
 1248 -64 1248 -64 1344 -80 c 1,2,3
 1456 -128 1456 -128 1512 -176 c 128,-1,4
 1568 -224 1568 -224 1568 -288 c 0,5,6
 1568 -416 1568 -416 1440 -496 c 128,-1,7
 1312 -576 1312 -576 1088 -576 c 0,8,9
 896 -576 896 -576 776 -536 c 128,-1,10
 656 -496 656 -496 512 -352 c 1,11,-1
 656 -208 l 1,12,13
 768 -320 768 -320 864 -352 c 128,-1,14
 960 -384 960 -384 1088 -384 c 0,15,16
 1184 -384 1184 -384 1256 -368 c 128,-1,17
 1328 -352 1328 -352 1328 -288 c 0,18,19
 1328 -240 1328 -240 1168 -192 c 1,20,21
 976 -144 976 -144 928 0 c 1,22,23
 592 32 592 32 384 288 c 128,-1,24
 176 544 176 544 176 992 c 0,25,26
 176 1424 176 1424 392 1672 c 128,-1,27
 608 1920 608 1920 944 1920 c 2,28,-1
 1152 1920 l 2,29,30
 1440 1920 1440 1920 1648 1696 c 128,-1,31
 1856 1472 1856 1472 1872 1184 c 1,32,-1
 1568 1184 l 1,33,34
 1536 1392 1536 1392 1400 1520 c 128,-1,35
 1264 1648 1264 1648 1040 1648 c 0,36,37
 784 1648 784 1648 624 1472 c 128,-1,38
 464 1296 464 1296 464 992 c 0,39,40
 464 608 464 608 624 448 c 128,-1,41
 784 288 784 288 1040 288 c 0,42,43
 1280 288 1280 288 1408 400 c 128,-1,44
 1536 512 1536 512 1568 736 c 1,45,-1
 1872 736 l 1,46,47
 1840 400 1840 400 1672 216 c 128,-1,48
 1504 32 1504 32 1168 0 c 1,0,1
EndSplineSet
EndChar

StartChar: egrave
Encoding: 232 232 170
Width: 2048
GlyphClass: 2
Flags: W
LayerCount: 2
Fore
SplineSet
512 3248 m 1,0,-1
 1056 3248 l 1,1,-1
 1536 2544 l 1,2,-1
 1216 2544 l 1,3,-1
 512 3248 l 1,0,-1
592 1056 m 1,4,5
 576 896 576 896 592 752 c 0,6,7
 624 464 624 464 752 352 c 128,-1,8
 880 240 880 240 1040 240 c 256,9,10
 1200 240 1200 240 1320 296 c 128,-1,11
 1440 352 1440 352 1536 528 c 1,12,-1
 1792 368 l 1,13,14
 1696 208 1696 208 1536 104 c 128,-1,15
 1376 0 1376 0 1136 0 c 2,16,-1
 960 0 l 2,17,18
 640 0 640 0 440 216 c 128,-1,19
 240 432 240 432 240 896 c 2,20,-1
 240 1088 l 2,21,22
 240 1536 240 1536 448 1728 c 128,-1,23
 656 1920 656 1920 944 1920 c 2,24,-1
 1136 1920 l 2,25,26
 1408 1920 1408 1920 1608 1728 c 128,-1,27
 1808 1536 1808 1536 1808 1280 c 2,28,-1
 1808 1056 l 1,29,-1
 592 1056 l 1,4,5
1472 1280 m 1,30,31
 1456 1456 1456 1456 1360 1568 c 128,-1,32
 1264 1680 1264 1680 1040 1680 c 0,33,34
 800 1680 800 1680 712 1560 c 128,-1,35
 624 1440 624 1440 608 1280 c 1,36,-1
 1472 1280 l 1,30,31
EndSplineSet
EndChar

StartChar: eacute
Encoding: 233 233 171
Width: 2048
GlyphClass: 2
Flags: W
LayerCount: 2
Fore
SplineSet
1536 3248 m 1,0,-1
 832 2544 l 1,1,-1
 512 2544 l 1,2,-1
 992 3248 l 1,3,-1
 1536 3248 l 1,0,-1
592 1056 m 1,4,5
 576 896 576 896 592 752 c 0,6,7
 624 464 624 464 752 352 c 128,-1,8
 880 240 880 240 1040 240 c 256,9,10
 1200 240 1200 240 1320 296 c 128,-1,11
 1440 352 1440 352 1536 528 c 1,12,-1
 1792 368 l 1,13,14
 1696 208 1696 208 1536 104 c 128,-1,15
 1376 0 1376 0 1136 0 c 2,16,-1
 960 0 l 2,17,18
 640 0 640 0 440 216 c 128,-1,19
 240 432 240 432 240 896 c 2,20,-1
 240 1088 l 2,21,22
 240 1536 240 1536 448 1728 c 128,-1,23
 656 1920 656 1920 944 1920 c 2,24,-1
 1136 1920 l 2,25,26
 1408 1920 1408 1920 1608 1728 c 128,-1,27
 1808 1536 1808 1536 1808 1280 c 2,28,-1
 1808 1056 l 1,29,-1
 592 1056 l 1,4,5
1472 1280 m 1,30,31
 1456 1456 1456 1456 1360 1568 c 128,-1,32
 1264 1680 1264 1680 1040 1680 c 0,33,34
 800 1680 800 1680 712 1560 c 128,-1,35
 624 1440 624 1440 608 1280 c 1,36,-1
 1472 1280 l 1,30,31
EndSplineSet
EndChar

StartChar: ecircumflex
Encoding: 234 234 172
Width: 2048
GlyphClass: 2
Flags: W
LayerCount: 2
Fore
SplineSet
944 3248 m 1,0,-1
 1104 3248 l 1,1,-1
 1664 2672 l 1,2,-1
 1456 2544 l 1,3,-1
 1024 2992 l 1,4,-1
 592 2544 l 1,5,-1
 384 2672 l 1,6,-1
 944 3248 l 1,0,-1
592 1056 m 1,7,8
 576 896 576 896 592 752 c 0,9,10
 624 464 624 464 752 352 c 128,-1,11
 880 240 880 240 1040 240 c 256,12,13
 1200 240 1200 240 1320 296 c 128,-1,14
 1440 352 1440 352 1536 528 c 1,15,-1
 1792 368 l 1,16,17
 1696 208 1696 208 1536 104 c 128,-1,18
 1376 0 1376 0 1136 0 c 2,19,-1
 960 0 l 2,20,21
 640 0 640 0 440 216 c 128,-1,22
 240 432 240 432 240 896 c 2,23,-1
 240 1088 l 2,24,25
 240 1536 240 1536 448 1728 c 128,-1,26
 656 1920 656 1920 944 1920 c 2,27,-1
 1136 1920 l 2,28,29
 1408 1920 1408 1920 1608 1728 c 128,-1,30
 1808 1536 1808 1536 1808 1280 c 2,31,-1
 1808 1056 l 1,32,-1
 592 1056 l 1,7,8
1472 1280 m 1,33,34
 1456 1456 1456 1456 1360 1568 c 128,-1,35
 1264 1680 1264 1680 1040 1680 c 0,36,37
 800 1680 800 1680 712 1560 c 128,-1,38
 624 1440 624 1440 608 1280 c 1,39,-1
 1472 1280 l 1,33,34
EndSplineSet
EndChar

StartChar: edieresis
Encoding: 235 235 173
Width: 2048
GlyphClass: 2
Flags: W
LayerCount: 2
Fore
SplineSet
240 2544 m 1,0,-1
 240 3024 l 1,1,-1
 720 3024 l 1,2,-1
 720 2544 l 1,3,-1
 240 2544 l 1,0,-1
1232 2544 m 1,4,-1
 1232 3024 l 1,5,-1
 1712 3024 l 1,6,-1
 1712 2544 l 1,7,-1
 1232 2544 l 1,4,-1
592 1056 m 1,8,9
 576 896 576 896 592 752 c 0,10,11
 624 464 624 464 752 352 c 128,-1,12
 880 240 880 240 1040 240 c 256,13,14
 1200 240 1200 240 1320 296 c 128,-1,15
 1440 352 1440 352 1536 528 c 1,16,-1
 1792 368 l 1,17,18
 1696 208 1696 208 1536 104 c 128,-1,19
 1376 0 1376 0 1136 0 c 2,20,-1
 960 0 l 2,21,22
 640 0 640 0 440 216 c 128,-1,23
 240 432 240 432 240 896 c 2,24,-1
 240 1088 l 2,25,26
 240 1536 240 1536 448 1728 c 128,-1,27
 656 1920 656 1920 944 1920 c 2,28,-1
 1136 1920 l 2,29,30
 1408 1920 1408 1920 1608 1728 c 128,-1,31
 1808 1536 1808 1536 1808 1280 c 2,32,-1
 1808 1056 l 1,33,-1
 592 1056 l 1,8,9
1472 1280 m 1,34,35
 1456 1456 1456 1456 1360 1568 c 128,-1,36
 1264 1680 1264 1680 1040 1680 c 0,37,38
 800 1680 800 1680 712 1560 c 128,-1,39
 624 1440 624 1440 608 1280 c 1,40,-1
 1472 1280 l 1,34,35
EndSplineSet
EndChar

StartChar: igrave
Encoding: 236 236 174
Width: 1200
GlyphClass: 2
Flags: W
LayerCount: 2
Fore
SplineSet
304 3248 m 1,0,-1
 624 3248 l 1,1,-1
 896 2544 l 1,2,-1
 704 2544 l 1,3,-1
 304 3248 l 1,0,-1
704 0 m 1,4,-1
 496 0 l 1,5,-1
 496 1920 l 1,6,-1
 704 1920 l 1,7,-1
 704 0 l 1,4,-1
EndSplineSet
EndChar

StartChar: iacute
Encoding: 237 237 175
Width: 1200
GlyphClass: 2
Flags: W
LayerCount: 2
Fore
SplineSet
896 3248 m 1,0,-1
 496 2544 l 1,1,-1
 304 2544 l 1,2,-1
 576 3248 l 1,3,-1
 896 3248 l 1,0,-1
704 0 m 1,4,-1
 496 0 l 1,5,-1
 496 1920 l 1,6,-1
 704 1920 l 1,7,-1
 704 0 l 1,4,-1
EndSplineSet
EndChar

StartChar: icircumflex
Encoding: 238 238 176
Width: 1776
GlyphClass: 2
Flags: W
LayerCount: 2
Fore
SplineSet
816 3248 m 1,0,-1
 960 3248 l 1,1,-1
 1440 2688 l 1,2,-1
 1264 2544 l 1,3,-1
 896 2992 l 1,4,-1
 512 2544 l 1,5,-1
 336 2688 l 1,6,-1
 816 3248 l 1,0,-1
1040 0 m 1,7,-1
 736 0 l 1,8,-1
 736 1920 l 1,9,-1
 1040 1920 l 1,10,-1
 1040 0 l 1,7,-1
EndSplineSet
EndChar

StartChar: idieresis
Encoding: 239 239 177
Width: 1472
GlyphClass: 2
Flags: W
LayerCount: 2
Fore
SplineSet
176 2544 m 1,0,-1
 176 3024 l 1,1,-1
 528 3024 l 1,2,-1
 528 2544 l 1,3,-1
 176 2544 l 1,0,-1
896 2544 m 1,4,-1
 896 3024 l 1,5,-1
 1232 3024 l 1,6,-1
 1232 2544 l 1,7,-1
 896 2544 l 1,4,-1
864 0 m 1,8,-1
 608 0 l 1,9,-1
 608 1920 l 1,10,-1
 864 1920 l 1,11,-1
 864 0 l 1,8,-1
EndSplineSet
EndChar

StartChar: eth
Encoding: 240 240 178
Width: 2096
GlyphClass: 2
Flags: W
LayerCount: 2
Fore
SplineSet
976 304 m 0,0,1
 1264 304 1264 304 1384 464 c 128,-1,2
 1504 624 1504 624 1504 944 c 256,3,4
 1504 1264 1504 1264 1352 1416 c 128,-1,5
 1200 1568 1200 1568 976 1568 c 0,6,7
 720 1568 720 1568 592 1360 c 128,-1,8
 464 1152 464 1152 464 944 c 0,9,10
 464 624 464 624 624 464 c 128,-1,11
 784 304 784 304 976 304 c 0,0,1
1536 2608 m 1,12,-1
 1952 2752 l 1,13,-1
 2048 2496 l 1,14,-1
 1696 2368 l 1,15,16
 1888 2000 1888 2000 1888 1216 c 0,17,18
 1888 592 1888 592 1648 296 c 128,-1,19
 1408 0 1408 0 1008 0 c 1,20,21
 592 -16 592 -16 376 280 c 128,-1,22
 160 576 160 576 160 944 c 0,23,24
 160 1440 160 1440 400 1648 c 128,-1,25
 640 1856 640 1856 992 1856 c 0,26,27
 1136 1856 1136 1856 1288 1800 c 128,-1,28
 1440 1744 1440 1744 1520 1648 c 1,29,30
 1504 2048 1504 2048 1392 2272 c 1,31,-1
 448 1952 l 1,32,-1
 352 2208 l 1,33,-1
 1216 2496 l 1,34,35
 1056 2656 1056 2656 800 2784 c 1,36,-1
 960 3024 l 1,37,38
 1264 2880 1264 2880 1536 2608 c 1,12,-1
EndSplineSet
EndChar

StartChar: ntilde
Encoding: 241 241 179
Width: 2048
GlyphClass: 2
Flags: W
LayerCount: 2
Fore
SplineSet
1840 2672 m 1,0,1
 1584 2432 1584 2432 1408 2432 c 256,2,3
 1232 2432 1232 2432 1104 2544 c 2,4,-1
 880 2736 l 2,5,6
 784 2816 784 2816 656 2816 c 0,7,8
 512 2816 512 2816 208 2544 c 1,9,-1
 208 2848 l 1,10,11
 480 3088 480 3088 656 3088 c 0,12,13
 816 3088 816 3088 944 2976 c 2,14,-1
 1168 2784 l 2,15,16
 1264 2704 1264 2704 1408 2704 c 256,17,18
 1552 2704 1552 2704 1840 2976 c 1,19,-1
 1840 2672 l 1,0,1
1728 0 m 1,20,-1
 1392 0 l 1,21,-1
 1392 1376 l 2,22,23
 1392 1520 1392 1520 1336 1576 c 128,-1,24
 1280 1632 1280 1632 1120 1632 c 0,25,26
 992 1632 992 1632 896 1568 c 128,-1,27
 800 1504 800 1504 656 1328 c 1,28,-1
 656 0 l 1,29,-1
 320 0 l 1,30,-1
 320 1920 l 1,31,-1
 656 1920 l 1,32,-1
 656 1648 l 1,33,34
 736 1776 736 1776 832 1848 c 128,-1,35
 928 1920 928 1920 1104 1920 c 2,36,-1
 1296 1920 l 2,37,38
 1504 1920 1504 1920 1616 1792 c 128,-1,39
 1728 1664 1728 1664 1728 1424 c 2,40,-1
 1728 0 l 1,20,-1
EndSplineSet
EndChar

StartChar: ograve
Encoding: 242 242 180
Width: 2080
GlyphClass: 2
Flags: W
LayerCount: 2
Fore
SplineSet
528 3248 m 1,0,-1
 1072 3248 l 1,1,-1
 1552 2544 l 1,2,-1
 1232 2544 l 1,3,-1
 528 3248 l 1,0,-1
1152 1920 m 2,4,5
 1552 1920 1552 1920 1744 1664 c 128,-1,6
 1936 1408 1936 1408 1936 1008 c 2,7,-1
 1936 960 l 2,8,9
 1936 512 1936 512 1736 256 c 128,-1,10
 1536 0 1536 0 1152 0 c 2,11,-1
 912 0 l 2,12,13
 528 0 528 0 344 240 c 128,-1,14
 160 480 160 480 160 960 c 2,15,-1
 160 1008 l 2,16,17
 160 1424 160 1424 360 1672 c 128,-1,18
 560 1920 560 1920 912 1920 c 2,19,-1
 1152 1920 l 2,4,5
512 1008 m 2,20,-1
 512 960 l 2,21,22
 512 576 512 576 616 424 c 128,-1,23
 720 272 720 272 912 272 c 2,24,-1
 1152 272 l 2,25,26
 1344 272 1344 272 1464 448 c 128,-1,27
 1584 624 1584 624 1584 960 c 2,28,-1
 1584 1008 l 2,29,30
 1584 1328 1584 1328 1472 1488 c 128,-1,31
 1360 1648 1360 1648 1152 1648 c 2,32,-1
 912 1648 l 2,33,34
 736 1648 736 1648 624 1496 c 128,-1,35
 512 1344 512 1344 512 1008 c 2,20,-1
EndSplineSet
EndChar

StartChar: oacute
Encoding: 243 243 181
Width: 2080
GlyphClass: 2
Flags: W
LayerCount: 2
Fore
SplineSet
1552 3248 m 1,0,-1
 848 2544 l 1,1,-1
 528 2544 l 1,2,-1
 1008 3248 l 1,3,-1
 1552 3248 l 1,0,-1
1152 1920 m 2,4,5
 1552 1920 1552 1920 1744 1664 c 128,-1,6
 1936 1408 1936 1408 1936 1008 c 2,7,-1
 1936 960 l 2,8,9
 1936 512 1936 512 1736 256 c 128,-1,10
 1536 0 1536 0 1152 0 c 2,11,-1
 912 0 l 2,12,13
 528 0 528 0 344 240 c 128,-1,14
 160 480 160 480 160 960 c 2,15,-1
 160 1008 l 2,16,17
 160 1424 160 1424 360 1672 c 128,-1,18
 560 1920 560 1920 912 1920 c 2,19,-1
 1152 1920 l 2,4,5
512 1008 m 2,20,-1
 512 960 l 2,21,22
 512 576 512 576 616 424 c 128,-1,23
 720 272 720 272 912 272 c 2,24,-1
 1152 272 l 2,25,26
 1344 272 1344 272 1464 448 c 128,-1,27
 1584 624 1584 624 1584 960 c 2,28,-1
 1584 1008 l 2,29,30
 1584 1328 1584 1328 1472 1488 c 128,-1,31
 1360 1648 1360 1648 1152 1648 c 2,32,-1
 912 1648 l 2,33,34
 736 1648 736 1648 624 1496 c 128,-1,35
 512 1344 512 1344 512 1008 c 2,20,-1
EndSplineSet
EndChar

StartChar: ocircumflex
Encoding: 244 244 182
Width: 2080
GlyphClass: 2
Flags: W
LayerCount: 2
Fore
SplineSet
960 3248 m 1,0,-1
 1120 3248 l 1,1,-1
 1680 2672 l 1,2,-1
 1488 2544 l 1,3,-1
 1040 2992 l 1,4,-1
 608 2544 l 1,5,-1
 400 2672 l 1,6,-1
 960 3248 l 1,0,-1
1152 1920 m 2,7,8
 1552 1920 1552 1920 1744 1664 c 128,-1,9
 1936 1408 1936 1408 1936 1008 c 2,10,-1
 1936 960 l 2,11,12
 1936 512 1936 512 1736 256 c 128,-1,13
 1536 0 1536 0 1152 0 c 2,14,-1
 912 0 l 2,15,16
 528 0 528 0 344 240 c 128,-1,17
 160 480 160 480 160 960 c 2,18,-1
 160 1008 l 2,19,20
 160 1424 160 1424 360 1672 c 128,-1,21
 560 1920 560 1920 912 1920 c 2,22,-1
 1152 1920 l 2,7,8
512 1008 m 2,23,-1
 512 960 l 2,24,25
 512 576 512 576 616 424 c 128,-1,26
 720 272 720 272 912 272 c 2,27,-1
 1152 272 l 2,28,29
 1344 272 1344 272 1464 448 c 128,-1,30
 1584 624 1584 624 1584 960 c 2,31,-1
 1584 1008 l 2,32,33
 1584 1328 1584 1328 1472 1488 c 128,-1,34
 1360 1648 1360 1648 1152 1648 c 2,35,-1
 912 1648 l 2,36,37
 736 1648 736 1648 624 1496 c 128,-1,38
 512 1344 512 1344 512 1008 c 2,23,-1
EndSplineSet
EndChar

StartChar: otilde
Encoding: 245 245 183
Width: 2080
GlyphClass: 2
Flags: W
LayerCount: 2
Fore
SplineSet
1872 2672 m 1,0,1
 1600 2432 1600 2432 1424 2432 c 256,2,3
 1248 2432 1248 2432 1120 2544 c 2,4,-1
 896 2736 l 2,5,6
 800 2816 800 2816 656 2816 c 256,7,8
 512 2816 512 2816 208 2544 c 1,9,-1
 208 2848 l 1,10,11
 480 3088 480 3088 656 3088 c 256,12,13
 832 3088 832 3088 960 2976 c 2,14,-1
 1184 2784 l 2,15,16
 1280 2704 1280 2704 1424 2704 c 256,17,18
 1568 2704 1568 2704 1872 2976 c 1,19,-1
 1872 2672 l 1,0,1
1152 1920 m 2,20,21
 1552 1920 1552 1920 1744 1664 c 128,-1,22
 1936 1408 1936 1408 1936 1008 c 2,23,-1
 1936 960 l 2,24,25
 1936 512 1936 512 1736 256 c 128,-1,26
 1536 0 1536 0 1152 0 c 2,27,-1
 912 0 l 2,28,29
 528 0 528 0 344 240 c 128,-1,30
 160 480 160 480 160 960 c 2,31,-1
 160 1008 l 2,32,33
 160 1424 160 1424 360 1672 c 128,-1,34
 560 1920 560 1920 912 1920 c 2,35,-1
 1152 1920 l 2,20,21
512 1008 m 2,36,-1
 512 960 l 2,37,38
 512 576 512 576 616 424 c 128,-1,39
 720 272 720 272 912 272 c 2,40,-1
 1152 272 l 2,41,42
 1344 272 1344 272 1464 448 c 128,-1,43
 1584 624 1584 624 1584 960 c 2,44,-1
 1584 1008 l 2,45,46
 1584 1328 1584 1328 1472 1488 c 128,-1,47
 1360 1648 1360 1648 1152 1648 c 2,48,-1
 912 1648 l 2,49,50
 736 1648 736 1648 624 1496 c 128,-1,51
 512 1344 512 1344 512 1008 c 2,36,-1
EndSplineSet
EndChar

StartChar: odieresis
Encoding: 246 246 184
Width: 2080
GlyphClass: 2
Flags: W
LayerCount: 2
Fore
SplineSet
240 2544 m 1,0,-1
 240 3024 l 1,1,-1
 736 3024 l 1,2,-1
 736 2544 l 1,3,-1
 240 2544 l 1,0,-1
1248 2544 m 1,4,-1
 1248 3024 l 1,5,-1
 1744 3024 l 1,6,-1
 1744 2544 l 1,7,-1
 1248 2544 l 1,4,-1
1152 1920 m 2,8,9
 1552 1920 1552 1920 1744 1664 c 128,-1,10
 1936 1408 1936 1408 1936 1008 c 2,11,-1
 1936 960 l 2,12,13
 1936 512 1936 512 1736 256 c 128,-1,14
 1536 0 1536 0 1152 0 c 2,15,-1
 912 0 l 2,16,17
 528 0 528 0 344 240 c 128,-1,18
 160 480 160 480 160 960 c 2,19,-1
 160 1008 l 2,20,21
 160 1424 160 1424 360 1672 c 128,-1,22
 560 1920 560 1920 912 1920 c 2,23,-1
 1152 1920 l 2,8,9
512 1008 m 2,24,-1
 512 960 l 2,25,26
 512 576 512 576 616 424 c 128,-1,27
 720 272 720 272 912 272 c 2,28,-1
 1152 272 l 2,29,30
 1344 272 1344 272 1464 448 c 128,-1,31
 1584 624 1584 624 1584 960 c 2,32,-1
 1584 1008 l 2,33,34
 1584 1328 1584 1328 1472 1488 c 128,-1,35
 1360 1648 1360 1648 1152 1648 c 2,36,-1
 912 1648 l 2,37,38
 736 1648 736 1648 624 1496 c 128,-1,39
 512 1344 512 1344 512 1008 c 2,24,-1
EndSplineSet
EndChar

StartChar: divide
Encoding: 247 247 185
Width: 4096
GlyphClass: 2
Flags: W
LayerCount: 2
Fore
SplineSet
624 1680 m 1,0,-1
 3424 1680 l 1,1,-1
 3424 1424 l 1,2,-1
 624 1424 l 1,3,-1
 624 1680 l 1,0,-1
2048 2672 m 0,4,5
 2272 2672 2272 2672 2272 2432 c 256,6,7
 2272 2192 2272 2192 2048 2192 c 0,8,9
 1808 2192 1808 2192 1808 2432 c 256,10,11
 1808 2672 1808 2672 2048 2672 c 0,4,5
2048 928 m 256,12,13
 2288 928 2288 928 2288 688 c 256,14,15
 2288 448 2288 448 2048 448 c 256,16,17
 1808 448 1808 448 1808 688 c 256,18,19
 1808 928 1808 928 2048 928 c 256,12,13
EndSplineSet
Substitution2: "sous-table 'vert' Formes verticales alternatives (CJK) dans Hiragana & katakana lookup 0" divide.vert
EndChar

StartChar: oslash
Encoding: 248 248 186
Width: 2080
GlyphClass: 2
Flags: W
LayerCount: 2
Fore
SplineSet
1280 1568 m 1,0,1
 1168 1632 1168 1632 1040 1632 c 0,2,3
 832 1632 832 1632 656 1456 c 128,-1,4
 480 1280 480 1280 480 928 c 0,5,6
 480 656 480 656 592 496 c 1,7,-1
 1280 1568 l 1,0,1
448 224 m 1,8,9
 112 528 112 528 112 944 c 0,10,11
 112 1312 112 1312 368 1616 c 128,-1,12
 624 1920 624 1920 1040 1920 c 0,13,14
 1264 1920 1264 1920 1440 1840 c 1,15,-1
 1680 2256 l 1,16,-1
 1856 2144 l 1,17,-1
 1600 1728 l 1,18,19
 1984 1424 1984 1424 1984 928 c 0,20,21
 1984 528 1984 528 1720 264 c 128,-1,22
 1456 0 1456 0 1040 0 c 0,23,24
 768 0 768 0 608 112 c 1,25,-1
 352 -256 l 1,26,-1
 192 -144 l 1,27,-1
 448 224 l 1,8,9
1424 1472 m 1,28,-1
 720 336 l 1,29,30
 880 224 880 224 1040 224 c 0,31,32
 1248 224 1248 224 1424 400 c 128,-1,33
 1600 576 1600 576 1600 944 c 0,34,35
 1600 1280 1600 1280 1424 1472 c 1,28,-1
EndSplineSet
EndChar

StartChar: ugrave
Encoding: 249 249 187
Width: 2048
GlyphClass: 2
Flags: W
LayerCount: 2
Fore
SplineSet
512 3248 m 1,0,-1
 1056 3248 l 1,1,-1
 1536 2544 l 1,2,-1
 1216 2544 l 1,3,-1
 512 3248 l 1,0,-1
1728 0 m 1,4,-1
 1360 0 l 1,5,-1
 1360 208 l 1,6,7
 1168 0 1168 0 800 0 c 0,8,9
 560 0 560 0 432 136 c 128,-1,10
 304 272 304 272 304 528 c 2,11,-1
 304 1920 l 1,12,-1
 672 1920 l 1,13,-1
 672 544 l 2,14,15
 672 288 672 288 928 288 c 0,16,17
 1168 288 1168 288 1360 576 c 1,18,-1
 1360 1920 l 1,19,-1
 1728 1920 l 1,20,-1
 1728 0 l 1,4,-1
EndSplineSet
EndChar

StartChar: uacute
Encoding: 250 250 188
Width: 2048
GlyphClass: 2
Flags: W
LayerCount: 2
Fore
SplineSet
1536 3248 m 1,0,-1
 832 2544 l 1,1,-1
 512 2544 l 1,2,-1
 992 3248 l 1,3,-1
 1536 3248 l 1,0,-1
1728 0 m 1,4,-1
 1360 0 l 1,5,-1
 1360 208 l 1,6,7
 1168 0 1168 0 800 0 c 0,8,9
 560 0 560 0 432 136 c 128,-1,10
 304 272 304 272 304 528 c 2,11,-1
 304 1920 l 1,12,-1
 672 1920 l 1,13,-1
 672 544 l 2,14,15
 672 288 672 288 928 288 c 0,16,17
 1168 288 1168 288 1360 576 c 1,18,-1
 1360 1920 l 1,19,-1
 1728 1920 l 1,20,-1
 1728 0 l 1,4,-1
EndSplineSet
EndChar

StartChar: ucircumflex
Encoding: 251 251 189
Width: 2048
GlyphClass: 2
Flags: W
LayerCount: 2
Fore
SplineSet
944 3248 m 1,0,-1
 1104 3248 l 1,1,-1
 1664 2688 l 1,2,-1
 1456 2544 l 1,3,-1
 1024 2992 l 1,4,-1
 592 2544 l 1,5,-1
 384 2688 l 1,6,-1
 944 3248 l 1,0,-1
1728 0 m 1,7,-1
 1360 0 l 1,8,-1
 1360 208 l 1,9,10
 1168 0 1168 0 800 0 c 0,11,12
 560 0 560 0 432 136 c 128,-1,13
 304 272 304 272 304 528 c 2,14,-1
 304 1920 l 1,15,-1
 672 1920 l 1,16,-1
 672 544 l 2,17,18
 672 288 672 288 928 288 c 0,19,20
 1168 288 1168 288 1360 576 c 1,21,-1
 1360 1920 l 1,22,-1
 1728 1920 l 1,23,-1
 1728 0 l 1,7,-1
EndSplineSet
EndChar

StartChar: udieresis
Encoding: 252 252 190
Width: 2048
GlyphClass: 2
Flags: W
LayerCount: 2
Fore
SplineSet
240 2544 m 1,0,-1
 240 3024 l 1,1,-1
 720 3024 l 1,2,-1
 720 2544 l 1,3,-1
 240 2544 l 1,0,-1
1232 2544 m 1,4,-1
 1232 3024 l 1,5,-1
 1712 3024 l 1,6,-1
 1712 2544 l 1,7,-1
 1232 2544 l 1,4,-1
1728 0 m 1,8,-1
 1360 0 l 1,9,-1
 1360 208 l 1,10,11
 1168 0 1168 0 800 0 c 0,12,13
 560 0 560 0 432 136 c 128,-1,14
 304 272 304 272 304 528 c 2,15,-1
 304 1920 l 1,16,-1
 672 1920 l 1,17,-1
 672 544 l 2,18,19
 672 288 672 288 928 288 c 0,20,21
 1168 288 1168 288 1360 576 c 1,22,-1
 1360 1920 l 1,23,-1
 1728 1920 l 1,24,-1
 1728 0 l 1,8,-1
EndSplineSet
EndChar

StartChar: yacute
Encoding: 253 253 191
Width: 1952
GlyphClass: 2
Flags: W
LayerCount: 2
Fore
SplineSet
1456 3248 m 1,0,-1
 800 2544 l 1,1,-1
 496 2544 l 1,2,-1
 944 3248 l 1,3,-1
 1456 3248 l 1,0,-1
1776 1920 m 1,4,-1
 848 -576 l 1,5,-1
 480 -576 l 1,6,-1
 752 160 l 1,7,-1
 192 1920 l 1,8,-1
 544 1920 l 1,9,-1
 944 608 l 1,10,-1
 1408 1920 l 1,11,-1
 1776 1920 l 1,4,-1
EndSplineSet
EndChar

StartChar: thorn
Encoding: 254 254 192
Width: 2032
GlyphClass: 2
Flags: W
LayerCount: 2
Fore
SplineSet
272 -464 m 1,0,-1
 272 2720 l 1,1,-1
 576 2720 l 1,2,-1
 576 1920 l 1,3,4
 864 2128 864 2128 1136 2128 c 0,5,6
 1472 2128 1472 2128 1680 1872 c 128,-1,7
 1888 1616 1888 1616 1888 1152 c 0,8,9
 1888 656 1888 656 1664 424 c 128,-1,10
 1440 192 1440 192 1120 192 c 0,11,12
 832 192 832 192 576 368 c 1,13,-1
 576 -464 l 1,14,-1
 272 -464 l 1,0,-1
1120 512 m 0,15,16
 1536 512 1536 512 1536 1152 c 256,17,18
 1536 1792 1536 1792 1120 1808 c 1,19,20
 784 1808 784 1808 576 1536 c 1,21,-1
 576 688 l 1,22,23
 816 512 816 512 1120 512 c 0,15,16
EndSplineSet
EndChar

StartChar: ydieresis
Encoding: 255 255 193
Width: 1952
GlyphClass: 2
Flags: W
LayerCount: 2
Fore
SplineSet
240 2544 m 1,0,-1
 240 3024 l 1,1,-1
 688 3024 l 1,2,-1
 688 2544 l 1,3,-1
 240 2544 l 1,0,-1
1184 2544 m 1,4,-1
 1184 3024 l 1,5,-1
 1632 3024 l 1,6,-1
 1632 2544 l 1,7,-1
 1184 2544 l 1,4,-1
1776 1920 m 1,8,-1
 848 -576 l 1,9,-1
 480 -576 l 1,10,-1
 752 160 l 1,11,-1
 192 1920 l 1,12,-1
 544 1920 l 1,13,-1
 944 608 l 1,14,-1
 1408 1920 l 1,15,-1
 1776 1920 l 1,8,-1
EndSplineSet
EndChar

StartChar: Amacron
Encoding: 256 256 194
Width: 2592
GlyphClass: 2
Flags: W
LayerCount: 2
Fore
SplineSet
1968 2992 m 1,0,-1
 592 2992 l 1,1,-1
 592 3264 l 1,2,-1
 1968 3264 l 1,3,-1
 1968 2992 l 1,0,-1
2064 0 m 1,4,-1
 1776 0 l 1,5,-1
 1600 672 l 1,6,-1
 960 672 l 1,7,-1
 784 0 l 1,8,-1
 496 0 l 1,9,-1
 1120 2352 l 1,10,-1
 1440 2352 l 1,11,-1
 2064 0 l 1,4,-1
1024 960 m 1,12,-1
 1536 960 l 1,13,-1
 1280 1904 l 1,14,-1
 1024 960 l 1,12,-1
EndSplineSet
EndChar

StartChar: amacron
Encoding: 257 257 195
Width: 1952
GlyphClass: 2
Flags: W
LayerCount: 2
Fore
SplineSet
1760 2992 m 1,0,-1
 192 2992 l 1,1,-1
 192 3264 l 1,2,-1
 1760 3264 l 1,3,-1
 1760 2992 l 1,0,-1
1744 0 m 1,4,-1
 1456 0 l 1,5,-1
 1392 176 l 1,6,7
 1152 0 1152 0 768 0 c 0,8,9
 192 0 192 0 192 608 c 0,10,11
 192 1280 192 1280 1040 1280 c 2,12,-1
 1360 1280 l 1,13,-1
 1360 1392 l 2,14,15
 1360 1552 1360 1552 1272 1624 c 128,-1,16
 1184 1696 1184 1696 1040 1696 c 2,17,-1
 768 1696 l 2,18,19
 496 1696 496 1696 336 1568 c 1,20,-1
 208 1760 l 1,21,22
 464 1920 464 1920 752 1920 c 2,23,-1
 1104 1920 l 2,24,25
 1312 1920 1312 1920 1488 1808 c 128,-1,26
 1664 1696 1664 1696 1664 1392 c 2,27,-1
 1664 416 l 1,28,-1
 1744 0 l 1,4,-1
1360 1040 m 1,29,-1
 1040 1040 l 2,30,31
 544 1040 544 1040 528 592 c 1,32,33
 528 224 528 224 848 224 c 0,34,35
 1104 224 1104 224 1360 432 c 1,36,-1
 1360 1040 l 1,29,-1
EndSplineSet
EndChar

StartChar: Abreve
Encoding: 258 258 196
Width: 2592
GlyphClass: 2
Flags: W
LayerCount: 2
Fore
SplineSet
2032 3520 m 1,0,1
 2032 2704 2032 2704 1328 2704 c 0,2,3
 592 2704 592 2704 592 3520 c 1,4,-1
 800 3520 l 1,5,6
 800 2944 800 2944 1328 2944 c 1,7,8
 1840 2960 1840 2960 1840 3520 c 1,9,-1
 2032 3520 l 1,0,1
2096 0 m 1,10,-1
 1808 0 l 1,11,-1
 1616 672 l 1,12,-1
 976 672 l 1,13,-1
 800 0 l 1,14,-1
 528 0 l 1,15,-1
 1152 2352 l 1,16,-1
 1456 2352 l 1,17,-1
 2096 0 l 1,10,-1
1056 960 m 1,18,-1
 1552 960 l 1,19,-1
 1312 1904 l 1,20,-1
 1056 960 l 1,18,-1
EndSplineSet
EndChar

StartChar: abreve
Encoding: 259 259 197
Width: 1952
GlyphClass: 2
Flags: W
LayerCount: 2
Fore
SplineSet
1792 3520 m 1,0,1
 1792 2704 1792 2704 992 2704 c 0,2,3
 160 2704 160 2704 160 3520 c 1,4,-1
 400 3520 l 1,5,6
 400 2944 400 2944 992 2944 c 1,7,8
 1568 2960 1568 2960 1584 3520 c 1,9,-1
 1792 3520 l 1,0,1
1744 0 m 1,10,-1
 1456 0 l 1,11,-1
 1392 176 l 1,12,13
 1152 0 1152 0 768 0 c 0,14,15
 192 0 192 0 192 608 c 0,16,17
 192 1280 192 1280 1040 1280 c 2,18,-1
 1360 1280 l 1,19,-1
 1360 1392 l 2,20,21
 1360 1552 1360 1552 1272 1624 c 128,-1,22
 1184 1696 1184 1696 1040 1696 c 2,23,-1
 768 1696 l 2,24,25
 496 1696 496 1696 336 1568 c 1,26,-1
 208 1760 l 1,27,28
 464 1920 464 1920 752 1920 c 2,29,-1
 1104 1920 l 2,30,31
 1312 1920 1312 1920 1488 1808 c 128,-1,32
 1664 1696 1664 1696 1664 1392 c 2,33,-1
 1664 416 l 1,34,-1
 1744 0 l 1,10,-1
1360 1040 m 1,35,-1
 1040 1040 l 2,36,37
 544 1040 544 1040 528 592 c 1,38,39
 528 224 528 224 848 224 c 0,40,41
 1104 224 1104 224 1360 432 c 1,42,-1
 1360 1040 l 1,35,-1
EndSplineSet
EndChar

StartChar: Aogonek
Encoding: 260 260 198
Width: 2736
GlyphClass: 2
Flags: W
LayerCount: 2
Fore
SplineSet
2528 -576 m 1,0,-1
 2128 -576 l 2,1,2
 1744 -576 1744 -576 1744 -208 c 2,3,-1
 1744 0 l 1,4,-1
 1872 0 l 1,5,-1
 1680 880 l 1,6,-1
 1008 880 l 1,7,-1
 816 0 l 1,8,-1
 528 0 l 1,9,-1
 1184 3104 l 1,10,-1
 1520 3104 l 1,11,-1
 2176 0 l 1,12,-1
 1984 0 l 1,13,-1
 1984 -208 l 2,14,15
 1984 -352 1984 -352 2128 -352 c 2,16,-1
 2528 -352 l 1,17,-1
 2528 -576 l 1,0,-1
1088 1264 m 1,18,-1
 1616 1264 l 1,19,-1
 1344 2496 l 1,20,-1
 1088 1264 l 1,18,-1
EndSplineSet
EndChar

StartChar: aogonek
Encoding: 261 261 199
Width: 2160
GlyphClass: 2
Flags: W
LayerCount: 2
Fore
SplineSet
2080 -576 m 1,0,-1
 1920 -576 l 2,1,2
 1504 -576 1504 -576 1504 -208 c 2,3,-1
 1504 176 l 1,4,5
 1264 0 1264 0 848 0 c 0,6,7
 208 0 208 0 208 608 c 0,8,9
 208 1280 208 1280 1152 1280 c 2,10,-1
 1504 1280 l 1,11,-1
 1504 1392 l 2,12,13
 1504 1552 1504 1552 1408 1624 c 128,-1,14
 1312 1696 1312 1696 1152 1696 c 2,15,-1
 848 1696 l 2,16,17
 560 1696 560 1696 368 1568 c 1,18,-1
 224 1760 l 1,19,20
 512 1920 512 1920 832 1920 c 2,21,-1
 1216 1920 l 2,22,23
 1456 1920 1456 1920 1648 1808 c 128,-1,24
 1840 1696 1840 1696 1840 1392 c 2,25,-1
 1840 416 l 1,26,-1
 1920 0 l 1,27,-1
 1760 0 l 1,28,-1
 1760 -208 l 2,29,30
 1760 -352 1760 -352 1920 -352 c 2,31,-1
 2080 -352 l 1,32,-1
 2080 -576 l 1,0,-1
1504 1040 m 1,33,-1
 1152 1040 l 2,34,35
 592 1040 592 1040 576 592 c 1,36,37
 576 224 576 224 928 224 c 0,38,39
 1216 224 1216 224 1504 432 c 1,40,-1
 1504 1040 l 1,33,-1
EndSplineSet
EndChar

StartChar: Cacute
Encoding: 262 262 200
Width: 2720
GlyphClass: 2
Flags: W
LayerCount: 2
Fore
SplineSet
2080 752 m 1,0,1
 2080 432 2080 432 1912 216 c 128,-1,2
 1744 0 1744 0 1520 0 c 2,3,-1
 1280 0 l 2,4,5
 624 0 624 0 624 1168 c 2,6,-1
 624 1248 l 2,7,8
 624 2352 624 2352 1280 2352 c 2,9,-1
 1504 2352 l 2,10,11
 1760 2352 1760 2352 1920 2152 c 128,-1,12
 2080 1952 2080 1952 2080 1600 c 1,13,-1
 1808 1600 l 1,14,15
 1808 1776 1808 1776 1720 1920 c 128,-1,16
 1632 2064 1632 2064 1392 2064 c 0,17,18
 928 2064 928 2064 928 1264 c 2,19,-1
 928 1168 l 2,20,21
 928 288 928 288 1392 288 c 0,22,23
 1600 288 1600 288 1696 424 c 128,-1,24
 1792 560 1792 560 1808 752 c 1,25,-1
 2080 752 l 1,0,1
1824 3520 m 1,26,-1
 1248 2720 l 1,27,-1
 976 2720 l 1,28,-1
 1376 3520 l 1,29,-1
 1824 3520 l 1,26,-1
EndSplineSet
EndChar

StartChar: cacute
Encoding: 263 263 201
Width: 2048
GlyphClass: 2
Flags: W
LayerCount: 2
Fore
SplineSet
1840 576 m 1,0,1
 1840 336 1840 336 1656 168 c 128,-1,2
 1472 0 1472 0 1216 0 c 2,3,-1
 944 0 l 2,4,5
 208 0 208 0 208 896 c 2,6,-1
 208 1040 l 2,7,8
 208 1904 208 1904 960 1920 c 1,9,-1
 1200 1920 l 2,10,11
 1488 1920 1488 1920 1664 1752 c 128,-1,12
 1840 1584 1840 1584 1840 1328 c 1,13,-1
 1536 1328 l 1,14,15
 1536 1456 1536 1456 1440 1552 c 128,-1,16
 1344 1648 1344 1648 1072 1648 c 0,17,18
 544 1648 544 1648 544 1056 c 2,19,-1
 544 912 l 2,20,21
 544 272 544 272 1072 272 c 0,22,23
 1312 272 1312 272 1416 352 c 128,-1,24
 1520 432 1520 432 1536 576 c 1,25,-1
 1840 576 l 1,0,1
1504 3520 m 1,26,-1
 864 2720 l 1,27,-1
 560 2720 l 1,28,-1
 1008 3520 l 1,29,-1
 1504 3520 l 1,26,-1
EndSplineSet
EndChar

StartChar: Ccircumflex
Encoding: 264 264 202
Width: 2720
GlyphClass: 2
Flags: W
LayerCount: 2
Fore
SplineSet
2144 752 m 1,0,1
 2144 432 2144 432 1984 216 c 128,-1,2
 1824 0 1824 0 1584 0 c 2,3,-1
 1344 0 l 2,4,5
 704 0 704 0 704 1168 c 2,6,-1
 704 1248 l 2,7,8
 704 2352 704 2352 1360 2352 c 2,9,-1
 1584 2352 l 2,10,11
 1824 2352 1824 2352 1984 2152 c 128,-1,12
 2144 1952 2144 1952 2144 1600 c 1,13,-1
 1872 1600 l 1,14,15
 1872 1776 1872 1776 1784 1920 c 128,-1,16
 1696 2064 1696 2064 1456 2064 c 0,17,18
 992 2064 992 2064 992 1264 c 2,19,-1
 992 1168 l 2,20,21
 992 288 992 288 1456 288 c 0,22,23
 1680 288 1680 288 1768 424 c 128,-1,24
 1856 560 1856 560 1872 752 c 1,25,-1
 2144 752 l 1,0,1
1296 3520 m 1,26,-1
 1424 3520 l 1,27,-1
 1888 2832 l 1,28,-1
 1712 2672 l 1,29,-1
 1360 3216 l 1,30,-1
 1008 2672 l 1,31,-1
 832 2832 l 1,32,-1
 1296 3520 l 1,26,-1
EndSplineSet
EndChar

StartChar: ccircumflex
Encoding: 265 265 203
Width: 2048
GlyphClass: 2
Flags: W
LayerCount: 2
Fore
SplineSet
944 3520 m 1,0,-1
 1088 3520 l 1,1,-1
 1600 2832 l 1,2,-1
 1408 2672 l 1,3,-1
 1008 3216 l 1,4,-1
 608 2672 l 1,5,-1
 416 2832 l 1,6,-1
 944 3520 l 1,0,-1
1840 576 m 1,7,8
 1840 336 1840 336 1656 168 c 128,-1,9
 1472 0 1472 0 1216 0 c 2,10,-1
 944 0 l 2,11,12
 208 0 208 0 208 896 c 2,13,-1
 208 1040 l 2,14,15
 208 1904 208 1904 960 1920 c 1,16,-1
 1200 1920 l 2,17,18
 1488 1920 1488 1920 1664 1752 c 128,-1,19
 1840 1584 1840 1584 1840 1328 c 1,20,-1
 1536 1328 l 1,21,22
 1536 1456 1536 1456 1440 1552 c 128,-1,23
 1344 1648 1344 1648 1072 1648 c 0,24,25
 544 1648 544 1648 544 1056 c 2,26,-1
 544 912 l 2,27,28
 544 272 544 272 1072 272 c 0,29,30
 1312 272 1312 272 1416 352 c 128,-1,31
 1520 432 1520 432 1536 576 c 1,32,-1
 1840 576 l 1,7,8
EndSplineSet
EndChar

StartChar: Cdotaccent
Encoding: 266 266 204
Width: 2720
GlyphClass: 2
Flags: W
LayerCount: 2
Fore
SplineSet
2448 752 m 1,0,1
 2448 432 2448 432 2200 216 c 128,-1,2
 1952 0 1952 0 1616 0 c 2,3,-1
 1264 0 l 2,4,5
 288 0 288 0 288 1168 c 2,6,-1
 288 1248 l 2,7,8
 288 2352 288 2352 1264 2352 c 2,9,-1
 1600 2352 l 2,10,11
 1984 2352 1984 2352 2216 2152 c 128,-1,12
 2448 1952 2448 1952 2448 1600 c 1,13,-1
 2048 1600 l 1,14,15
 2048 1776 2048 1776 1920 1920 c 128,-1,16
 1792 2064 1792 2064 1424 2064 c 0,17,18
 720 2064 720 2064 720 1264 c 2,19,-1
 720 1168 l 2,20,21
 720 288 720 288 1424 288 c 0,22,23
 1744 288 1744 288 1880 424 c 128,-1,24
 2016 560 2016 560 2048 752 c 1,25,-1
 2448 752 l 1,0,1
1104 2720 m 1,26,-1
 1104 3536 l 1,27,-1
 1744 3536 l 1,28,-1
 1744 2720 l 1,29,-1
 1104 2720 l 1,26,-1
EndSplineSet
EndChar

StartChar: cdotaccent
Encoding: 267 267 205
Width: 2048
GlyphClass: 2
Flags: W
LayerCount: 2
Fore
SplineSet
784 2720 m 1,0,-1
 784 3536 l 1,1,-1
 1264 3536 l 1,2,-1
 1264 2720 l 1,3,-1
 784 2720 l 1,0,-1
1840 576 m 1,4,5
 1840 336 1840 336 1656 168 c 128,-1,6
 1472 0 1472 0 1216 0 c 2,7,-1
 944 0 l 2,8,9
 208 0 208 0 208 896 c 2,10,-1
 208 1040 l 2,11,12
 208 1904 208 1904 960 1920 c 1,13,-1
 1200 1920 l 2,14,15
 1488 1920 1488 1920 1664 1752 c 128,-1,16
 1840 1584 1840 1584 1840 1328 c 1,17,-1
 1536 1328 l 1,18,19
 1536 1456 1536 1456 1440 1552 c 128,-1,20
 1344 1648 1344 1648 1072 1648 c 0,21,22
 544 1648 544 1648 544 1056 c 2,23,-1
 544 912 l 2,24,25
 544 272 544 272 1072 272 c 0,26,27
 1312 272 1312 272 1416 352 c 128,-1,28
 1520 432 1520 432 1536 576 c 1,29,-1
 1840 576 l 1,4,5
EndSplineSet
EndChar

StartChar: Ccaron
Encoding: 268 268 206
Width: 2720
GlyphClass: 2
Flags: W
LayerCount: 2
Fore
SplineSet
2016 752 m 1,0,1
 2016 432 2016 432 1856 216 c 128,-1,2
 1696 0 1696 0 1456 0 c 2,3,-1
 1216 0 l 2,4,5
 576 0 576 0 576 1168 c 2,6,-1
 576 1248 l 2,7,8
 576 2352 576 2352 1232 2352 c 2,9,-1
 1456 2352 l 2,10,11
 1696 2352 1696 2352 1856 2152 c 128,-1,12
 2016 1952 2016 1952 2016 1600 c 1,13,-1
 1744 1600 l 1,14,15
 1744 1776 1744 1776 1664 1920 c 128,-1,16
 1584 2064 1584 2064 1328 2064 c 0,17,18
 864 2064 864 2064 864 1264 c 2,19,-1
 864 1168 l 2,20,21
 864 288 864 288 1328 288 c 0,22,23
 1552 288 1552 288 1640 424 c 128,-1,24
 1728 560 1728 560 1744 752 c 1,25,-1
 2016 752 l 1,0,1
1520 2656 m 1,26,-1
 1376 2656 l 1,27,-1
 928 3344 l 1,28,-1
 1088 3520 l 1,29,-1
 1440 2960 l 1,30,-1
 1808 3520 l 1,31,-1
 1968 3344 l 1,32,-1
 1520 2656 l 1,26,-1
EndSplineSet
EndChar

StartChar: ccaron
Encoding: 269 269 207
Width: 2048
GlyphClass: 2
Flags: W
LayerCount: 2
Fore
SplineSet
1184 2656 m 1,0,-1
 1024 2656 l 1,1,-1
 512 3344 l 1,2,-1
 704 3520 l 1,3,-1
 1104 2960 l 1,4,-1
 1504 3520 l 1,5,-1
 1696 3344 l 1,6,-1
 1184 2656 l 1,0,-1
1840 576 m 1,7,8
 1840 336 1840 336 1656 168 c 128,-1,9
 1472 0 1472 0 1216 0 c 2,10,-1
 944 0 l 2,11,12
 208 0 208 0 208 896 c 2,13,-1
 208 1040 l 2,14,15
 208 1904 208 1904 960 1920 c 1,16,-1
 1200 1920 l 2,17,18
 1488 1920 1488 1920 1664 1752 c 128,-1,19
 1840 1584 1840 1584 1840 1328 c 1,20,-1
 1536 1328 l 1,21,22
 1536 1456 1536 1456 1440 1552 c 128,-1,23
 1344 1648 1344 1648 1072 1648 c 0,24,25
 544 1648 544 1648 544 1056 c 2,26,-1
 544 912 l 2,27,28
 544 272 544 272 1072 272 c 0,29,30
 1312 272 1312 272 1416 352 c 128,-1,31
 1520 432 1520 432 1536 576 c 1,32,-1
 1840 576 l 1,7,8
EndSplineSet
EndChar

StartChar: Dcaron
Encoding: 270 270 208
Width: 2656
GlyphClass: 2
Flags: W
LayerCount: 2
Fore
SplineSet
288 2352 m 1,0,-1
 1200 2352 l 2,1,2
 2352 2352 2352 2352 2384 1184 c 1,3,4
 2384 0 2384 0 1184 0 c 2,5,-1
 288 0 l 1,6,-1
 288 2352 l 1,0,-1
624 224 m 1,7,-1
 1184 224 l 2,8,9
 2016 224 2016 224 2016 1184 c 0,10,11
 2016 2128 2016 2128 1184 2128 c 2,12,-1
 624 2128 l 1,13,-1
 624 224 l 1,7,-1
1408 2656 m 1,14,-1
 1280 2656 l 1,15,-1
 832 3344 l 1,16,-1
 992 3520 l 1,17,-1
 1344 2960 l 1,18,-1
 1696 3520 l 1,19,-1
 1856 3344 l 1,20,-1
 1408 2656 l 1,14,-1
EndSplineSet
EndChar

StartChar: dcaron
Encoding: 271 271 209
Width: 2480
GlyphClass: 2
Flags: W
LayerCount: 2
Fore
SplineSet
1344 0 m 1,0,-1
 1072 0 l 1,1,-1
 1072 128 l 1,2,3
 960 0 960 0 832 0 c 2,4,-1
 672 0 l 2,5,6
 192 0 192 0 192 1088 c 2,7,-1
 192 1248 l 2,8,9
 192 2352 192 2352 672 2352 c 2,10,-1
 832 2352 l 2,11,12
 976 2352 976 2352 1072 2224 c 1,13,-1
 1072 3520 l 1,14,-1
 1344 3520 l 1,15,-1
 1344 0 l 1,0,-1
1072 464 m 1,16,-1
 1072 1872 l 1,17,18
 976 2064 976 2064 832 2064 c 0,19,20
 464 2064 464 2064 464 1248 c 2,21,-1
 464 1088 l 2,22,23
 464 288 464 288 816 288 c 0,24,25
 960 288 960 288 1072 464 c 1,16,-1
2080 3104 m 1,26,-1
 2080 2512 l 2,27,28
 2080 1760 2080 1760 1712 1728 c 1,29,-1
 1712 2016 l 1,30,31
 1888 2016 1888 2016 1888 2528 c 1,32,-1
 1712 2528 l 1,33,-1
 1712 3104 l 1,34,-1
 2080 3104 l 1,26,-1
EndSplineSet
EndChar

